<?xml version="1.0" encoding="utf-8"?>
<!-- Generator: Adobe Illustrator 26.3.1, SVG Export Plug-In . SVG Version: 6.00 Build 0)  -->
<svg version="1.1" id="medium_box" xmlns="http://www.w3.org/2000/svg" xmlns:xlink="http://www.w3.org/1999/xlink" x="0px" y="0px"
	 viewBox="0 0 402 226.2" style="enable-background:new 0 0 402 226.2;" xml:space="preserve">
<style type="text/css">
	.st0{fill:#FFFFFF;}
	.st1{fill:#010000;}
	.st2{fill:#020201;}
	.st3{fill:#010101;}
	.st4{fill:#090909;}
	.st5{fill:#030303;}
	.st6{fill:#FF9900;}
	.st7{fill:#FEFEFD;}
	.st8{fill:#FEFEFE;}
	.st9{fill:#FDFCFB;}
	.st10{fill:#070400;}
	.st11{fill:#080500;}
</style>
<g>
	<g>
		<path class="st0" d="M201,226.1c-59.4,0-118.7-0.1-178.1,0.1c-5.3,0-9.7-1.6-13.8-4.5c-2.5-1.7-4.6-4-6-6.8
			c-1.9-3.9-3.2-7.9-3.1-12.4C0.1,143,0.1,83.3,0,23.6c0-4.3,1.1-8.2,2.9-11.9C4.8,8,7.5,5.2,11.1,3.2C15,1,19,0.1,23.5,0.1
			c103.4,0,206.7,0,310.1,0c15.4,0,30.7,0.4,46.1,0c7.6-0.2,17.9,6,20.4,13.4c1.1,3.2,2,6.3,1.9,9.8c-0.1,13.4,0,26.9,0,40.3
			c0,46.4,0,92.8,0,139.2c0,4.5-1,8.5-3.1,12.4c-1.4,2.8-3.4,5-6,6.8c-4.2,2.8-8.6,4.4-13.9,4.4C319.7,226.1,260.4,226.1,201,226.1z
			"/>
		<path class="st1" d="M201.1,6.2c59.2,0,118.4,0,177.6,0c2.4,0,4.6,0,7,1.1c4.7,2.1,7.9,5.3,9.4,10.2c0.4,1.3,0.7,2.8,0.8,4.2
			c0.1,4.3,0.1,8.6,0.1,13c0,56,0,112,0,168c0,2.9-0.4,5.7-1.7,8.3c-3,6.1-7.9,9.1-14.5,9.2c-15,0.2-30.1,0.1-45.1,0.1
			c-103.5,0-207,0-310.5,0c-3.4,0-6.6-0.5-9.6-2.2c-5.4-3-7.9-7.8-8.3-13.7c-0.3-4.3-0.1-8.6-0.1-13c0-55.8,0.1-111.6,0-167.5
			c0-3.3,0.6-6.3,2.1-9.2C9.5,12,11.4,10,14,8.5c3-1.6,6.1-2.4,9.6-2.4C82.8,6.2,142,6.2,201.1,6.2z"/>
		<path class="st0" d="M201,12.9c59.7,0,119.4,0,179,0c1.9,0,3.8-0.3,5.5,0.9c2.7,1.9,4.1,4.4,4.4,7.6c0.1,1.7,0.1,3.5,0.1,5.3
			c0,57.6,0,115.2,0,172.8c0,1.6,0.1,3.2-0.1,4.8c-0.1,1.3-0.3,2.5-0.8,3.7c-1.4,3.6-4.2,5.5-8.1,5.5c-9.8,0-19.5,0-29.3,0
			c-109.6,0-219.2,0-328.8,0c-0.6,0-1.3,0-1.9,0c-4.3,0-7.2-2.1-8.5-6.3c-0.4-1.4-0.5-2.8-0.6-4.2c-0.1-3.5,0-7,0-10.6
			c0-52.8,0-105.6,0-158.4c0-3.7-0.1-7.4,0-11c0-1.3,0.2-2.6,0.5-3.8c1.2-4.3,4-6.3,8.4-6.3c9.8,0,19.5,0,29.3,0
			C100.5,12.9,150.8,12.9,201,12.9C201,12.9,201,12.9,201,12.9z"/>
		<path class="st2" d="M252.4,129.9c-34.7,0-69.4,0-104.1,0c-1.3,0-2.6,0.1-3.8,0c-3.3-0.3-4.9-1.9-5.3-5.1c-0.1-1-0.1-1.9-0.1-2.9
			c0-18.1,0-36.1,0-54.2c0-1,0-1.9,0.1-2.9c0.3-3.2,2-4.8,5.3-5c4.8-0.2,9.6-0.3,14.4-0.3c43-0.1,86-0.2,129.1-0.3
			c21.1-0.1,42.2-0.2,63.3-0.2c3.5,0,7,0.4,10.4,1c2.6,0.4,4.1,2,4.2,4.5c0,1.1,0,2.2,0,3.4c0,17.8,0,35.5,0,53.3c0,0.8,0,1.6,0,2.4
			c0.2,5.2-1.9,5.3-5.5,6.2c-1.4,0.3-2.9,0.1-4.3,0.1C321.5,129.9,286.9,129.9,252.4,129.9C252.4,129.9,252.4,129.9,252.4,129.9z"/>
		<path class="st3" d="M260.6,23.6c36.1,0,72.3,0,108.4,0c1.4,0,2.9-0.1,4.3,0.1c1.8,0.2,3.2,1.6,3.5,3.4c0.2,1.4,0.1,2.9,0.2,4.3
			c0.1,2.2,0.1,4.5,0.3,6.7c0.2,2.1-0.2,4.2-1.1,6.1c-0.3,0.6-1.2,1.4-1.8,1.3c-3-0.5-6,0.3-9,0.2c-13.7-0.4-27.5-0.6-41.2-0.8
			c-2.6,0-5.1,0-7.7,0c-55.6,0-111.3-0.1-166.9-0.1c-1.3,0-2.6,0-3.8,0c-1.4-0.1-2.5-0.8-2.8-2.2c-0.4-1.7-0.8-3.4-0.8-5.2
			c-0.1-2.6,0-5.1,0.2-7.7c0.2-3.5,2-5.5,5.6-5.8c1.1-0.1,2.2-0.1,3.4-0.1c26.1-0.1,52.1-0.1,78.2-0.1
			C239.8,23.6,250.2,23.6,260.6,23.6C260.6,23.6,260.6,23.6,260.6,23.6z"/>
		<path class="st3" d="M120.9,75.3c-0.7,25.6-21.2,45.4-46.5,45C48.6,119.7,29,98.8,29.6,73.6c0.5-25.5,21.6-45.3,46.7-44.7
			C100.2,29.4,121.1,49,120.9,75.3z"/>
		<path class="st4" d="M317.1,190c10.5,0,21.1,0,31.6,0c1.1,0,2.2-0.1,3.3,0.1c2.3,0.2,3.7,1.4,3.6,3.1c-0.1,1.6-1.5,2.7-3.8,2.9
			c-1.1,0.1-2.2,0.1-3.3,0.1c-8.5,0-16.9,0-25.4,0c-12.8,0-25.5,0-38.3,0c-1.6,0-3.2-0.1-4.7-0.4c-1.3-0.3-2.3-1.6-2.2-2.8
			c0.1-1.2,1.1-2.4,2.4-2.7c1.4-0.2,2.9-0.3,4.3-0.3C295.4,190,306.3,190,317.1,190C317.1,190,317.1,190,317.1,190z"/>
		<path class="st5" d="M315.6,155.1c-11,0-22,0-33,0c-1.4,0-2.9,0-4.3-0.2c-1.4-0.2-2.3-1.4-2.3-2.7c0-1.4,1-2.7,2.6-2.9
			c1.3-0.2,2.5-0.2,3.8-0.2c22.5,0,45,0,67.5,0c1.1,0,2.2,0,3.3,0.1c1.4,0.2,2.4,1.2,2.5,2.5c0.2,1.4-0.9,2.9-2.4,3.1
			c-1.2,0.2-2.5,0.2-3.8,0.2C338.2,155.1,326.9,155.1,315.6,155.1C315.6,155.1,315.6,155.1,315.6,155.1z"/>
		<path class="st5" d="M315,175.5c-10.9,0-21.7,0-32.6,0c-1.4,0-2.9,0-4.3-0.2c-1.3-0.2-2.2-1.4-2.2-2.7c0-1.3,0.7-2.1,1.8-2.6
			c0.6-0.3,1.2-0.3,1.8-0.4c1-0.1,1.9,0,2.9,0c21.9,0,43.7,0,65.6,0c1.3,0,2.6,0,3.8,0.1c1.6,0.2,2.7,1.5,2.7,2.9
			c0,1.5-1,2.6-2.7,2.8c-1.3,0.1-2.5,0.1-3.8,0.1C337.1,175.5,326.1,175.5,315,175.5C315,175.5,315,175.5,315,175.5z"/>
		<path class="st6" d="M359.8,67.1c0.9,5.7,0.6,11.4,0.6,17.1c0,11.7,0,23.4,0,35c0,1.3,0,2.6-0.2,3.8c-0.1,0.5-0.7,1.1-1.2,1.2
			c-1.1,0.2-2.2,0.1-3.3,0.1c-67.2,0-134.4,0-201.5,0c-1.5,0-3.2,0.5-4.6-0.7c-0.8-1.8-0.9-3.7-1-5.6c-0.3-14.4,0.7-28.8-0.7-43.1
			c-0.4-4.5,1.5-6.5,6.1-6.7c4.8-0.3,9.5,0.9,14.3,0.9c60.4-0.1,120.8,0,181.2,0C353.1,69.1,356.6,69.2,359.8,67.1z"/>
		<path class="st7" d="M359.8,67.1c-0.1,1.1-0.3,2.2-0.5,3.6c-1.4,0-2.6,0-3.9,0c-55.6-0.1-111.2-0.1-166.8-0.2c-8,0-16-0.1-24-0.2
			c-3.4,0-6.7-0.3-10-0.5c-1.1,0-2.2-0.1-3.3,0c-1.1,0.1-1.8,0.6-1.8,1.8c0,1.4,0,2.9,0.1,4.3c0.2,15.2,0.4,30.3,0.6,45.5
			c0,0.8-0.3,1.5-0.5,2.3c-1.1,0-2.2,0-3.3-0.1c-0.4,0-0.8-0.5-0.9-0.9c-0.2-0.6-0.1-1.3-0.1-1.9c0-17.9,0-35.8,0-53.7
			c0-3,0.1-3,2.9-3c4.8,0,9.6,0.1,14.4,0.1c41.2,0.1,82.5,0.2,123.7,0.3c21.7,0.1,43.5,0.2,65.2,0.3c2.2,0,4.5,0.2,6.7,0.4
			C359.1,65.4,359.7,66,359.8,67.1z"/>
		<path class="st8" d="M259.8,29.3c35.5,0,71,0,106.6,0c1.1,0,2.2,0,3.4,0c2,0.1,2.1,0.2,2.1,2.3c0,2.2-0.1,4.5-0.1,6.7
			c0,1.2-0.7,1.6-1.9,1.6c-5.1,0-10.3,0.7-15.3-0.1c-7.8-1.3-15.6-0.8-23.4-0.7c-59.4,0.7-118.7,0.1-178.1,0.4
			c-5.9,0-5.4,0.6-5.4-5.4c0-1,0-1.9,0-2.9c0-1.7,0.3-2,1.8-2.1c1.1,0,2.2,0,3.4,0C188.4,29.2,224.1,29.2,259.8,29.3
			C259.8,29.3,259.8,29.3,259.8,29.3z"/>
		<path class="st6" d="M91,77.4c6.2-0.2,12.4-1.3,18.6-0.6c6.4,0.7,7.1-0.6,5.2,6.9c-4,16.4-14.4,26.6-30.8,30.6
			c-6.4,1.6-13,1.2-19.4-0.3c-3.6-0.9-7-2.3-9.5-5.1c-0.4-0.2-0.7-0.5-1.1-0.8l0.1,0.1c-6.7-6.4-9.3-14.8-11.1-23.4
			c-0.9-4.3,0.2-5.5,4.6-5.8c1.6-0.1,3.2-0.2,4.8,0.1C65.4,80.8,78.2,78,91,77.4z"/>
		<path class="st0" d="M89.7,37.3c-1.7,3.3-3.3,6.4-4.8,9.6C81.1,55,77.2,63,73.6,71.2c-1,2.3-2.2,2.7-4.3,2.7
			c-4.8-0.1-9.6,0-14.4,0c-5.6,0-11.2,0.1-16.8,0.1c-0.3,0-0.6,0-1,0c-1.5-0.1-2-0.6-1.9-2.1c1.4-14.6,8.4-25.7,21.3-32.7
			C67.2,33.6,78.3,33.2,89.7,37.3z"/>
		<path class="st0" d="M95.7,73.8c-5.3,0-10.6,0-15.8,0c-1.9,0-2.1-0.5-1.2-2.3c4.3-8.6,8.5-17.2,12.8-25.8c0.8-1.6,1.5-3.2,2.2-4.8
			c0.5-1.1,1-1.3,2.2-0.6c11.4,7.2,17.9,17.5,19.2,31c0.1,1.3-0.3,1.8-1.6,1.9c-1.1,0.1-2.2,0.2-3.4,0.2c-4.8,0-9.6,0-14.4,0
			C95.7,73.6,95.7,73.7,95.7,73.8z"/>
		<path class="st9" d="M91,77.4c-2.3,0.5-4.6,1-7,1.4c-8.4,1.2-16.7,2.3-25.2,2.1c-3.3-0.1-6.7-0.4-10-0.6c-0.6,0-1.3,0-1.9,0
			c-2.5,0-3.4,0-2.8,3.3c1.6,8.1,4.2,15.7,9.1,22.4c0.4,0.6,0.6,1.4,0.9,2.1c-1.1-0.6-2.3-1.1-3.2-1.9C41.6,99,36.5,89.5,35.4,77.7
			c0.6-0.2,1.1-0.5,1.5-0.5c17.6,0,35.1,0.1,52.7,0.2C90.1,77.3,90.5,77.4,91,77.4z"/>
		<path class="st9" d="M54,108c0.4,0.3,0.7,0.5,1.1,0.8C54.8,108.6,54.4,108.3,54,108z"/>
		<path class="st10" d="M254.2,93.6c-28,0-55.9,0-83.9,0c-1.4,0-2.9,0-4.3-0.2c-1-0.1-1.7-0.8-2-1.9c-0.2-0.9,0.8-2,2.1-2.3
			c0.9-0.2,1.9-0.2,2.9-0.2c3.4-0.1,6.7-0.1,10.1-0.1c53.4,0,106.8,0,160.2,0c1.3,0,2.6-0.1,3.8,0.1c0.7,0.1,1.4,0.6,2,1.1
			c0.8,0.6,0.8,1.9-0.1,2.5c-0.6,0.5-1.4,0.9-2.1,1c-1.4,0.2-2.9,0.1-4.3,0.1C310.5,93.7,282.4,93.7,254.2,93.6
			C254.2,93.7,254.2,93.7,254.2,93.6z"/>
		<path class="st10" d="M253.3,112.1c-25.1,0-50.2,0-75.3,0c-3.4,0-6.7,0-10.1-0.1c-0.9,0-2-0.1-2.8-0.5c-0.6-0.3-1.1-1.2-1.1-1.9
			c-0.1-0.4,0.6-1.3,1.1-1.4c1.2-0.4,2.5-0.7,3.7-0.8c3.2-0.1,6.4-0.1,9.6-0.1c41.9,0,83.8,0,125.7,0c11,0,22.1,0,33.1,0
			c1.6,0,3.3-0.3,4.6,0.7c0.6,0.4,1.1,1.3,1.1,1.9c0,0.6-0.7,1.3-1.3,1.8c-0.5,0.3-1.2,0.3-1.8,0.4c-1.4,0.1-2.9,0-4.3,0
			C308,112.1,280.6,112.1,253.3,112.1C253.3,112.1,253.3,112.1,253.3,112.1z"/>
		<path class="st11" d="M196.3,81.9c-9.1,0-18.2,0-27.3,0c-1.4,0-2.8-0.3-4.2-0.6c-0.5-0.1-1-0.9-1.1-1.4c-0.2-0.9,0.4-1.5,1.1-1.9
			c0.5-0.3,1.2-0.5,1.8-0.5c0.9-0.1,1.9-0.1,2.9-0.1c17.7-0.1,35.4-0.1,53.1-0.2c1.4,0,2.9-0.1,4.3,0.1c0.9,0.1,1.8,0.6,2.6,1.1
			c0.8,0.5,0.8,2,0,2.5c-0.8,0.5-1.7,0.9-2.6,1.1c-1.1,0.2-2.2,0.1-3.3,0.1c-9.1,0-18.2,0-27.3,0C196.3,82.1,196.3,82,196.3,81.9z"
			/>
	</g>
</g>
</svg>
