<?xml version="1.0" encoding="utf-8"?>
<!-- Generator: Adobe Illustrator 26.3.1, SVG Export Plug-In . SVG Version: 6.00 Build 0)  -->
<svg version="1.1" xmlns="http://www.w3.org/2000/svg" xmlns:xlink="http://www.w3.org/1999/xlink" x="0px" y="0px"
	 viewBox="0 0 812.1 145.5" style="enable-background:new 0 0 812.1 145.5;" xml:space="preserve">
<style type="text/css">
	.st0{fill:#FFFFFF;}
	.st1{fill:#FF9900;}
	.st2{fill:#F2F9F9;}
	.st3{fill:#F8F7EF;}
	.st4{fill:#0D0C0C;}
	.st5{fill:#0E0D0D;}
	.st6{fill:#0A0701;}
	.st7{fill:#0A0603;}
	.st8{fill:#120B03;}
	.st9{fill:#120D05;}
	.st10{fill:#C4BDBD;}
	.st11{fill:#DBDCDC;}
	.st12{fill:#D0DEDE;}
	.st13{fill:#E5EFEF;}
	.st14{fill:none;}
	.st15{font-family:'simpleshow';}
	.st16{font-size:25px;}
</style>
<g id="instruction_x5F_box_xA0_Image_1_">
	<g>
		<g>
			<path d="M59.8,119.6c-4,0.1-7.8,0.5-11.6,0.3c-22.1-1-41-16.1-46.5-37.2C-4.5,59.5,7,36.3,27.7,26c8.9-4.5,18.4-6.3,28.4-5.1
				c0.8,0.1,1.6,0.2,2.4,0.2c0.9,0.1,1.5-0.3,1.5-1.3c0-2.6,0-5.1,0-7.7c0-5.8,2.6-9.2,8.1-11C70.9,0.3,73.7,0,76.6,0
				c28.6,0,57.2,0,85.9,0c193.5,0,387,0,580.5,0.1c15.2,0,30.4,0.1,45.6,0.2c4.3,0,8.6,0.3,12.9,0.7c5.9,0.5,9.7,4.1,10.4,10
				c0.4,3.5,0.2,7,0.2,10.5c0,34.2,0,68.4,0,102.6c0,2.6,0.1,5.1,0,7.7c0,1.4-0.2,2.9-0.5,4.3c-0.9,4.1-3.6,6.8-7.6,7.8
				c-2.5,0.6-5,0.9-7.6,0.9c-13,0.2-25.9,0.3-38.9,0.3c-78.2,0.1-156.4,0.1-234.6,0.1c-106.5,0-213,0-319.5,0.1
				c-42.1,0-84.1,0-126.2,0.1c-3.4,0-6.7-0.4-9.9-1.5c-4.9-1.7-7.6-5.6-7.4-10.5c0.1-3.7,0-7.4,0-11C60,121.5,59.8,120.6,59.8,119.6
				z"/>
			<path class="st0" d="M784.5,19.4c-0.2,5.3,1.8,8.9,6.7,10.7c0,4.4,0,8.7,0,13c0,22.5,0,45.1,0,67.6c0,1.1,0,2.2,0,3.4
				c0,1.1-0.4,1.7-1.3,2.3c-1.2,0.8-2.3,1.8-3.2,2.9c-1.3,1.5-2.1,3.2-2.1,5.2c0,1.2-0.7,1.7-1.8,1.8c-0.8,0.1-1.6,0.1-2.4,0.1
				c-8.5-0.1-16.9-0.4-25.4-0.4c-127.3-0.1-254.6-0.1-381.8-0.1c-92.6,0-185.2,0-277.7,0c-1.8,0-3.5,0-5.2,0c-1-3.1-2-5.9-3-8.7
				c2.1-2,4.1-3.9,6.1-5.6c6.3-5.4,10-12.4,12.3-20.2c3.5-11.6,2.7-23.1-1.8-34.2c-1.4-3.6-3.6-6.9-6.7-9.2c-3-2.3-4.5-5.7-6.8-8.6
				c-0.3-0.4-0.3-1.3,0-1.7c1.9-3.9,3.9-7.7,5.8-11.6c0.7-1.5,1.8-2,3.4-2.1c8.6-0.4,17.2-1.3,25.8-1.3c38.5-0.2,77.1,0,115.6-0.1
				c36.3-0.1,72.6-0.3,108.9-0.5c18.9-0.1,37.7-0.2,56.6-0.3c7.4-0.1,14.7-0.1,22.1-0.4c6.4-0.3,12.7-1,19.1-1.5
				c1.6-0.1,3.2-0.1,4.8-0.1c100.4-0.1,200.8-0.1,301.2-0.2c8.8,0,17.6-0.1,26.4-0.2C781.5,19.2,782.9,19.3,784.5,19.4z"/>
			<path class="st1" d="M804.8,9.5c1.5,1.4,1.1,3.3,1.1,5c0,8.3-0.1,16.6-0.1,24.9c0,28.3,0,56.6,0,84.8c0,2.9,0.2,5.8,0.1,8.6
				c-0.1,3.5-1.4,5.3-4.8,6.3c-2,0.6-4.1,0.9-6.1,0.9c-19.3-0.1-38.7-0.5-58-0.5c-219.3-0.1-438.6-0.2-657.9-0.2
				c-1.4,0-2.9,0.1-4.3,0c-1.9-0.3-3.8-0.7-5.6-1.2c-1.9-0.6-2.8-2.1-3-4c-0.1-0.6-0.1-1.3-0.1-1.9c0-4,0.2-8,0.1-12
				c0-1.7,0.7-2.6,2.3-3.1c2.1-0.8,4.1-1.8,6.2-2.6c1.1-0.5,1.9,0.1,1.7,1.4c-0.1,1.1-0.5,2.2-0.7,3.2c-0.2,1.2,0.5,2.5,1.6,2.5
				c4.2-0.2,6,2.1,6.8,5.9c0.1,0.6,1.1,1.1,1.6,1.6c2.1,2.2,4.8,2.9,7.8,2.9c33.4,0,66.8,0.4,100.2-0.2c10.9-0.2,21.7-0.6,32.6-0.6
				c83.5,0,166.9,0.4,250.4-0.4c42.4-0.4,84.7-1.1,127.1-0.4c58.8,1,117.7,0.1,176.5,0.6c3.5,0,7.1,0.4,10.1-2
				c2.2-1.3,2.6,0.7,3.4,2c1.1,1.9,2.8,2.5,4.9,1.9c2.2-0.6,2.8-2.4,2.9-4.4c0-2.2-0.9-3.6-3.3-3.8c-1.1-0.1-2.3,0-2.4-1.6
				c1.7-16.3,4.1-32.5,3.9-49c-0.1-9.4,1.5-18.7-0.2-28.1c-0.9-5.1-1.6-10.3-3.6-15.2c-0.1-0.9-0.2-1.9-0.3-2.8
				c-0.1-0.9-0.4-1.5-1.3-1.7c-0.6-0.1-1.2-0.4-1.8-0.6c-1.9-0.9-3.1-2.2-3-4.4c0-0.5,0-1,0-1.4c-0.2-1.7-0.7-2.3-2.4-2.4
				c-4.5-0.3-8.9-0.6-13.4-0.6c-37.1-0.1-74.2-0.2-111.3-0.2c-149.3,0-298.7,0-448,0c-40,0-80,0-119.9,0c-1.3,0-2.6,0.1-3.8,0
				c-3.1-0.1-5.7,0.2-6.6,3.9c-0.5,1.8-2.2,2.5-4.2,2.5c-2.8,0-2.8,0.1-3.4,3.1c-0.1,0.3-0.3,0.6-0.5,1.1c-2.7-1.3-5.4-2.5-8.1-3.8
				c-0.8-3.2,0.1-6.3,0.8-9.3C69.5,9.4,71.6,8,76.6,8c2.2,2.4-0.5,2.8-1.6,3.4c-2,1.1-3.6,2.1-2.4,4.7c0.8,1.7,2.2,2.9,4.1,2.2
				c2.3-0.8,4.3-2.1,4-5.1c-0.3-1.9-1.7-4.1,1.6-4.8c2.7-0.5,5.4-0.4,8.1-0.4c232.1,0,464.3,0,696.4,0c2.7,0,5.4-0.2,8.1,0.3
				c1.6,0.5,3.2,1.1,1.2,3.1c-0.4,0.4-1,0.8-1.4,1.2c-1.9,1.7-2.5,3.7-1.1,5.9c1,1.7,2.6,2.3,4.5,1.6c2.5-1,3.4-3,3.3-5.7
				c0-2-2.9-3.3-1-5.6C802,8.3,803.4,8.6,804.8,9.5z"/>
			<path class="st0" d="M50.6,115.2c-12.9-0.2-24-4.7-33.1-13.9C1.2,84.7,0.5,58.4,16,40.9C33.1,21.6,63.4,20,82.1,37.6
				c12.4,11.6,17.1,26.1,13.2,42.7c-3.9,16.7-14.8,27.5-31.1,32.9C59.9,114.6,55.3,115.4,50.6,115.2z"/>
			<path class="st2" d="M791.8,129.2c-1.1,2.5-2.9,3.6-5.7,3.2c-1.4-0.2-2.9-0.2-4.3-0.2c-50.9,0-101.7,0.1-152.6,0
				c-33.6-0.1-67.2-0.5-100.7-0.5c-52.3,0.1-104.6,0.5-156.9,0.7c-44,0.1-88,0-131.9,0.1c-28.5,0.1-56.9,0.6-85.4,0.8
				c-20.6,0.1-41.3,0.1-61.9,0.1c-0.3,0-0.6,0-1,0c-3.7-0.1-4.4-0.7-5.7-4.5c7.2,0.1,14.4,0.3,21.5,0.3
				c211.9-0.1,423.7-0.1,635.6-0.2c13,0,25.9-0.2,38.9-0.4c1.4,0,2.9,0,4.3-0.2c1.9-0.2,2.9-1.1,3-3.1c0.1-2.4,1.3-3.9,3-5.2
				c0.8-0.6,1.6-1.1,2.2-1.8c0.9-0.9,1.5-2,1.5-3.4c0-1.8,0.1-3.5,0.1-5.3c0-24.8,0-49.5,0-74.3c0-1.6,0.1-3.2,0.1-4.8
				c1.2,0.4,1.7,1.4,2.1,2.4c0.7,2.1,1.4,4.2,1.8,6.4c2,9.3,2.1,18.6,1.5,28.1c-0.4,6.2-0.2,12.4-0.6,18.6
				c-0.5,7.5-1.2,14.9-1.9,22.4c-0.1,1.1-0.4,2.2-0.8,3.3c-0.7,2.2-1.6,4.3-0.1,6.8c1.1,1.7-0.5,3.6-1.7,5.1
				C795.1,125.8,794,128,791.8,129.2z"/>
			<path class="st3" d="M76.9,8.9c-1.4,0.2-2.9,0.2-4.2,0.7c-1.7,0.6-2.8,1.9-3,3.9c-0.2,2.1-0.6,4.1-1,6.1
				c-0.3,1.2-0.7,2.4-1.1,3.6c-0.5-0.4-1.3-0.7-1.3-1.1c-0.2-3.3-0.3-6.7-0.3-10.1c0-2.5,1.4-4.2,3.8-4.9c1.8-0.5,3.7-0.8,5.6-1
				c1.4-0.2,2.9,0,4.3,0C267.3,6.1,454.8,6,642.3,6c41.6,0,83.1,0,124.7-0.1c9.4,0,18.9-0.2,28.3-0.3c2.6,0,5.1,0.3,7.4,1.5
				c1,0.5,2,1.1,2.1,2.4c-1.8,0.1-3.5,0.1-5.3,0.2c-0.7,0.7-1.4,0.7-2,0c-1.6-0.1-3.2-0.2-4.8-0.2c-233.2,0-466.4,0-699.6,0
				c-4.3,0-8.6,0-12.9-0.1C78.9,10.3,77.9,9.6,76.9,8.9z"/>
			<path class="st4" d="M119.4,91.5c0,7.2-2.8,13.2-7.8,18.2c-0.7,0.7-1.8,1.3-2.8,1.6c-0.6,0.2-1.5-0.3-2-0.8
				c-0.3-0.3-0.3-1.2,0-1.7c0.3-0.7,0.9-1.3,1.4-1.9c2.7-2.8,4.5-6.1,5.9-9.7c1.2-2.9,2.4-5.9,3.6-8.8c0.1-0.3,0.7-0.5,1.1-0.5
				c0.2,0,0.5,0.4,0.6,0.6C119.5,89.6,119.4,90.6,119.4,91.5z"/>
			<path class="st5" d="M123.6,107.3c0.2,3.3-1.4,5.8-3.9,7.8c-0.7,0.5-1.7,0.8-2.6,0.9c-1.7,0.1-3-2.1-2.1-3.4
				c2.1-2.8,4.3-5.5,6.5-8.2c0.5-0.6,1.7-0.2,1.9,0.6c0.1,0.3,0.1,0.6,0.1,0.9C123.5,106.4,123.5,106.8,123.6,107.3z"/>
			<path class="st6" d="M797.4,9.7c0.7,0,1.4,0,2.1,0c0.6,0.5,1.3,0.9,1.9,1.4c1.8,2,2,4.3,1.1,6.6c-0.9,2.4-2.8,3.8-5.3,4.2
				c-2.4,0.4-4.6-1.1-5.5-3.5c-0.9-2.5-0.1-5.4,2.1-6.7C795,11,796.2,10.4,797.4,9.7z"/>
			<path class="st7" d="M791.8,129.2c0.5-2.6,1.6-4.8,4.5-5.6c0.5,0,0.9-0.1,1.4-0.1c0.8-0.1,1.6-0.5,2.3-0.3
				c0.8,0.3,1.7,0.9,2.2,1.7c1.4,2.2,1.2,4.6,0.1,6.8c-1,2.1-2.9,3-5.1,2.9c-1.2-0.1-2.5-0.6-3.5-1.2
				C791.9,132.6,791.9,130.8,791.8,129.2z"/>
			<path class="st8" d="M76.9,8.9c1.1,0.2,2.2,0.3,3.3,0.5c0.2,0.2,0.4,0.5,0.6,0.7c1.8,1.8,2.1,3.9,0.9,6.1
				c-1.2,2.2-3.2,3.5-5.8,3.6c-2.3,0.1-4.6-1.8-5-4.3c-0.1-0.9,0.1-1.9,0.4-2.8c0.5-1.2,1.4-1.9,2.8-2.3C75.1,10.4,76,9.5,76.9,8.9z
				"/>
			<path class="st9" d="M70.4,129.9c-0.1-2.8,3.1-5.8,5.8-5.6c2.5,0.1,4.8,2.4,5,4.9c0.2,3.1-2.4,5.7-5.6,5.8
				C72.7,135,70.4,132.8,70.4,129.9z"/>
			<path d="M41.1,104.4c1.2-2.6,2.2-5.1,3.4-7.5c1.1-2.2,2.8-3.9,5-5c1.7-0.9,3.4-1.8,5-2.8c2.2-1.3,4.2-2.8,5.9-4.8
				c1.8-2,4.1-3.5,6.2-5.2c0.7-0.6,1.7-1,2.3-1.7c0.4-0.4,0.7-1.2,0.6-1.6c-0.2-0.5-0.9-0.9-1.4-1.1c-2.2-0.7-4.1-0.1-5.9,1.2
				c-1.2,0.8-2.3,1.7-3.4,2.6c-0.4,0.3-0.8,0.6-1.2,0.7c-0.6,0.1-1.2,0.2-1.8,0c-0.2-0.1-0.4-0.9-0.3-1.3c0.5-4,1.5-7.8,3.2-11.5
				c1.4-3,2.6-6.2,3.8-9.3c0.4-1,0.7-2.1,0.8-3.2c0.1-0.9-0.7-1.9-1.6-2.1c-0.9-0.2-1.6,0.1-2,0.9c-0.5,1-1,2-1.4,3
				c-1.2,3-2.2,6-3.4,8.9c-0.3,0.9-0.9,1.7-1.4,2.5c-0.1,0.2-0.7,0.4-0.8,0.4c-0.3-0.3-0.5-0.7-0.6-1.1c-0.1-0.5,0.1-0.9,0.2-1.4
				c1.2-4.6,2.4-9.3,3.6-13.9c0.2-0.6,0.2-1.3,0.2-1.9c0-0.9-0.7-1.3-1.5-1.7c-0.9-0.4-1.7,0-2.1,0.6c-0.6,0.9-0.9,2-1.2,3.1
				c-1.2,4.5-2.4,8.9-3.6,13.4c-0.2,0.6-0.4,1.1-1.2,1.6c-0.1-0.8-0.3-1.7-0.2-2.4c0.5-3.5,1-6.9,1.5-10.4c0.1-0.9,0.3-1.9,0.3-2.8
				c0-0.9-1-1.9-1.9-1.8c-0.7,0.1-1.5,0.6-1.9,1.1c-0.4,0.6-0.5,1.5-0.7,2.2c-0.7,4.6-1.4,9.1-2.2,13.7c-0.1,0.5-0.7,0.9-1.1,1.3
				c-0.4-0.5-1-1-1-1.5c-0.1-1.9-0.1-3.8,0-5.7c0-1.3,0.2-2.5,0.2-3.8c0-0.8-0.5-1.7-1.4-1.6c-0.7,0.1-1.6,0.7-1.8,1.2
				c-0.5,1.3-0.8,2.8-0.9,4.2c-0.2,2.9-0.3,5.8-0.2,8.6c0.1,2.7-0.2,5.4-0.7,8.1c-0.5,2.5-0.6,5.1-0.7,7.6
				c-0.1,3.7-0.8,7.3-2.7,10.6c-0.2,0.3-0.7,0.8-0.9,0.7c-0.4-0.1-0.8-0.5-0.9-0.9c-1.8-4.2-2.7-8.6-2.9-13
				c-0.3-6.4-0.3-12.8-0.1-19.2c0.1-4.3,1.2-8.5,2.7-12.6c3.2-8.6,10.1-14.5,20.9-14.6c3.2,0,6.4,0.1,9.5,1
				c4.9,1.4,8.6,4.3,10.7,8.9c1.2,2.6,2.2,5.4,2.7,8.2c1.9,11.1,2.1,22.3-0.5,33.3c-0.7,2.8-1.7,5.5-3,8c-3.1,6.2-8.3,9.7-15.1,10.5
				c-3.8,0.5-7.6,0-11.5-0.1C42.5,105.3,42,104.8,41.1,104.4z"/>
			<path class="st10" d="M796.2,18.6c-0.4-0.6-0.7-1.1-0.9-1.7c-0.3-0.9-0.2-1.8,0.6-2.5c0.7-0.5,2-0.4,2.6,0.2
				c0.6,0.7,0.5,1.5,0,2.1C797.9,17.3,797.2,17.7,796.2,18.6z"/>
			<path class="st11" d="M797,131.2c-1.2,0.1-2.2-1-1.9-2.1c0.1-0.3,0.1-0.6,0.3-0.9c0.6-1.3,1.6-2,2.5-1.8c0.8,0.2,1.5,1.2,1.4,2.2
				C799.2,130.1,798.3,131.1,797,131.2z"/>
			<path class="st12" d="M77.1,12.6c-0.3,0,0.2,0,0.7,0c0.9,0.2,1.6,1.4,1.1,2.2c-0.5,0.7-1.3,1.4-2,1.8c-0.9,0.5-1.9,0.2-2.6-0.6
				c-0.7-0.8-0.8-1.7-0.4-2.6c0.4-0.8,1.2-1,2-0.8C76,12.7,76.2,12.6,77.1,12.6z"/>
			<path class="st13" d="M74.5,127.6c0.5,0.2,1.1,0.4,1.6,0.7c1.1,0.6,1.5,1.4,1.1,2.3c-0.4,1-1.7,1.5-2.8,1
				c-1.3-0.5-1.8-2.5-0.8-3.6C73.7,127.8,74.1,127.7,74.5,127.6z"/>
		</g>
	</g>
</g>
<g id="text">
	<rect x="127.3" y="36.2" class="st14" width="651.4" height="93.3"/>
	<text id="text_1_" transform="matrix(1 0 0 1 149.8147 54.4171)"><tspan x="0" y="0" class="st15 st16">our mech pilots are at the ready! But before they </tspan><tspan x="15.9" y="30" class="st15 st16">launch, we need to construct the simplemech x!</tspan><tspan x="40.6" y="60" class="st15 st16">drag &amp; drop its parts to complete its build. </tspan></text>
</g>
</svg>
