<?xml version="1.0" encoding="utf-8"?>
<!-- Generator: Adobe Illustrator 26.3.1, SVG Export Plug-In . SVG Version: 6.00 Build 0)  -->
<svg version="1.1" id="simplemech_xA0_leg2" xmlns="http://www.w3.org/2000/svg" xmlns:xlink="http://www.w3.org/1999/xlink"
	 x="0px" y="0px" viewBox="0 0 120 382.5" style="enable-background:new 0 0 120 382.5;" xml:space="preserve">
<style type="text/css">
	.st0{fill:#FFFFFF;}
	.st1{fill:#FF9900;}
	.st2{fill:#CCCCCC;}
	.st3{fill:#FE9801;}
	.st4{fill:#CBCCCC;}
	.st5{fill:#FCFDFC;}
	.st6{fill:#FBFCFC;}
	.st7{fill:#FCFCFC;}
	.st8{fill:#FCFDFD;}
	.st9{fill:#F7F9F9;}
	.st10{fill:#FDFDFD;}
	.st11{fill:#FAFAFA;}
	.st12{fill:#CBC9C9;}
	.st13{fill:#B7BABA;}
	.st14{fill:#F2F3F3;}
	.st15{fill:#E9E9E9;}
	.st16{fill:#FB9806;}
	.st17{fill:#F6F9F9;}
	.st18{fill:#F8F8F6;}
	.st19{fill:#DD8C0D;}
	.st20{fill:#EC910A;}
	.st21{fill:#EC951B;}
	.st22{fill:#F9FBFB;}
	.st23{fill:#EBEDED;}
	.st24{fill:#FFFBF5;}
	.st25{fill:#E2E6E5;}
	.st26{fill:#F49606;}
	.st27{fill:#F79909;}
	.st28{fill:#DF8C0E;}
	.st29{fill:#E5E2E0;}
	.st30{fill:#ECE9E1;}
	.st31{fill:#EDEBE6;}
	.st32{fill:#090909;}
	.st33{fill:#1D1717;}
	.st34{fill:#040302;}
	.st35{fill:#F9F9F5;}
	.st36{fill:#0C0700;}
	.st37{fill:#180F00;}
	.st38{fill:#FAFBFB;}
	.st39{fill:#F9FCFC;}
	.st40{fill:#180E0E;}
	.st41{fill:#161313;}
</style>
<g>
	<g>
		<path class="st0" d="M90.5,160.2c1.3,0.1,2.5,0.1,3.8,0.2c4.6,0.4,6.9,2.4,8.2,6.8c0.1,0.5,0.2,0.9,0.3,1.4c0.2,1,0.8,1.7,1.9,1.9
			c0.9,0.2,1.9,0.3,2.8,0.7c3.2,1.5,5,4.1,5.2,7.5c0.3,4.3,0.4,8.6,0.2,12.9c-0.1,3.8-1.7,6.8-5.6,8c-2.1,0.7-3.3,1.9-4,4.2
			c-1.2,3.8-3.2,7-7.7,7.6c-0.9,0.1-1.2,0.9-1.3,1.8c0,1.3,0.2,2.6-0.1,3.8c-0.9,3.8-0.1,6.9,2.5,10.1c2.8,3.5,3.9,8,5,12.3
			c2.9,11.8,3.1,23.7,2.3,35.7c-0.5,7.5-1.3,14.9-2,22.8c0.6,0.3,1.4,0.8,2.2,1.2c2,1,3.3,2.7,4,4.6c0.8,2.1,1.9,3.3,4.1,3.9
			c4.3,1.1,6.9,4.3,7.3,8.5c0.5,5.2,0.4,10.5,0.1,15.8c-0.2,4-3.5,5.9-6.6,7.6c-0.8,0.5-1.8,0.7-2.7,0.8c-1.1,0.2-1.6,0.8-2.1,1.6
			c-2.2,3.7-5.2,6.4-9.8,6.8c-1.3,0.1-1.9,1.3-1.4,2.4c0.3,0.7,0.7,1.4,1.2,2c1.8,2.4,2.5,5.2,2.9,8c0.5,3.1-0.7,6-2.5,8.5
			c-3.2,4.6-7.5,7.5-13,9.1c-10.3,3-20.7,3.8-31.3,3.1c-11.3-0.7-22.6-2.2-33.7-4.3c-4.9-0.9-9.7-2.1-14-4.7c-1.5-0.9-2.8-2-4-3.3
			c-2.3-2.5-3-5.6-2.5-8.9c0.4-2.7,0.9-5.4,2.3-7.8c0.7-1.1,0.9-2.3,0.8-3.7c-0.5-6.6,1.1-12.7,4.5-18.3c1-1.7,1.2-3.3,0.7-5.3
			c-1.2-4.5-2.3-9-2.7-13.6c-2.1-20.9-2.6-41.8-1.1-62.7c0.4-6.3,1.8-12.3,4.2-18.1c1.1-2.6,2.6-5.1,4.2-7.5c1-1.4,1.3-2.7,1.1-4.4
			c-0.6-5-0.3-9.9,0.9-14.7c0.8-3.3,1.8-6.5,3.6-9.3c1.2-1.8,1.4-3.8,1.4-5.9c0-17.7-0.1-35.5,0-53.2c0-9.6,0.2-19.2,0.3-28.8
			c0-6,1.6-11.4,5.9-15.7c1-1,1.2-2.1,1.1-3.5c-0.1-1.1-0.6-1.8-1.7-2c-2.1-0.3-4-1.2-5.7-2.5c-5.6-4.1-6.9-11.8-2.9-17.5
			c3.6-5.2,7.4-10.4,11.1-15.7c6.1-8.8,12.2-17.6,18.4-26.3c4.6-6.5,9.4-12.9,14-19.4c3.4-4.9,8.1-6,13.5-5c5.3,1,8.4,4.7,10.2,9.8
			c1.3,3.7-0.2,6.9-1.3,10.2c-0.3,0.7-0.7,1.5-1.2,2.1c-2,2.5-2.6,5-1.1,8.2c1.1,2.4,1.3,5.3,1.2,8C81.7,44.3,82.1,50,82,55.8
			c-0.1,3.2,0,6.4,0,9.6c0,1.8,0.3,3.4,1.4,4.9c2.3,3.3,3.2,7,1.7,10.9c-0.4,1.1-0.3,2.1,0,3.3c0.6,2,1.1,4,0.3,6.1
			c-0.2,0.6,0.2,1.6,0.7,2.1c4.1,5.1,5.1,10.9,4.5,17.2c-0.1,0.8-0.2,1.6-0.2,2.4c0.8,9.9,0,19.8-0.2,29.7
			c-0.1,5.6-0.1,11.2-0.1,16.8C90.1,159.1,90.3,159.6,90.5,160.2z"/>
		<path d="M60.9,378.1c-11.2-0.4-22.3-1.4-33.4-3.3c-2.8-0.5-5.7-0.9-8.5-1.6c-3.2-0.9-6.4-1.9-9.5-3.3c-4-1.8-5.1-4.3-4.4-8.5
			c0.3-1.9,0.7-3.9,1.6-5.5c1.1-1.9,1.5-3.6,1.3-5.8c-0.5-4.9,0.3-9.6,2.8-13.9c1-1.7,1.8-3.4,2.8-5c0.9-1.3,1.2-2.4,0.2-3.9
			c-1.7-2.6-2.1-5.7-2.5-8.7c-0.8-5.5-1.5-11.1-1.9-16.7c-0.8-12.9-1.3-25.9-0.8-38.8c0.2-6.2,0.8-12.4,1.6-18.6
			c0.4-3.3,1.6-6.5,2.6-9.7c1.1-3.4,2.8-6.4,5.3-9c1.3-1.3,1.4-2.5,1.1-4.3c-1.4-8.8-0.2-17.2,4.6-24.9c1.1-1.7,1.7-3.4,1.2-5.4
			c-0.1-0.5-0.1-1-0.1-1.4c0.1-19.3,0.2-38.7,0.2-58c0-7.2,0.1-14.4,0.2-21.6c0-1-0.1-1.9,0-2.9c0.2-5.4,1.9-10,6.5-13.2
			c1.2-0.8,1.8-1.6,1-3.1c-0.9-1.8-0.6-3.7,0.2-5.5c0.4-0.7,0.7-1.4,1-2.2c0.3-0.9-0.7-1.9-1.7-1.7c-0.8,0.2-1.5,0.5-2.3,0.7
			c-1.8,0.4-3.5,0.3-5.2-0.5c-5.1-2.4-6.6-7.1-3.8-11.9c1-1.7,2.2-3.1,3.3-4.7C36.7,47.8,49,30.5,61.2,13.1c1.3-1.8,2.6-3.7,4.1-5.3
			c2.4-2.8,6.2-3.5,9.6-1.8c3.5,1.7,5.6,5.6,4.8,9c-0.4,1.7-1.1,3.3-1.8,4.9c-0.6,1.3-1.4,2.6-2.3,3.6c-1.9,2.2-2.2,4.1-0.4,6.7
			c1.9,2.6,2,6,1.9,9.2c0,3.7-0.2,7.3-0.2,11c0,5.9,0.1,11.8,0.2,17.7c0,1.6,0.2,3,1.5,4.3C81,74.9,81.2,78,80,81
			c-0.6,1.5-0.6,2.6,0,4.1c0.9,2.3,0.9,4.7-0.2,7c-0.5,1-0.4,1.8,0.6,2.5c4.9,3.7,5.7,8.9,5.3,14.6c-0.1,1.1-0.3,2.2-0.3,3.3
			c-0.1,16.1-0.2,32.3-0.3,48.4c0,1,0,1.9,0,2.9c0,1.2,0.7,1.7,1.8,1.7c1.6,0,3.2,0,4.8,0c1.1,0.1,2.2,0.1,3.3,0.5
			c1.4,0.4,2.5,1.4,2.8,3c0.1,0.5,0.2,0.9,0.3,1.4c0.6,1.6-0.3,3.9,1.2,4.9c1.2,0.7,3.1,0.4,4.6,0.5c1.6,0.2,2.6,1.2,3.2,2.6
			c0.4,1.2,0.6,2.5,0.7,3.7c0.1,2.9-0.1,5.8,0.1,8.6c0.2,2.9-1,4.5-3.7,5.3c-0.2,0-0.3,0.2-0.4,0.2c-1.3,0.4-3.1,0.4-3.9,1.3
			c-0.8,0.9-0.5,2.7-1,4c-0.6,1.6-1.5,3.2-2.4,4.6c-0.7,1-1.9,1.1-3,1.1c-1.4,0.1-2.8,0.3-4.2,0.5c0,1.4-0.2,2.8,0,4.2
			c0.5,3.7,0,7.3-0.7,10.9c-0.3,1.4-0.4,2.4,0.8,3.4c3.8,3.4,5.8,8,7.1,12.8c1.8,6.8,2.9,13.7,3,20.8c0.1,13-0.7,25.9-2.6,38.7
			c-0.1,0.6-0.2,1.3-0.2,1.9c-0.3,2.2-0.2,2.8,2.3,3c3.4,0.2,4.7,1.5,5.5,4.8c0.1,0.5,0.1,1,0.2,1.4c0.4,2,0.4,2,2.4,2.4
			c0.9,0.2,1.9,0.3,2.8,0.5c3.3,0.7,5,2.6,5.1,6c0.2,4,0.2,8,0.1,12c0,2.5-2.5,5-5.1,5.5c-0.3,0.1-0.6,0.1-1,0.1
			c-2.8-0.4-4.7,0.4-4.7,3.7c-1.8,2.4-3.3,5-7,4.9c-1.7-0.1-3.9-0.9-4.9,0.6c-0.7,1.1-0.2,3-0.2,4.6c0,0.8,0.1,1.6,0,2.4
			c-0.1,1.5,0.2,2.8,1.5,3.8c2.1,1.8,2.5,4.4,2.6,7c0.1,1.1-0.2,2.3-0.7,3.2c-2,3.1-4.1,6.2-7.8,7.5c-2.6,0.9-5.1,1.8-7.8,2.4
			C73.7,377.5,67.4,378.3,60.9,378.1z"/>
		<path class="st0" d="M80,190.8c-6.3-6.5-13.4-9.8-21.5-11.2c-0.1-1.3-0.2-2.4-0.2-3.5c-1-25.6-0.5-51.1-0.7-76.7
			c0-0.6-0.1-1.3,0.1-1.9c0.2-0.5,0.7-1.2,1.1-1.2c4.9,0,9.9-0.6,14.7,0.9c4,1.2,6.2,3.8,6.5,7.9c0.2,2.7,0.3,5.4,0.3,8.1
			c0.1,17.1,0.3,34.2,0.3,51.3c0,8-0.1,16-0.2,24C80.4,189,80.3,189.4,80,190.8z"/>
		<path class="st0" d="M53.8,179.2c-10,1.2-10.5,1.4-22.7,8.2c-0.7-1.1-0.4-2.4-0.4-3.6c-0.1-23.6-0.1-47.3-0.2-70.9
			c0-2.2-0.1-4.5-0.1-6.7c-0.1-4.2,2.2-6.9,5.6-8.8c1.6-0.9,3.5-1.4,5.5-1.4c3.5,0.1,7,0,10.5,0.1c2.5,0,2.6,0.1,2.6,2.8
			c-0.1,24.7-0.2,49.5-0.4,74.2C54.1,175.1,53.9,177,53.8,179.2z"/>
		<path class="st1" d="M75.5,196c15.5,15.8,8.2,42.6-13,48.7c-12.2,3.5-25-0.8-32.4-10.8c-0.4-0.5-0.6-1.1-0.9-1.7
			c-2.7-7.5-2.8-14.9-0.1-22.4c6.4-17.8,23.4-25,40.6-17.1C71.7,193.6,73.7,194.5,75.5,196z"/>
		<path class="st2" d="M59.1,308.2c-1.6-0.1-3.2-0.1-4.8-0.2c-2.4,0-4.8-0.1-7.2,0c-2.2,0.1-4.4,0.6-6.8,0.9
			c-0.2-0.9-0.5-1.8-0.5-2.7c-0.1-2.4-0.3-4.8-0.3-7.2c0-15.5,0-30.9,0-46.4c0-1,0-1.9,0-2.9c0.1-2.1,0.3-2.3,2.2-1.7
			c4.1,1.4,8.3,2.3,12.6,2.2c2.2-0.1,4.4-0.4,6.6-0.6c2.1,8.8,1.8,17.7,1.2,26.6c-0.6,8.9-0.9,17.8-1.7,26.6
			C60.5,304.8,60.8,306.8,59.1,308.2z"/>
		<path class="st3" d="M65.5,28.3C58.8,38.2,52,48,45.2,57.8c-3.6,5.2-7.3,10.5-10.8,15.8c-1.4,2-3.2,3-5.5,3.3
			c-1.2,0.1-2.2-0.1-3-1c-0.5-0.6-1.1-1.3-0.5-2.1c0.8-1.3,1.7-2.7,2.6-4c10.2-14.9,20.3-29.7,30.5-44.6c2.7-3.9,5.4-7.8,8.1-11.8
			c3.1,1.2,2.4,3.7,2,6C68.1,22.6,66.1,25.2,65.5,28.3z"/>
		<path class="st4" d="M86.1,367.6c-5,2.3-10.3,3.1-15.7,3.8c-7.5,1-15,0.3-22.5-0.3c-8.6-0.7-17.2-1.7-25.6-3.6
			c-3.2-0.7-6.4-1.8-9.6-3c-2.1-0.8-2.1-1.2-1.8-3.3c0.1-0.6,0.2-1.3,0.4-1.9c0.4-1.4,1.2-1.8,2.5-1.4c1.5,0.5,3,1.1,4.5,1.5
			c5.7,1.5,11.5,2.8,17.4,3.2c6.5,0.5,13.1,0.9,19.6,1c3.5,0.1,7-0.5,10.5-0.7c1.6-0.1,3.2-0.1,4.8-0.1c0.6,0.2-0.8,1.2,0.2,1
			c3.3-0.3,6.5-0.9,9.8-0.1C83,364.3,85.4,364.8,86.1,367.6z"/>
		<path class="st5" d="M75.5,196c-2.3-0.8-4.5-1.5-6.7-2.4c-5.1-2.1-10.4-3-15.9-2.6c-2.3,0.1-4.4,0.6-6.5,1.6
			c-6.7,3-11.6,7.6-14.8,14.3c-3.4,7.1-3.6,14.5-2.6,22c0.1,1.1,0.2,2.2,0.3,3.3c-10.5-14.5-4.3-39.5,17.8-45
			c10.2-2.5,19.2,0.1,27.1,6.9C74.6,194.6,75,195.3,75.5,196z"/>
		<path class="st6" d="M18.6,325c4.6-5.3,9.7-8.2,15.4-10c7.2-2.3,14.6-3.3,22.2-2.4c4,0.5,7.9,0.9,11.7,2.2
			c5.2,1.8,9.8,4.5,13.9,9.4C60.5,318.2,40,317.3,18.6,325z"/>
		<path class="st6" d="M23,327.9c12.2-7.2,50.8-5.5,58.7,1.6C71.7,332.5,35.4,331.4,23,327.9z"/>
		<path class="st7" d="M89,269.8c-2.6-0.5-4.9-1-7.2-1.5c0.2-1,0.9-0.9,1.4-0.9c2.7-0.1,5.4-0.1,8.1,0c1.8,0,2.2,0.4,2.1,2.4
			c-0.2,4.8-0.3,9.6-0.7,14.3c-1,11.9-2.9,23.7-5,35.5c-0.2,1.3-0.5,2.5-0.7,4c-1.9-0.8-2.9-2.5-4.1-3.8c-0.4-0.4-0.4-1.2-0.4-1.8
			c0-0.6,0.1-1.3,0.3-1.9c2.7-11.3,4-22.9,5.5-34.4C88.7,277.9,89.1,274.2,89,269.8z"/>
		<path class="st8" d="M80.1,263.2c-3.5,0-7,0-10.5,0c-0.9,0-1.5-0.3-1.6-1.3c-0.2-1.9,0.1-2.9,1.3-3.2c1.6-0.3,3.1-0.4,4.7-0.6
			c3.3-0.4,6.7-0.7,9.9-1.3c2.4-0.4,3.4-1,3.4-4.2c-0.1-5.5-1.1-10.8-2.8-15.9c-0.6-1.9-0.4-3.4,0.8-4.9c0.4-0.6,1.2-0.7,1.5-0.2
			c1.1,1.9,2.3,3.9,3,5.9c2.7,7.6,3.6,15.5,3.7,23.5c0,1.5-0.4,2.1-1.9,2.1C87.7,263.2,83.9,263.2,80.1,263.2
			C80.1,263.2,80.1,263.2,80.1,263.2z"/>
		<path class="st9" d="M64,345.5c-2.6-4.7-6.9-7-12-7.6c-7.4-0.9-14.9-1.4-22.4-2.1c-2.9-0.3-5.3,0.8-7.4,2.8c-2.1,2-3.8,4.3-5,6.9
			c-0.9,1.8-1.7,3.8-2.5,5.6c-1-2.5-1.3-5.6-0.2-8.3c1.4-3.5,3.2-6.9,4.8-10.4c0.5-1,1.3-1.2,2.4-1c10.6,2.3,21.5,2.6,32.3,3.2
			c1.1,0.1,2.2,0.3,3.3,0.1c2.3-0.2,3.7,0.9,4.6,2.7c1.1,2.3,2.1,4.6,3.2,6.9C65.4,345.4,64.9,345.7,64,345.5z"/>
		<path class="st10" d="M59.1,308.2c0.1-2.2,0.1-4.4,0.2-6.7c0.1-2.7,0.1-5.3,0.7-8c0.5-2.8,0.2-5.7,0.3-8.5
			c0.1-2.5-0.2-5.1,0.7-7.5c0.3-1,0.2-2.2,0.2-3.3c0-4.3,0.1-8.6,0-12.8c0-1.9-0.4-3.8-0.6-5.6c-0.3-2.1-0.6-4.1,0.7-6
			c0.5-0.1,0.9-0.3,1.4-0.4c1.5-0.2,1.8,0,1.8,1.3c0,0.6,0,1.3,0,1.9c-0.1,17.5-0.2,35.1-0.4,52.6c0,1,0,1.9-0.1,2.9
			c-0.1,1.1-1,1-1.8,0.8c-0.8-0.7-2-0.1-2.8-0.7C59.3,308.2,59.1,308.2,59.1,308.2z"/>
		<path class="st11" d="M72.1,358.8c-0.9-4.3-1.6-8.4-2.7-12.3c-1.1-3.8-2.7-7.4-4.2-11.4c1.7,0,3.2,0,4.7-0.1
			c3.7-0.2,7.3-0.5,11-0.8c1.3-0.1,1.9,0.5,2.2,1.9c0.1,0.7-0.1,1.4-0.8,1.4c-2.1,0.2-4.1,0.6-5.9,1.7c-2.1,1.3-2.4,1.9-1.6,4.3
			c1.4,4.1,1.9,8.4,2.3,12.7c0.1,0.9-0.2,1.6-1.2,1.8C74.7,358.3,73.5,358.5,72.1,358.8z"/>
		<path class="st12" d="M72.7,91.2c-10.5,0-21,0.1-31.6,0.1c-0.3,0-0.6,0-1,0c-1.7-0.1-2.8-1.1-2.9-2.5c-0.1-1.6,1.1-3,2.9-3.2
			c1.6-0.2,3.2-0.3,4.8-0.3c7.5,0,15,0,22.5,0.1c0.5,0,0.9,0.1,1.4,0.2c0.3,4.7-3,4-5.4,4.3c1.1,0.6,2.7-0.3,4.2-0.5
			C69.6,89.2,71.8,88.4,72.7,91.2z"/>
		<path class="st11" d="M67.8,59.9c0.1-6.6-0.4-13.1-1.6-19.5c-0.6-3.6,1.4-5.6,3.4-7.9c0.1-0.1,1,0.2,1,0.5c0.4,1.7,0.9,3.4,1,5.1
			c0.2,8.9,0.3,17.8,0.5,26.8c0,1,0,1.9,0,2.9c-0.1,1.7-1.8,2.7-3.4,1.8c-0.4-0.2-0.8-1-0.8-1.6C67.7,65.4,67.8,62.6,67.8,59.9z"/>
		<path class="st13" d="M68.9,80c-3.6,0.2-7.3,0.4-10.9,0.5c-5.9,0.1-11.7,0.1-17.6,0.2c-1.9,0-2.6-0.8-2.2-2.6c0.5-2.2,1.4-3,3.5-3
			c10.3,0,20.6,0,31,0.1c-1.6,3.2-5,2.8-7.7,3.5c-1.8,0.5-3.7,0.6-5.2,0.7C62.5,79.7,65.8,77.3,68.9,80z"/>
		<path class="st14" d="M21.5,295.4c-1.7-4.1-2.1-8-1.7-12c0.8-9.9,2-19.7,5-29.2c0.4-1.2,0.8-2.4,1.4-3.6c0.2-0.4,1-0.9,1.5-0.8
			c0.4,0.1,0.9,0.9,0.9,1.4c0,0.9-0.4,1.9-0.6,2.8c-2.8,10.5-4.3,21.3-5.1,32.1C22.6,289.1,22,292.1,21.5,295.4z"/>
		<path class="st15" d="M15.1,265.4c-0.4-7.1-0.5-14.1,0.9-21c0.8-4.1,1.9-8.1,4-11.7c0.4-0.7,0.9-1.3,1.4-1.9
			c0.2-0.2,0.7-0.3,0.9-0.1c1.4,1,1.9,3.6,1.2,5.1c-0.9,1.9-1.9,3.7-2.4,5.7c-1.8,6.8-3.4,13.6-5.1,20.4
			C15.8,263,15.4,264.2,15.1,265.4z"/>
		<path class="st16" d="M97.6,338.5c-1.1,0.1-2.2,0.2-3.3,0.2c-4.5-0.1-3.8,0.6-5.6-4.1c-0.5-1.3-0.6-2.4,0.2-3.5
			c0.2-0.2,0.3-0.5,0.5-0.8c2.5-4.2,2.5-4.2,7.8-3.9C100.3,330.3,98.6,334.4,97.6,338.5z"/>
		<path class="st17" d="M86.1,367.6c-2.7-2.2-5.8-3-9.3-2.9c-2.9,0.1-5.9,0-9.6,0c1.7-0.9,2.6-1.3,3.4-1.8c3.7-0.7,7.5-1.3,11.2-2.1
			c1.6-0.3,3.1-0.7,4.6-1.2c0.9-0.3,1.6-0.9,2.6-0.2c1,0.7,1.7,1.6,1.6,2.7c-0.1,1.2-0.4,2.5-0.9,3.6
			C89.1,367.1,87.6,367.5,86.1,367.6z"/>
		<path class="st18" d="M65.5,28.3c-0.1-0.7-0.5-1.5-0.3-2.2c0.5-2,1.2-4,2-5.9c1-2.4,1-4.6-0.6-6.8c0.2-0.6,0.4-1.3,0.7-1.7
			c1.6-2,3.8-2.5,5.4-1.3c2.1,1.6,2.6,4.1,1.1,6.2C71.1,20.6,68.3,24.4,65.5,28.3z"/>
		<path class="st19" d="M105.2,323.3c0-1.3,0-2.5,0-3.8c-0.1-2.7,0.5-3.2,3.5-2.3c0.5,0.1,1.1,0.8,1.1,1.3c0.1,3.5,0,7-0.1,10.5
			c0,0.4-0.8,1.1-1.2,1.2c-2.7,0.4-3.3-0.1-3.2-2.5c0-1.4,0-2.9,0-4.3C105.3,323.3,105.3,323.3,105.2,323.3z"/>
		<path class="st20" d="M95.2,190.5c-3,1.2-5.9,0.2-8.8-0.2c-0.4-0.1-1-0.8-1.1-1.3c-0.1-2.2-0.1-4.4,0-6.7c0-0.4,0.7-1.1,1.2-1.1
			c1.4-0.2,2.8-0.2,4.2-0.3c0.9,0.5,1.3,1.4,1.3,2.4C91.7,186.3,93.2,188.5,95.2,190.5z"/>
		<path class="st21" d="M100,321.7c-2,1-4,0.4-6.1,0.3c-0.3,0-0.9-1-0.8-1.4c0.6-3.6,1.3-7.2,2-10.8c0.1-0.3,1-0.4,1.5-0.6
			C99.6,312.8,97.9,317.7,100,321.7z"/>
		<path class="st22" d="M68.9,80c-3.2-0.2-6.3-0.4-10-0.6c1.8-0.6,3.1-1,4.4-1.4c1.4-0.4,2.7-0.9,4.1-1.3c1.4-0.3,2.8-0.5,4.2-0.8
			c0.4-0.1,0.8-0.5,1.1-0.8c1.3-0.7,2-0.1,2.5,1.1c0.6,1.3,0.4,2.3-0.5,2.9c-0.6,0.4-1.4,0.8-2.1,0.9C71.4,80.1,70.1,80,68.9,80z"/>
		<path class="st23" d="M48.6,347.5c0.3-0.5,0.8-1.6,1.4-2.7c1-1.6,2.6-1.7,3.9-0.3c1.6,1.7,1.8,3.7,0.7,5.6
			c-0.9,1.6-2.5,2.3-3.9,1.8C49.1,351.5,48.3,350.1,48.6,347.5z"/>
		<path class="st24" d="M95.2,190.5c-4.2-0.3-4.3,0.6-4.2-4.5c0-1.7-0.2-3.4-0.2-5.1c5.3-1,4.9,0,4.9,4
			C95.6,186.7,95.3,188.6,95.2,190.5z"/>
		<path class="st17" d="M72.7,91.2c-0.8-1-2-0.9-3.1-0.9c-2.5,0-4.9,0-7.3-0.2c4.7-1.4,4.7-1.4,6.5-4.6c1.4-0.1,2.8-0.3,4.2-0.2
			c1.5,0,2.6,1.2,2.4,2.8C75.2,89.7,74.8,91.2,72.7,91.2z"/>
		<path class="st25" d="M100,321.7c-2.3-0.6-2.3-0.6-2.4-2.1c-0.3-3.5-0.6-7-0.9-10.5c0.6-0.1,1.3-0.3,1.9-0.1
			c0.5,0.1,1.3,0.6,1.4,0.9C100.3,313.8,101,317.8,100,321.7z"/>
		<path class="st26" d="M91.2,201.5c-1.4,0.2-2.9,1.2-4,0.1c-1.2-1.2-1.8-2.9-1.9-4.7c-0.1-1.5,0.4-2.2,1.8-2.1
			c1.3,0,2.5,0.2,3.8,0.3C92.6,197.1,92.5,199.3,91.2,201.5z"/>
		<path class="st27" d="M91.2,176.5c-0.3,0.1-0.6,0.2-0.9,0.2c-5.6,0.3-5.8,0.2-4.6-5.9c1.7,0.1,3.4,0.2,5.1,0.2
			C92.5,172.7,92.4,174.6,91.2,176.5z"/>
		<path class="st28" d="M99.5,185.8c0-1.3-0.1-2.5,0.1-3.8c0.1-0.4,0.7-1,1.2-1.1c0.8-0.2,1.6,0.2,1.7,1.1c0.1,2.5,0,5.1,0,7.6
			c0,0.9-0.9,1.5-1.6,1.2c-0.5-0.2-1.1-0.8-1.1-1.2c-0.2-1.2-0.1-2.5-0.1-3.8C99.6,185.8,99.5,185.8,99.5,185.8z"/>
		<path class="st29" d="M97.6,338.5c-0.1-2-0.2-4-0.3-6c-0.1-2,0-4,0-6.1c0.8,0,1.7-0.4,2.2,0c0.5,0.3,0.8,1.3,0.8,2
			c-0.2,3-0.6,5.9-1,8.9C99.2,338.1,98.5,338.5,97.6,338.5z"/>
		<path class="st30" d="M91.2,201.5c-0.1-2.2-0.3-4.3-0.4-6.5c1.1-0.1,2.2-0.2,3.3-0.2c0.3,0,0.8,0.6,0.8,0.9c0,1.1-0.1,2.2-0.2,3.3
			C94.2,201.5,94.2,201.5,91.2,201.5z"/>
		<path class="st31" d="M91.2,176.5c-0.2-1.8-0.3-3.7-0.5-5.5c0.6-0.1,1.2-0.3,1.9-0.3c1.1-0.1,1.9,0.3,2,1.5
			c0.1,0.8,0.2,1.6,0.3,2.4c0.1,1.8-0.1,1.9-2.2,2C92.1,176.7,91.6,176.6,91.2,176.5z"/>
		<path class="st0" d="M64,345.5c0.4-0.4,0.7-0.7,1.1-1.1c2,2.5,1.6,5.7,2.6,8.3c-0.2,0.3-0.3,0.4-0.4,0.5c-0.1-0.1-0.3-0.2-0.4-0.3
			C66,350.5,65,348,64,345.5z"/>
		<path class="st0" d="M59.3,308.2c1.1-0.4,2.1-0.3,2.8,0.7C61.1,309.1,60.1,309.1,59.3,308.2z"/>
		<path class="st32" d="M36.7,125.4c-0.6-1-1.2-1.6-1.3-2.3c-1.3-6.1-0.7-12,1.7-17.7c0.6-1.5,1.5-2.8,3.1-3.4
			c0.9-0.3,1.9-0.4,2.6,0.5c0.6,0.7,0.6,1.6,0.1,2.2c-2.8,3.9-3.3,8.5-3.9,13.1c-0.2,1.6-0.6,3.1-1,4.7
			C37.8,123.2,37.3,124.1,36.7,125.4z"/>
		<path class="st33" d="M41.5,111.7c0.1-0.4,0.2-1.2,0.4-1.9c0.3-0.8,1-1.4,1.8-1.1c0.7,0.2,1.4,0.8,1.7,1.4
			c0.3,0.7,0.3,1.6,0.1,2.3c-0.2,1.5-1.4,2.8-2.2,2.8C42.5,115.1,41.6,113.6,41.5,111.7z"/>
		<path class="st34" d="M42.7,226.2c-1.2-1-1.7-2.2-1.7-3.8c0-4.8,0-9.5,0-14.3c0-0.8,0.2-1.6,0.5-2.3c0.4-1.3,1.3-2.3,2.7-2.3
			c4.4-0.1,8.9-0.2,13.3,0c1.3,0.1,2.5,1.3,3.7,2c2.5,5.7,1.3,11.6,1,17.4c-0.1,1.3-0.9,2.6-2.1,3C54.4,228.3,48.6,229.5,42.7,226.2
			z"/>
		<path class="st35" d="M42.7,226.2c3.7,0,7.3,0.2,11,0.1c2-0.1,4.1-0.5,6-1c0.6-0.2,1.3-1,1.4-1.7c0.3-1.1,0.2-2.2,0.2-3.3
			c0-4.9-0.1-9.9-0.1-14.8c1.8,0.4,2.7,1.7,3.2,3.3c1.6,4.8,2,9.6,0.7,14.6c-0.8,3-2.8,4.9-5.8,5.9c-3.7,1.3-7.5,1.6-11.3,0.9
			C45.7,229.8,43.1,229.4,42.7,226.2z"/>
		<path class="st36" d="M76.1,220.3c-0.5,1.9-0.9,3.9-1.6,5.8c-1.2,3.3-3,6.3-5.2,9c-0.8,1-1.7,1.9-2.7,2.6
			c-0.8,0.6-1.7,0.7-2.6,0.1c-0.7-0.5-0.5-1.3,0.4-2.4c1.4-1.7,2.9-3.4,4.1-5.2c2.1-3,3.5-6.4,4-10.1c0.1-0.8,0.2-1.6,0.6-2.3
			c0.2-0.4,0.9-0.7,1.5-0.8c0.3,0,0.8,0.4,1,0.8C75.8,218.5,75.9,219.3,76.1,220.3z"/>
		<path class="st37" d="M75.1,210.7c-0.2,0.5-0.3,1.1-0.6,1.7c-0.6,1.3-3,1.5-3.6,0.2c-0.5-1.1-0.7-2.4-0.8-3.6
			c0-1.1,1.1-2.1,2.1-2.2c1-0.1,2.1,0.8,2.4,1.9C74.9,209.3,75,209.9,75.1,210.7z"/>
		<path class="st22" d="M58.2,266.3c0.1,3.7-3.1,7-6.8,7.2c-3.3,0.2-6.5-3.3-6.6-6.8c-0.1-3.2,2.4-7.2,7.1-7.6
			C54.9,258.9,58.2,262.7,58.2,266.3z"/>
		<path class="st38" d="M52.3,295.7c-3.8,0-6-1.9-7-6c-0.6-2.4,1.1-5.9,3.7-7c1.8-0.8,3.7-0.7,5.5,0.1c1.8,0.7,2.7,2,3,3.9
			c0.3,1.9,1.1,3.6,0.1,5.5C56.5,294.5,54.9,295.9,52.3,295.7z"/>
		<path class="st39" d="M45.6,214.1c0.3-1.4-0.8-3.5,0.5-5.4c1.9-0.1,3.8-0.2,5.6-0.3c1.1,0,2.2,0,3.3,0c2,0.1,2.1,0.2,2.2,2.3
			c0,2.9,0,5.7,0,8.6c0,1.1-0.4,1.8-1.6,1.8c-2.7,0-5.4,0-8.1,0c-1.6,0-1.8-0.3-1.8-2C45.6,217.5,45.6,216.1,45.6,214.1z"/>
		<path class="st40" d="M51.4,264.1c2.4,0.2,3.5,1.3,3.3,3.2c-0.2,1.8-1.9,3.2-3.7,3c-1.8-0.3-3-2-2.7-3.9
			C48.5,264.8,49.7,264,51.4,264.1z"/>
		<path class="st41" d="M55,288.4c0.1,2-1.9,4-3.9,4.1c-1.4,0-3.2-1.6-3.2-3c0-1.7,2.4-4.2,3.9-4.2C53.3,285.4,54.9,286.9,55,288.4z
			"/>
	</g>
</g>
</svg>
