<?xml version="1.0" encoding="utf-8"?>
<!-- Generator: Adobe Illustrator 26.3.1, SVG Export Plug-In . SVG Version: 6.00 Build 0)  -->
<svg version="1.1" id="simplemech_xA0_chest" xmlns="http://www.w3.org/2000/svg" xmlns:xlink="http://www.w3.org/1999/xlink"
	 x="0px" y="0px" viewBox="0 0 293.2 179.6" style="enable-background:new 0 0 293.2 179.6;" xml:space="preserve">
<style type="text/css">
	.st0{fill:#FFFFFF;}
	.st1{fill:#010000;}
	.st2{fill:#FD9801;}
	.st3{fill:#F8F9F9;}
	.st4{fill:#F8FAFA;}
	.st5{fill:#F0F6F2;}
	.st6{fill:#F1F6F1;}
	.st7{fill:#1A1313;}
	.st8{fill:#FE9801;}
	.st9{fill:#8C9B9B;}
	.st10{fill:#482F03;}
	.st11{fill:#A56700;}
	.st12{fill:#96620B;}
	.st13{fill:#1B1A1A;}
	.st14{fill:#231E1E;}
</style>
<g>
	<g>
		<path class="st0" d="M119.4,72.3c8.1-6.4,17-9.9,27.2-9.8c10.2,0.1,19,3.8,27,10.2c3.4-2.2,6.8-4.4,10.1-6.6
			c18-11.9,36-23.7,54-35.6c11.6-7.6,23.2-15.2,34.9-22.8c3.1-2,6.1-4,9.3-6c0.9-0.6,2-1.1,3-1.3c2.4-0.5,4.8-0.2,6.5,1.9
			c1.9,2.3,2.4,4.9,1.3,7.6c-0.8,2.1-2.3,3.8-4,5.3c-4.4,3.9-8.8,7.9-13.2,11.8c-12.3,11-24.5,21.9-36.9,32.8
			c-1.8,1.6-2.6,3.2-2.6,5.7c0.1,6.7-0.2,13.4-0.4,20.1c0,1.1,0.1,2.2,0.2,3.3c0.6,3.5-0.3,6.7-2.4,9.5c-2.5,3.3-5.1,6.5-7.7,9.8
			c-8.3,10.2-16.5,20.3-24.9,30.4c-5.7,6.9-11.3,13.8-17.8,20.1c-1,1-1.8,2.2-2.7,3.3c-8.7,10.5-19.5,17-33.3,17.4
			c-11.3,0.3-21.4-3.3-29.7-11.1c-2.7-2.5-4.9-5.5-7.3-8.2c-0.7-0.8-1.3-1.8-2.1-2.6c-7.6-7.8-14.3-16.3-21.2-24.7
			c-8-9.8-16-19.5-24-29.3c-1.3-1.6-2.6-3.2-3.8-4.9c-1.7-2.2-2.5-4.8-2.5-7.6c0-6.5,0-13.1,0-19.6c0-2.4-0.1-4.8,0.1-7.2
			c0.2-1.8-0.4-3-1.7-4.2c-4.2-3.7-8.3-7.5-12.5-11.2C29.9,37.8,17.3,26.7,4.9,15.4c-1.5-1.4-2.7-3.1-3.8-4.8C0.4,9.7,0.1,8.5,0,7.5
			c-0.4-5.2,4.3-8.7,9.2-7c1.2,0.4,2.3,1.2,3.3,1.8c20.6,13.4,41.2,26.8,61.8,40.3c14.3,9.4,28.5,18.9,42.7,28.3
			C117.7,71.3,118.4,71.7,119.4,72.3z"/>
		<path class="st1" d="M119.7,78.6c1.4-1.1,2.6-2.1,3.9-3.1c6.4-4.9,13.6-7.7,21.7-7.9c9.4-0.2,17.6,3,24.7,8.9
			c3.5,2.9,2.5,3.1,6.8,0.3c30.7-20.2,61.4-40.4,92.1-60.6c4.4-2.9,8.8-5.7,13.3-8.6c0.9-0.6,1.9-1.2,2.9-1.7
			c0.9-0.6,1.8-0.5,2.6,0.3c0.7,0.8,0.8,1.8,0.3,2.7c-1,1.4-2.1,2.8-3.4,4c-3.8,3.5-7.6,6.8-11.4,10.2c-13.5,12-26.9,24-40.5,36
			c-1.5,1.3-1.7,2.6-1.6,4.6c0.2,6.5,0,13.1,0,19.6c0,2.1-0.2,4.2,0,6.2c0.4,2.9-0.3,5.4-2.1,7.6c-1.6,2-3.2,4-4.8,6
			c-9.3,11.4-18.7,22.7-28,34.1c-5.3,6.4-10.6,12.8-16.5,18.6c-1,1-1.8,2.2-2.7,3.3c-2.8,3.7-6.2,6.9-10.1,9.5
			c-12.8,8.3-26.1,8.7-39.5,1.6c-5.3-2.8-9.3-7.2-12.9-12c-1.3-1.8-2.8-3.5-4.2-5.2c-5.7-6.7-11.5-13.3-17.1-20
			c-8.8-10.6-17.5-21.2-26.2-31.9c-1.2-1.5-2.4-3-3.6-4.5c-1.3-1.6-1.8-3.3-1.8-5.3c0-8.3,0-16.6,0-24.9c0-1.4,0-2.9,0.3-4.3
			c0.3-1.5-0.3-2.4-1.3-3.3c-4.8-4.2-9.5-8.5-14.3-12.8C33.7,35,21.2,24,8.8,12.9c-1-0.8-1.9-1.7-2.7-2.7c-0.5-0.6-1-1.4-1.1-2.1
			C5,7.4,5.2,6.5,5.6,5.9C6.1,5.2,7,5.1,7.8,5.5c1.3,0.7,2.5,1.4,3.7,2.2c19.8,12.9,39.6,25.8,59.4,38.8c15,9.8,29.9,19.7,44.8,29.6
			C117,77,118.3,77.8,119.7,78.6z"/>
		<path class="st0" d="M185.2,121.1c-0.4,12.6-3.8,24.9-12.1,35.4c-3.3,4.2-7.2,7.7-11.8,10.3c-10.6,6-21.3,6-31.8-0.2
			c-5.5-3.2-9.8-7.6-13.3-12.8c-5.4-8-8.2-16.8-8.7-26.5c-0.6-11.6,1.6-22.5,7.2-32.7c3.7-6.7,8.6-12.3,15-16.4
			c15.9-10.1,34.5-5.2,44.5,8.8C182.3,98.3,185,108.4,185.2,121.1z"/>
		<path class="st0" d="M66.5,87.7c-0.3-0.9-0.9-1.7-0.9-2.6c0-6.5,0.1-13.1,0.2-19.6c0-0.4,0.3-0.8,0.6-1c0.1-0.1,0.6,0.1,0.8,0.3
			c0.7,0.6,1.5,1.2,2.2,1.9c11.7,10.4,23.3,20.8,35,31.1c1.7,1.5,2,2.8,1.3,4.9c-2,6.3-2.7,12.7-2.8,19.3c0,0.9,0.4,1.9-0.7,2.8
			c-3.9-4.1-7.8-8.2-11.7-12.2c-3.6-1.3-4.7-4.8-7-7.3l-0.2-0.2c-0.1-0.4-0.4-0.6-0.7-0.8l-0.2-0.2c-0.1-0.4-0.4-0.6-0.8-0.8
			l-0.2-0.2c-0.1-0.4-0.4-0.6-0.8-0.8l-0.2-0.2c-0.2-0.4-0.4-0.6-0.8-0.8l-0.2-0.2c-0.2-0.4-0.4-0.6-0.8-0.8l-0.1-0.2
			c-0.2-0.4-0.5-0.6-0.8-0.8l-0.1-0.1c-0.2-0.4-0.5-0.6-0.8-0.9l-0.1-0.1c-0.2-0.3-0.5-0.6-0.8-0.9l-0.1-0.1
			c-0.2-0.3-0.5-0.6-0.8-0.9L75,96.3c-0.2-0.3-0.5-0.6-0.8-0.9l-0.1-0.1c-0.3-0.3-0.6-0.6-0.9-0.9l-0.1-0.1
			c-0.3-0.3-0.6-0.6-0.9-0.9l-0.1-0.1c-0.3-0.3-0.6-0.6-0.9-0.9l-0.1-0.1c-0.3-0.3-0.6-0.6-0.9-0.9l-0.1-0.1
			c-0.3-0.3-0.6-0.6-0.9-0.9l-0.1-0.1c-0.3-0.3-0.6-0.6-0.9-0.9l-0.1-0.1c-0.3-0.3-0.6-0.6-0.9-0.9l-0.1-0.1
			C67.1,88.3,66.8,88,66.5,87.7z"/>
		<path class="st0" d="M189.2,125.6c0.3-8.8-0.4-16.2-2.7-23.4c-0.5-1.7,0.3-2.6,1.5-3.7c8.4-7.4,16.7-14.8,25-22.2
			c3.6-3.2,7.1-6.4,10.7-9.5c0.7-0.6,1.4-1.1,2.1-1.6c1.1,0.7,0.7,1.6,0.7,2.3c0.1,5.4,0,10.8,0.2,16.3c0.1,1.9-0.4,3.3-1.8,4.6
			c-4.4,4.4-8.7,8.8-13,13.4c-6.3,6.6-12.5,13.2-18.7,19.8C192.1,122.6,191.1,123.7,189.2,125.6z"/>
		<path class="st2" d="M54.1,45.3c4.4,3,8.8,6,13.5,8.5c-5-4.7-10.1-9.1-15.5-13.3c1.1-0.4,2.2-0.5,3.2,0.2c4.5,3,8.9,6.1,13.4,9.1
			c1.4,1,2.9,1.9,4.4,2.9c0.7,1.2,1.9,1.6,3,2.3L76,55c0.9,0.8,2,1.3,3,2l-0.1-0.1c9,6.8,18.9,12.3,27.2,19.9
			c0.9,0.9,2.1,1.5,2.8,2.6c0.5,0.8,1.2,1.6,0.5,2.6c-0.7,0.9-1.7,0.5-2.6,0.2c-1.3-0.9-2.6-1.8-3.9-2.7
			c-6.3-4.6-12.6-9.3-18.9-13.9c-0.5-0.4-1.1-0.5-1.7-0.8c-0.1,0-0.3,0.2-0.3,0.3c-0.1,0.1-0.2,0.3-0.1,0.4c0.4,0.6,0.8,1.3,1.4,1.8
			c8.3,6.8,16.6,13.6,24.9,20.3c0.6,0.5,1.3,1,1.9,1.5c0.7,0.6,0.9,1.3,0.5,2.1c-0.7,1.3-1.3,2.5-2.1,4c-0.8-0.5-1.5-0.8-2-1.3
			C88.5,78.1,70.7,62.3,53,46.4C52.8,45.5,53.1,45.1,54.1,45.3z"/>
		<path class="st2" d="M239.2,47.4c-8.9,8-17.8,16-26.7,23.9c-8.2,7.3-16.4,14.6-24.7,21.9c-0.8,0.7-1.7,1.4-2.5,2.1
			c-0.5-0.3-0.8-0.4-0.9-0.6c-2.7-5.1-2.8-4.1,1.5-7.5c8.2-6.6,16.3-13.3,24.4-20c0.4-0.4,0.7-1,1-1.5c0.1-0.1-0.1-0.3-0.1-0.4
			c-0.1-0.1-0.3-0.4-0.3-0.3c-0.6,0.2-1.2,0.4-1.7,0.8c-4.8,3.4-9.6,6.9-14.3,10.4c-0.8,0.6-1.6,1.1-2.4,1.6
			c-1.8-0.3-2.7,1.4-4.2,1.9c-1.6,0.5-3.6,2-4.6,0c-0.8-1.6,1.1-2.6,2.5-3.5c6.3-4.2,12.5-8.6,19-12.6c5.7-3.5,11.2-7.2,16.9-10.7
			c0.9-0.6,1.8-1.4,3-1.1c2.7,2.2,4.2-2,6.6-1.4c0.3,0,0.6-0.2,0.8-0.4c0.4-0.1,0.7-0.3,1-0.7l0.1,0c0.3-0.3,0.6-0.7,1.1-0.8
			c0.3-0.1,0.5-0.2,0.7-0.4c0.4-0.1,0.7-0.3,0.9-0.7c0.6-0.4,1.3-0.7,1.9-1.1C239.1,46.1,239.4,46.5,239.2,47.4z"/>
		<path class="st3" d="M186.3,141.4c0.7-3,1.5-4.9,1.6-6.7c0.2-3.8,2.2-6.4,4.7-9c10.6-11.1,21.1-22.2,31.6-33.4
			c0.7-0.7,1.4-1.3,2.1-1.9c0.1-0.1,0.7-0.1,0.8,0.1c0.2,0.2,0.2,0.6,0.1,0.8c-0.4,0.7-0.9,1.3-1.4,1.9
			c-8.3,10.2-16.5,20.3-24.8,30.5c-4.1,5.1-8.2,10.2-12.3,15.3C188.1,139.5,187.6,140,186.3,141.4z"/>
		<path class="st4" d="M89.3,113.8c4,4.5,8,9.1,12.1,13.5c1.5,1.6,2.5,3.1,2.7,5.4c0.3,2.5,1,4.9,1.8,8.2c-1.3-1.3-2.1-1.9-2.7-2.7
			c-11.8-14.5-23.5-29-35.3-43.4c-0.7-0.8-1.5-1.6-2.3-2.4c-0.9-0.8-0.8-1.7-0.1-2.6c1.4,1.2,2.7,2.5,4.1,3.7
			c0.1,0.4,0.3,0.6,0.7,0.7l0.2,0.2c0.1,0.4,0.4,0.6,0.8,0.8l0.2,0.2c0.2,0.4,0.4,0.6,0.8,0.8l0.1,0.2c0.2,0.3,0.5,0.6,0.8,0.8
			l0.1,0.2c0.2,0.3,0.5,0.6,0.8,0.8l0.1,0.2c0.2,0.3,0.5,0.6,0.8,0.8l0.1,0.1c0.3,0.3,0.5,0.6,0.8,0.8l0.1,0.1
			c0.3,0.3,0.6,0.6,0.8,0.9l0.1,0.1c0.3,0.3,0.6,0.6,0.9,0.9l0.1,0.1c0.3,0.3,0.6,0.6,0.9,0.9l0.1,0.1c0.3,0.3,0.6,0.6,0.9,0.9
			l0.1,0.1c0.3,0.3,0.6,0.6,0.9,0.9l0.1,0.1c0.4,0.2,0.7,0.5,0.9,0.9l0.1,0.1c0.4,0.2,0.7,0.5,0.9,0.9l0.1,0.1
			C85.9,108.4,88.2,110.5,89.3,113.8z"/>
		<path class="st5" d="M225.8,52.2c-0.6,0.2-1.2,0.3-1.7,0.6c-11.9,7.6-23.8,15.3-35.7,23c-1.5,1-3.3,1.8-4.3,3.9
			c2.6-0.2,4.5-1.3,6.4-2.2c0.8-0.4,1.5-0.5,2.1,0.3c-4,3.1-7.9,6.4-12.3,9.3c-1.5-1.9-2.8-3.7-4.2-5.5c0.6-0.5,1-1,1.5-1.3
			c19.5-12.6,39-25.2,58.5-37.9c1-0.3,1.3,0.2,1.3,1.1c-1,0.9-2,1.9-3.1,2.8c-0.3,0.5-0.7,0.9-1.3,1c-0.2,0-0.4,0-0.4,0.3
			c-0.5,0.1-0.8,0.4-1,0.8l-0.1,0.1c-0.4,0.2-0.7,0.5-1,0.8l0,0c-0.3,0.5-0.6,1-1.1,1.3c-0.3,0.2-0.6,0.4-0.9,0.6
			c-0.3,0.2-0.6,0.4-0.9,0.5c-0.4,0.2-0.9,0.3-1.4,0.4C226.1,52.2,225.9,52.2,225.8,52.2z"/>
		<path class="st6" d="M106.8,82.2c0.8-0.2,1.5-0.3,2.6-0.6c-0.5-0.6-0.7-1.1-1.2-1.5c-5.8-4.7-11.5-9.6-17.5-14.2
			c-3.3-2.5-6.8-4.7-10.2-7c-0.7-0.5-1.7-0.9-1.6-2.1c0.6,0.2,1.2,0.3,1.7,0.7c11.4,7.3,22.7,14.6,34.1,22c0.8,0.5,1.5,1.2,2.3,1.8
			c-1.4,1.9-2.8,3.6-4.2,5.5C110.6,85.5,108.7,83.9,106.8,82.2z"/>
		<path class="st7" d="M89.3,113.8c-2.2-2.3-4.4-4.6-6.6-6.8c0.3-0.6,0.6-1.2,1-1.8c2.3,2.4,4.7,4.9,7,7.3
			C90.2,112.9,89.8,113.4,89.3,113.8z"/>
		<path class="st8" d="M55.4,40.7c-1.1-0.1-2.2-0.1-3.2-0.2c-3.1-2.2-6.1-4.4-9.6-7C45.6,33.9,47.4,35,55.4,40.7z"/>
		<path class="st0" d="M237.4,43.5c-0.4-0.4-0.9-0.7-1.3-1.1c3.6-3,7.4-5.7,11.7-7.5l-0.1-0.1c-0.1,0.3,0,0.7-0.2,0.9
			C244.2,38.3,240.8,40.9,237.4,43.5z"/>
		<path class="st8" d="M54.1,45.3c-0.4,0.4-0.8,0.7-1.1,1.1c-3.9-2.8-7.5-5.8-10.5-9.6l0.1-0.1c0.3,0.1,0.7,0,0.9,0.2
			C47,39.7,50.5,42.5,54.1,45.3z"/>
		<path class="st2" d="M239.2,47.4c-0.4-0.4-0.8-0.8-1.2-1.1c3.3-2.5,6.5-5,9.8-7.5c0.2-0.2,0.6,0,0.9,0l-0.1-0.1
			c-0.9,1-1.7,2.2-2.7,3.1C243.8,43.7,241.5,45.6,239.2,47.4z"/>
		<path class="st2" d="M229.1,50.2c0.5-0.3,1-0.6,1.4-0.8c0.4,0.3,0.7,0.7,1.1,1c-1.7,1.3-3.5,2.7-5.2,3.9c-0.3,0.2-0.8,0-1.2,0
			c0.1-0.4,0.2-0.8,0.4-1.3c0.1-0.3,0.2-0.6,0.3-0.9c0,0-0.1,0-0.1,0c0.5-0.6,1.5-0.4,1.9-1.1l-0.1,0.1
			C228.1,50.8,228.5,50.4,229.1,50.2z"/>
		<path class="st2" d="M76.1,55c-1.6,0-2.7-0.7-3-2.3C74.3,53.2,75.6,53.6,76.1,55z"/>
		<path class="st6" d="M79,57c-1.6,0.2-2.3-0.8-3-2C77.3,55.2,78.4,55.8,79,57z"/>
		<path class="st7" d="M65.6,89.8c0,0.9,0,1.7,0.1,2.6c-1.3-0.5-1.3-1.5-1-2.6C64.6,89.7,65.2,89.8,65.6,89.8z"/>
		<path class="st9" d="M249.8,34.1c-0.7,0.3-1.4,0.5-2,0.8c0,0,0.1,0.1,0.1,0.1C248.1,33.8,249,34.1,249.8,34.1L249.8,34.1z"/>
		<path class="st7" d="M76,100.1c-0.3-0.3-0.6-0.6-0.8-0.9C75.4,99.5,75.7,99.8,76,100.1z"/>
		<path class="st7" d="M77,98.3c0.3,0.3,0.6,0.6,0.8,0.9C77.6,98.9,77.3,98.6,77,98.3z"/>
		<path class="st7" d="M75,99.1c-0.3-0.3-0.5-0.6-0.8-0.8C74.5,98.6,74.8,98.8,75,99.1z"/>
		<path class="st7" d="M76.1,97.4c0.3,0.3,0.6,0.6,0.8,0.9C76.6,97.9,76.3,97.7,76.1,97.4z"/>
		<path class="st7" d="M78,99.3c0.3,0.3,0.5,0.6,0.8,0.8C78.5,99.9,78.2,99.6,78,99.3z"/>
		<path class="st7" d="M81.8,103.2c0.3,0.3,0.5,0.5,0.8,0.8C82.3,103.7,82,103.5,81.8,103.2z"/>
		<path class="st7" d="M74.1,98.1c-0.3-0.3-0.5-0.5-0.8-0.8C73.6,97.6,73.8,97.8,74.1,98.1z"/>
		<path class="st7" d="M82.7,104.2c0.2,0.3,0.5,0.5,0.7,0.8C83.2,104.7,83,104.5,82.7,104.2z"/>
		<path class="st7" d="M81.7,105.9c-0.3-0.3-0.6-0.6-0.9-0.9C81.1,105.3,81.4,105.6,81.7,105.9z"/>
		<path class="st7" d="M75.1,96.4c0.3,0.3,0.6,0.6,0.8,0.9C75.7,97,75.4,96.7,75.1,96.4z"/>
		<path class="st7" d="M73.1,97.1c-0.3-0.3-0.5-0.5-0.8-0.8C72.6,96.6,72.9,96.9,73.1,97.1z"/>
		<path class="st7" d="M74.2,95.4c0.3,0.3,0.6,0.6,0.8,0.9C74.7,96,74.4,95.7,74.2,95.4z"/>
		<path class="st7" d="M72.2,96.2c-0.3-0.3-0.5-0.6-0.8-0.8C71.7,95.6,71.9,95.9,72.2,96.2z"/>
		<path class="st7" d="M73.2,94.4c0.3,0.3,0.6,0.6,0.9,0.9C73.8,95,73.5,94.7,73.2,94.4z"/>
		<path class="st7" d="M71.3,95.2c-0.3-0.3-0.5-0.5-0.8-0.8C70.8,94.6,71,94.9,71.3,95.2z"/>
		<path class="st7" d="M72.3,93.5c0.3,0.3,0.6,0.6,0.9,0.9C72.8,94,72.5,93.8,72.3,93.5z"/>
		<path class="st7" d="M70.3,94.1c-0.2-0.2-0.4-0.5-0.7-0.7C69.9,93.7,70.1,93.9,70.3,94.1z"/>
		<path class="st7" d="M79.8,104c-0.3-0.3-0.6-0.6-0.9-0.9C79.2,103.4,79.5,103.7,79.8,104z"/>
		<path class="st7" d="M70.3,91.5c0.3,0.3,0.6,0.6,0.9,0.9C70.9,92.1,70.6,91.8,70.3,91.5z"/>
		<path class="st7" d="M69.4,90.6c0.3,0.3,0.6,0.6,0.9,0.9C70,91.2,69.7,90.9,69.4,90.6z"/>
		<path class="st7" d="M68.4,89.6c0.3,0.3,0.6,0.6,0.9,0.9C69,90.2,68.7,89.9,68.4,89.6z"/>
		<path class="st7" d="M67.5,88.6c0.3,0.3,0.6,0.6,0.9,0.9C68.1,89.2,67.8,88.9,67.5,88.6z"/>
		<path class="st7" d="M76.9,101.1c-0.3-0.3-0.6-0.6-0.8-0.9C76.4,100.5,76.7,100.8,76.9,101.1z"/>
		<path class="st7" d="M82.6,106.9c-0.3-0.3-0.6-0.6-0.9-0.9C82.1,106.3,82.4,106.6,82.6,106.9z"/>
		<path class="st7" d="M66.5,87.7c0.3,0.3,0.6,0.6,0.9,0.9C67.1,88.3,66.8,88,66.5,87.7z"/>
		<path class="st10" d="M233.1,47.3c0.4-0.3,0.8-0.7,1.3-1C233.9,46.6,233.5,47,233.1,47.3z"/>
		<path class="st7" d="M78.9,100.3c0.3,0.3,0.5,0.5,0.8,0.8C79.4,100.9,79.2,100.6,78.9,100.3z"/>
		<path class="st10" d="M231.6,48.4c0.3-0.3,0.7-0.5,1-0.8C232.3,47.8,232,48.1,231.6,48.4z"/>
		<path class="st10" d="M236.2,47.4c-0.3,0.2-0.6,0.5-0.9,0.7C235.6,47.8,235.9,47.6,236.2,47.4z"/>
		<path class="st11" d="M248.8,38.8c0.1-0.2,0.2-0.5,0.3-0.7C249.9,38.8,249,38.6,248.8,38.8C248.7,38.7,248.8,38.8,248.8,38.8z"/>
		<path class="st10" d="M230.6,49.3c0.3-0.3,0.6-0.6,1-0.8C231.2,48.7,230.9,49,230.6,49.3z"/>
		<path class="st10" d="M234.5,48.5c-0.4,0.3-0.7,0.5-1.1,0.8C233.8,49,234.2,48.7,234.5,48.5z"/>
		<path class="st12" d="M42.4,36.9c-0.2-0.1-0.4-0.3-0.6-0.4c0.5-0.6,0.6,0,0.7,0.3C42.5,36.8,42.4,36.9,42.4,36.9z"/>
		<path class="st7" d="M80.7,105c-0.3-0.3-0.6-0.6-0.9-0.9C80.2,104.4,80.5,104.7,80.7,105z"/>
		<path class="st9" d="M249.8,34.1c0-0.1,0-0.2,0-0.3C249.8,33.9,249.8,34,249.8,34.1C249.8,34.1,249.8,34.1,249.8,34.1z"/>
		<path class="st10" d="M233.4,49.3c-0.3,0.2-0.6,0.4-1,0.7C232.7,49.8,233,49.5,233.4,49.3z"/>
		<path class="st7" d="M77.9,102c-0.3-0.3-0.6-0.6-0.9-0.9C77.3,101.5,77.6,101.8,77.9,102z"/>
		<path class="st7" d="M79.9,101.3c0.3,0.3,0.5,0.5,0.8,0.8C80.4,101.8,80.1,101.6,79.9,101.3z"/>
		<path class="st7" d="M78.8,103c-0.3-0.3-0.6-0.6-0.9-0.9C78.3,102.4,78.6,102.7,78.8,103z"/>
		<path class="st7" d="M80.8,102.3c0.3,0.3,0.5,0.5,0.8,0.8C81.3,102.8,81.1,102.5,80.8,102.3z"/>
		<path class="st7" d="M71.3,92.5c0.3,0.3,0.6,0.6,0.9,0.9C71.9,93.1,71.6,92.8,71.3,92.5z"/>
		<path d="M142.2,117c0.2-1.9,0.3-3.8,0.6-5.6c0.5-3.3,1.1-6.6,1.6-9.9c0.1-0.8,0.1-1.6,0-2.4c-0.2-1-0.9-1.8-2-1.7
			c-0.7,0.1-1.6,0.5-2,1c-0.5,0.7-0.7,1.7-0.9,2.7c-0.8,5-1.5,10.1-2.3,15.1c-0.1,0.5-0.3,0.9-0.5,1.3c-0.2,0.2-0.5,0.5-0.7,0.5
			c-0.2,0-0.6-0.3-0.7-0.5c-0.3-0.7-0.6-1.5-0.6-2.2c0-2.2,0.1-4.5,0.2-6.7c0-1.1,0.1-2.2-0.1-3.3c-0.1-0.5-0.7-1.3-1.1-1.3
			c-0.7,0-1.6,0.3-2,0.8c-0.5,0.7-0.9,1.7-1,2.6c-0.3,4-0.6,8-0.5,12c0.1,2.4,0.2,4.8-0.4,7.1c-1,3.6-1.1,7.2-1.1,10.9
			c0,3.9-0.9,7.6-2.8,11c-0.3,0.5-0.7,1-1.3,1.7c-2-3.4-2.7-7-3.4-10.6c-1-5-1.1-10.2-1.2-15.3c-0.1-5.9,0-11.8,1.1-17.7
			c0.8-4.1,2-8.1,4-11.7c3.9-7.1,9.8-11.1,17.8-12.2c4.2-0.6,8.3-0.4,12.4,0.4c7,1.3,11.8,5.4,14.5,11.9c1.7,4.2,2.6,8.5,3.1,13
			c0.8,7.8,0.9,15.6,0,23.5c-0.5,4.8-1.5,9.5-3.3,13.9c-3.6,9-10.3,14-19.9,15c-4.3,0.4-8.6,0.4-13.1-1c1.3-4,2.7-7.8,5.3-11
			c1.1-1.3,2.6-2.4,4-3.3c2.2-1.4,4.5-2.4,6.7-3.8c1.5-0.9,3.1-1.9,4.1-3.2c2.2-2.9,5.2-4.7,7.9-6.9c0.6-0.5,1.4-0.8,2-1.3
			c0.9-0.7,2.1-1.4,1.5-2.6c-0.5-1.1-1.7-1.3-2.9-1.4c-2.2-0.2-4,0.7-5.8,2c-1.7,1.2-3.3,2.4-5.1,3.6c-1,0.6-1.9,0-1.8-1.2
			c0.1-3.9,1.1-7.6,2.6-11.1c1.7-4.1,3.4-8.2,5.1-12.4c0.5-1.2,0.8-2.4,1-3.7c0.1-1-0.6-1.8-1.5-2.2c-1.1-0.5-1.9,0.1-2.5,0.9
			c-0.6,0.9-1.1,2-1.5,3c-1.5,3.9-3,7.7-4.5,11.6c-0.6,1.6-2,2.5-2.2,1.9c-0.2-0.9-0.3-1.9,0-2.7c1.4-5.4,2.8-10.8,4.2-16.2
			c0.4-1.6,0-2.4-1.4-3.1c-0.9-0.4-2.1-0.2-2.5,0.6c-0.5,1-0.9,2-1.2,3.1c-1.4,5.2-2.7,10.5-4.1,15.7c-0.2,0.6-0.8,1.2-1.2,1.8
			C142.6,117.2,142.4,117.1,142.2,117z"/>
		<path class="st13" d="M181.4,129.9c-0.2,3.5-1.1,7.9-2.8,12.1c-0.3,0.7-1,1.2-1.6,1.7c-0.2,0.1-1-0.1-1.1-0.3
			c-0.2-0.6-0.4-1.2-0.3-1.8c0.2-1.1,0.5-2.2,0.8-3.2c1-3.8,2.2-7.7,2.3-11.7c0-0.7,0.5-1.5,1-1.9c0.4-0.4,1.3,0.7,1.5,1.9
			c0,0.3,0.1,0.6,0.1,0.9C181.4,128,181.4,128.5,181.4,129.9z"/>
		<path class="st14" d="M180.2,116.6c-1.1,0-1.9-0.9-1.9-2.2c0-1.3,0.9-2.2,2-2.1c1.1,0.1,2,1,1.9,2.2
			C182.2,115.7,181.3,116.6,180.2,116.6z"/>
		<path class="st2" d="M227.6,51.1c-0.4,0.9-1,1.3-1.9,1.1C226,51.3,226.7,51,227.6,51.1z"/>
		<path class="st2" d="M229.1,50.2c-0.5,0.3-1,0.7-1.5,1C227.7,50.3,228.3,50.1,229.1,50.2z"/>
	</g>
</g>
</svg>
