<?xml version="1.0" encoding="utf-8"?>
<!-- Generator: Adobe Illustrator 26.3.1, SVG Export Plug-In . SVG Version: 6.00 Build 0)  -->
<svg version="1.1" id="simplemech-torso" xmlns="http://www.w3.org/2000/svg" xmlns:xlink="http://www.w3.org/1999/xlink" x="0px"
	 y="0px" viewBox="0 0 268.5 279.6" style="enable-background:new 0 0 268.5 279.6;" xml:space="preserve">
<style type="text/css">
	.st0{fill:#FFFFFF;}
	.st1{fill:#FEFEFE;}
	.st2{fill:#FE9900;}
	.st3{fill:#CDCDCD;}
	.st4{fill:#FDFEFE;}
	.st5{fill:#F3FCFC;}
	.st6{fill:#FAFBFB;}
	.st7{fill:#FDFDFD;}
	.st8{fill:#FCFDFD;}
	.st9{fill:#FE9901;}
	.st10{fill:#FCFCFC;}
	.st11{fill:#FCFEFE;}
	.st12{fill:#EDF5F5;}
	.st13{fill:#C4C9C9;}
	.st14{fill:#C3C9C9;}
	.st15{fill:#E6F0F0;}
	.st16{fill:#F5F6F6;}
	.st17{fill:#F9F8F6;}
	.st18{fill:#F7F8F8;}
	.st19{fill:#F5F7F7;}
	.st20{fill:#F7FBFB;}
	.st21{fill:#F0F3F3;}
	.st22{fill:#F6F6EF;}
	.st23{fill:#F0F1F1;}
	.st24{fill:#F2F4F4;}
	.st25{fill:#F3F5F5;}
	.st26{fill:#F0F4F4;}
	.st27{fill:#FAF9F9;}
	.st28{fill:#FAF8F8;}
	.st29{fill:#A5A4A4;}
	.st30{fill:#B3B9B9;}
	.st31{fill:#EAE9E9;}
	.st32{fill:#AFB5B5;}
	.st33{fill:#A0A1A1;}
	.st34{fill:#060401;}
	.st35{fill:#FDF9F5;}
	.st36{fill:#120A00;}
	.st37{fill:#281700;}
	.st38{fill:#2F2D2D;}
	.st39{fill:#251E1E;}
	.st40{fill:#1E1A1A;}
	.st41{fill:#2A2828;}
	.st42{fill:#231C1C;}
	.st43{fill:#181313;}
	.st44{fill:#0E0E0E;}
	.st45{fill:#1C1919;}
</style>
<g>
	<g>
		<path class="st0" d="M228.3,8.4c3.1-1.7,6.1-2.8,9.7-2.2c2.6,0.4,4.9,1.5,6.8,3.2c2.6,2.4,4.8,5.2,6.1,8.5
			c2.4,6.3,4.9,12.5,7.2,18.8c3.2,8.7,5.9,17.6,9.5,26.1c2.9,6.8-0.7,15.7-6.4,18.7c-1,0.5-2,1-3,1.4c-3.1,1.1-3.1,1.1-3.2,4.1
			c-0.1,3.8-0.1,7.7-0.3,11.5c-0.2,2.5-0.5,5.1-1.1,7.6c-1.8,7.5-8.2,13-15.9,13.8c-1,0.1-1.9,0.2-2.9,0.1c-2.8-0.5-4,1.1-4.9,3.4
			c-4.3,10.5-10.8,19.5-19.3,27c-1.1,1-2.2,1.9-3.3,2.7c-4.2,3.2-8.8,4.3-14,2.4c-0.3-0.1-0.6,0-1,0.1c-0.9,3.3-1.9,6.6-2.7,10
			c-0.8,3.3-2.9,5.2-6.2,5.9c-0.6,0.1-1.3,0.2-1.9,0.3c-1.1,0.3-1.8,1.4-1.7,2.6c0,0.3,0.1,0.6,0.2,0.9c0.9,2.3,0.9,4.7,0.2,7
			c-0.3,1,0.4,1.9,1.5,2c1.3,0.1,2.6,0.1,3.8,0.1c6.6,0.1,13.1,0.1,19.7,0.2c7.4,0.2,10.6,3.8,10.2,11.3c0,0.5-0.1,1-0.1,1.4
			c-0.3,1.9-1,3.9-0.7,5.7c0.3,1.9,2.8,2.3,4.2,3.7c4.4,4.3,5.1,12.3,1.9,16.8c-5.2,7.4-10.2,15.1-15.4,22.6
			c-5.4,7.9-11,15.7-16.5,23.5c-1,1.4-2.1,2.8-3.2,4.2c-5.1,6.5-15.3,7.8-21.2,1.9c-1.3-1.3-2.4-1.6-4.2-1.2
			c-4.3,1.1-8.7,1.8-13.1,2.7c-0.3,0.1-0.6,0.1-0.9,0.2c-5.4,2.1-11,1.4-16.6,1.5c-0.8,0-1.6,0-2.4-0.2c-6.5-1.4-13.1-2.9-19.6-4.4
			c-1.4-0.3-2.3,0-3.4,1c-5,4.6-11,5.4-16.8,2.5c-2-1-3.7-2.5-5-4.3c-2.9-3.8-5.8-7.6-8.5-11.6c-7.9-11.4-15.7-22.9-23.6-34.4
			c-0.8-1.2-1.6-2.4-2.4-3.6c-3.1-4.8-2.7-9.7-0.4-14.6c1.1-2.2,3-3.7,5.1-4.9c1-0.6,1.2-1.3,1-2.4c-0.3-2.8-0.8-5.7-0.8-8.6
			c0-5.1,3.8-8.7,8.4-8.7c0.6,0,1.3-0.1,1.9-0.1c4.2-0.1,8.3-0.2,12.5-0.2c2.6,0,5.1,0,7.7,0c1.4,0,3.1,0.2,4.2-0.5
			c1.6-0.9,0-2.6,0.2-4c0.2-1.6,0.3-3.2,0.6-4.7c0.4-2.4,0-3-2.5-3.6c-0.3-0.1-0.6-0.1-0.9-0.1c-3.3-0.6-5.4-2.6-6.2-5.9
			c-0.6-2.3-1.1-4.7-1.6-7c-0.3-1.1-0.6-2.1-0.8-2.9c-1-0.6-1.5,0-2.1,0.1c-4.4,1.2-8.6,0.5-12.3-2.2c-2.7-2-5.3-4.2-7.6-6.5
			c-6.5-6.5-11.6-14-15.4-22.4c-0.4-0.9-0.8-1.7-1.1-2.6c-0.6-1.6-1.7-2.3-3.3-2.2c-0.8,0-1.6,0-2.4,0c-9.2-0.2-16-7.1-17.3-13.9
			c-0.4-2.3-0.9-4.7-1-7.1c-0.3-4.5-0.3-8.9-0.4-13.4c0-1.2-0.3-2.1-1.7-2.4c-1.2-0.3-2.4-0.8-3.5-1.4c-6.4-3.2-9.5-11.7-7.1-18
			C2.9,58.4,4.7,53,6.7,47.6c3.2-8.7,6.4-17.4,9.6-26.1c1.3-3.6,3-7,5.5-10c3.9-4.7,10-7.2,16.7-3.9c1.6,0.8,2.6,0.4,3.8-0.4
			C47.4,3.7,53,1.4,59,0.5C60.8,0.2,62.5,0,64.3,0c45.6,0,91.1,0,136.7,0.1c4.6,0,9.2,0.5,13.8,1.5c4.5,0.9,8.4,2.9,12,5.7
			C227.2,7.7,227.7,8,228.3,8.4z"/>
		<path d="M249,78.3c0,1.5-0.1,3.1-0.1,4.7c-0.1,5.3-0.1,10.5-0.2,15.8c-0.1,1.9-0.3,3.8-0.7,5.7c-1.5,6-5.9,9.5-12,9.9
			c-2.4,0.2-4.8,0.3-7.2,0.4c-1.5,0-2.3,0.8-2.7,2.1c-3.6,11.2-10,20.7-18.6,28.6c-1.6,1.5-3.4,2.9-5.3,4.1c-3.2,2-5.3,1.7-8.2-0.8
			c-1.4-1.3-2.9-2.6-4.3-3.8c-0.9-0.8-1.8-0.4-2,0.9c-0.7,3.6-1.3,7.2-2,10.8c-0.5,2.2-1.1,4.3-1.7,6.5c-0.8,2.8-1,2.9-4,3.2
			c-0.3,0-0.6,0-1,0c-1.1,0.1-2.5-0.2-3.2,0.4c-0.7,0.5-0.5,2-1,3c-0.7,1.4-1.5,2.8-2.4,4.3c0.4,0.7,1,1.6,1.5,2.6
			c0.7,1.5,1.1,3.1,0.3,4.6c-0.7,1.4-0.9,2.6,0,4c1.1,1.6,0.4,3.4,0.3,5.4c1.7,0.1,3.3,0.1,4.9,0.1c8.2,0,16.3,0.2,24.5,0
			c5.7-0.1,6.2,2.5,5.6,6.4c-0.5,3.2-1.1,6.3-1.6,9.4c-0.3,1.7-0.1,1.9,1.5,2.3c0.8,0.2,1.6,0.3,2.3,0.6c4.6,1.7,6.4,6.8,4,11
			c-1.3,2.2-2.7,4.3-4.2,6.4c-9.2,13.3-18.4,26.5-27.6,39.8c-1.1,1.6-2.2,3.2-3.6,4.4c-2.3,2.2-5.1,3.2-8.4,2.2
			c-3.2-1-4.7-3.1-4.9-6.6c-0.9,0.2-1.7,0.3-2.4,0.5c-5.6,1.9-11.3,3.4-17.2,4.1c-1.9,0.2-3.8,0.7-5.6,1.2
			c-4.6,1.1-9.2,0.8-13.8,0.3c-3.8-0.4-7.5-1.3-11.3-2.2c-5-1.2-9.9-2.5-15-3.8c-0.1,0.5-0.2,1.2-0.4,1.7c-1.1,3.7-4.4,5.7-8.1,5
			c-3-0.5-5.2-2.4-6.9-4.8c-2.4-3.4-4.9-6.7-7.3-10.1c-7.8-11.3-15.6-22.6-23.4-34c-0.8-1.2-1.6-2.4-2.3-3.6
			c-3.1-5.2-1-10.4,4.7-12.1c3-0.9,3-0.9,2.4-4c-0.5-3.1-1.1-6.3-1.3-9.5c-0.2-3.5,0.9-4.7,4.3-4.8c4.2-0.1,8.3-0.1,12.5-0.1
			c5.6,0,11.2,0,16.8,0c0.3,0,0.6-0.1,1.2-0.3c-0.1-2.1-0.5-4.3,0.8-6.3c0.3-0.4,0.2-1.3,0-1.7c-1.6-2.8-0.8-5.2,0.9-7.6
			c0.6-0.8,0.5-1.4-0.2-2c-1.5-1.4-2-3.2-2.1-5.2c0-0.4-0.7-1.1-1.2-1.2c-1.6-0.2-3.2-0.2-4.8-0.3c-1.4-0.1-2.2-0.7-2.7-2.2
			c-1.8-5.2-2.5-10.5-3.6-15.9c-0.2-1.2-0.7-2.4-1-3.6c-1.7-0.2-2.3,1.4-3.4,2.2c-0.9,0.7-1.7,1.4-2.5,2.2c-2.3,2.3-4.8,2.2-7.5,0.9
			c-1.4-0.7-2.7-1.7-3.9-2.7c-9.1-7.9-15.9-17.5-20-28.8c-0.3-0.7-0.5-1.5-0.8-2.3c-0.3-0.9-0.9-1.3-1.8-1.3
			c-2.2-0.1-4.5-0.3-6.7-0.4c-8.3-0.4-13.3-5.2-13.8-13.5c-0.3-4.6-0.2-9.3-0.3-13.9c-0.1-2.8,0.3-5.7-0.3-8.5
			c-1.9-0.2-3.6-0.3-5.3-0.6c-6.1-1.3-8.9-6.5-6.8-12.3c4.8-13.2,9.6-26.4,14.4-39.6c0.7-1.9,1.4-4,2.4-5.8c1.1-1.9,2.3-3.8,3.9-5.4
			c3-3,6.7-3,9.8-0.2c0.8,0.7,1.5,1.6,2.4,2.6c0.8-0.7,1.5-1.3,2.2-1.8c4.6-3.8,9.7-6.9,15.6-8c2.8-0.5,5.7-0.8,8.6-0.8
			c23,0,46,0.1,69.1,0.1c21.6,0,43.2,0,64.7,0.1c3.8,0,7.6,0.5,11.5,0.8c4.8,0.4,8.9,2.5,12.4,5.7c1,0.9,1.9,1.7,2.8,2.6
			c1.9,1.7,1.9,1.7,3.6-0.2c0.2-0.2,0.4-0.5,0.6-0.7c3.2-3.1,7-3.2,10.2-0.1c1.9,1.8,3.4,3.8,4.3,6.3c1.7,4.5,3.5,8.9,5.2,13.4
			c3.7,10.2,7.4,20.4,11,30.7c0.5,1.3,0.9,2.8,0.9,4.2c-0.1,4.6-2.8,7.7-7.5,8.6C253,78.1,251.1,78.1,249,78.3z"/>
		<path class="st0" d="M169,85.1c-0.2,8.1-2.1,17-6.7,25.3c-3.1,5.7-7.2,10.5-12.6,14.2c-10.8,7.3-23.7,6.7-33.7-1.7
			c-5.4-4.5-9.2-10.2-11.6-16.7C98.6,90.5,99.4,75,107,59.9c2.8-5.5,6.6-10.1,11.5-13.9c11.6-8.7,26.1-7.9,36.7,2.1
			c6,5.7,9.6,12.7,11.8,20.5C168.3,73.6,169,78.7,169,85.1z"/>
		<path class="st1" d="M118,181.6c-1.6-1.4-3.5-1.4-5.4-1.4c-4.2,0-8.3,0-12.5,0c-0.6,0-1.6-0.4-1.6-0.6c0-0.7,0.1-1.6,0.6-2.1
			c1.7-1.7,3.7-3,6.3-2.9c2.7,0.1,5.4,0.1,8.1,0c1.1,0,2.2-0.3,3.2-0.6c0.4-0.1,0.8-0.7,0.8-1.1c0-0.4-0.4-1-0.8-1.1
			c-1.2-0.3-2.5-0.6-3.7-0.6c-2.9-0.1-5.8-0.1-8.6,0c-2.2,0.1-4.1-0.7-5.8-1.8c-0.5-0.3-0.7-1.4-0.6-2.1c0-0.5,0.7-1.1,1.2-1.3
			c0.5-0.2,1.3-0.2,1.9-0.2c6.7,0.1,13.4,0.1,20.1,0.2c1.1,0,1.8,0.3,2.1,1.5c0.4,1.6,1.7,2.2,3.3,2.2c4.8,0,9.6,0,14.4,0
			c2,0,3.4-0.6,4-2.7c0.3-1,1-1,1.9-1c6.6,0,13.1-0.1,19.7-0.2c0.8,0,1.6-0.1,2.4,0.2c0.5,0.2,1.2,0.8,1.2,1.2
			c0.1,0.7-0.1,1.7-0.6,2.1c-1.1,0.9-2.5,1.2-4,1.2c-2.9,0-5.8,0-8.6,0.2c-2,0.1-4.1,0.6-6.1,0.9c-0.2,0-0.4,0.5-0.4,0.7
			c0,0.3,0.2,0.7,0.4,0.8c0.6,0.3,1.2,0.5,1.8,0.6c3.5,0.2,7,0.5,10.5,0.6c2.8,0.1,4.7,1.7,6.4,3.6c0.9,1.1,0.3,2.7-1.2,2.9
			c-1.3,0.2-2.5,0.2-3.8,0.2c-2.4,0-4.8,0-7.2,0.1c-1.1,0.1-2.1,0.5-3.1,0.9c-0.7,0.3-0.6,1.7,0.1,2c1,0.4,2.1,0.7,3.2,0.7
			c2.9,0.1,5.8,0,8.6,0.1c0.9,0,1.9,0.3,2.7,0.8c0.5,0.3,1.2,1.1,1.1,1.4c-0.2,0.6-0.9,1.3-1.5,1.6c-1.6,0.6-3.4,1.1-5.1,1.4
			c-3.8,0.5-7.7,0.9-10.2-3.1c-10.4-9.7-26.2-9.5-36.4,0.3c-0.6,0.6-1.1,1.1-1.7,1.7c-0.7,0.8-1.4,1.2-2.5,1.2
			c-4.4,0.3-8.6-0.2-12.7-1.6c-1.3-0.5-1.5-1.6-0.6-2.6c2.7-2.9,2.7-2.9,7.1-3c2.7,0,5.4,0,8.1-0.1C115.8,183.1,115.8,183,118,181.6
			z"/>
		<path class="st2" d="M127.9,185.1c5.6-2.2,11-1.2,16.2,1.3c7.4,3.6,11.8,9.6,13.3,17.7c2.5,14.3-10.7,26.9-25.1,23.8
			c-7.2-1.5-12.9-5.3-16.2-12.2C113,202.3,117.2,191.5,127.9,185.1z"/>
		<path class="st3" d="M87.6,156.1c-0.3-0.4-0.7-0.7-0.7-1.1c-0.8-4.5-1.6-9.1-2.4-13.6c-0.2-1.1,0.1-1.8,0.9-2.4
			c6.6-5.7,13.2-11.5,20-17.4c2,1.8,4,3.5,5.9,5.4c0.5,0.5,0.9,1.3,1.1,2c1.9,7.2,3.8,14.4,5.7,21.6c-4.9,2.1-10.2,1.6-15.4,2.3
			C97.6,153.5,92.2,152.7,87.6,156.1z"/>
		<path class="st4" d="M57.4,132.8c0.3-0.3,0.5-0.7,0.9-1c6-5,11.9-10.1,17.9-15.1c1.7-1.5,3.5-2.5,6-2.4c5.4,0.2,10.8,0.1,16.3,0
			c1.7,0,2.6,0.8,3.4,2.1c0.5,0.8,0.4,1.5-0.1,2.2c-0.3,0.4-0.7,0.7-1,1c-9.7,8.5-19.4,17-29.2,25.5c-0.7,0.6-1.3,0.7-2.1,0.1
			C66.1,142.7,60.6,137.1,57.4,132.8z"/>
		<path class="st1" d="M218.9,17.7c4,2.2,6.8,5.1,8.9,8.8c3.3,5.8,6.8,11.6,10.1,17.4c2.2,3.9,4,8,4.7,12.5c0.3,1.6,0.5,3.2,0.5,4.8
			c0,11.5,0,23-0.1,34.5c-0.1,6.8,0.9,5.9-5.8,5.9c-0.6,0-1.3,0-1.9,0c-1.3-0.1-1.7-0.4-1.7-1.7c0.1-2.6,0.1-5.1,0.3-7.7
			c1.1-13.8,0.6-27.5-1.5-41.1c-1-6.7-3-13.1-6.2-19c-2-3.7-4-7.3-5.9-10.9C219.7,20.1,219.3,18.9,218.9,17.7z"/>
		<path class="st4" d="M210.7,132.7c-4.1,5.4-8.1,9.5-13,12.9c-0.1,0-0.3,0-0.4-0.1c-10-8.7-19.9-17.3-29.9-26
			c-0.2-0.2-0.5-0.4-0.7-0.7c-0.2-0.2-0.3-0.6-0.3-0.8c0-1.2,2.1-3.4,3.4-3.5c1.1-0.1,2.2-0.1,3.3-0.1c4.3,0,8.6,0.1,12.9-0.1
			c2.3-0.1,4,0.8,5.6,2.2c3.6,3.1,7.1,6.3,10.8,9.5C205,128.1,207.8,130.3,210.7,132.7z"/>
		<path class="st5" d="M39.2,28.5c5.1-9.4,12.4-14.4,22.1-16.1c1.7-0.3,3.5-0.2,5.3-0.2c6.6,0,13.1,0.2,19.7,0.2
			c38,0,76.1,0,114.1,0.1c3.8,0,7.6,0.5,11.5,0.8c1.6,0.1,3.1,0.6,4.4,1.6c-0.5,1.3-1.6,0.8-2.5,0.8c-10.4,0-20.8,0-31.2,0
			c-30.7-0.1-61.4-0.1-92.1-0.2c-7.7,0-15.3-0.1-23-0.4c-2-0.1-3.8,0.3-5.5,1.3C54.5,20.3,47.2,24.2,39.2,28.5z"/>
		<path class="st3" d="M150.1,150.5c0.1-0.8,0.2-1.6,0.4-2.3c1.6-6,3.3-12,4.9-18c0.4-1.4,0.9-2.6,2.1-3.6c1.9-1.4,3.6-3.1,5.6-4.8
			c0.8,0.6,1.7,1.3,2.5,2c4.1,3.7,8.2,7.5,12.3,11.3c0.6,4-0.5,7.9-1.2,11.7c-0.4,1.8-1.3,3.4-3.3,3.7c-7.2,1.2-14.4,2.1-21.7,1
			C151,151.4,150.5,151,150.1,150.5z"/>
		<path class="st6" d="M96.3,91c-1.2-10.2-0.1-20.1,3.6-29.7c2.9-7.2,6.9-13.7,12.7-18.9c4.7-4.3,10-7.4,16.2-8.8
			c9.6-2.2,18.3,0,26.3,5.7c5.2,3.7,8.8,8.8,11.8,14.3c7.8,14.6,8.6,29.8,3.4,45.4c0.4-2.8,0.8-5.6,1.2-8.4
			c1.4-12.1-0.6-23.6-6.4-34.3c-2.4-4.4-5.5-8.2-9.3-11.5c-10.8-9.2-25.5-10.1-37.3-2.2c-5.8,3.9-10.2,9.1-13.6,15.2
			c-3.8,6.8-5.9,14.1-6.8,21.8c-0.8,3-0.1,6.1-0.4,9.2C97.6,89.6,98.2,91,96.3,91z"/>
		<path class="st7" d="M190.2,234.9c2.2-6.2,4.3-12.3,5.3-18.8c0.5-3.5,0.8-7,1-10.5c0.1-1.5-0.3-3.1-0.5-5c-11.9,0-23.6,0-35.3,0
			c-0.7-2-1.3-3.8-2-5.9c4.4-0.1,8.5-0.3,12.6-0.3c10.1-0.1,20.1-0.1,30.2-0.1c2.2,0,2.5,0.2,2.1,2.6c-0.9,4.9-1.8,9.7-3,14.5
			c-2.2,8.8-4.8,17.5-9.5,25.4C189.4,236.8,189.7,235.9,190.2,234.9z"/>
		<path class="st8" d="M248.9,64.5c0.8-9.2-2.1-17.3-6.7-25.1c-2.9-5-5.7-10-8.7-14.9c-1-1.6-1.3-3.2-0.9-5c0.3-1.3,1.1-2.3,2.5-2.6
			c1.2-0.3,2.3,0.2,2.9,1.2c1.4,2.1,3,4.2,3.9,6.5c5.3,13.5,10.4,27.1,15.6,40.7c0.8,1.9,1,3.6-0.1,5.5c-1.4,2.4-4.9,3.5-7.5,2.4
			c-0.8-0.4-1.1-1-1.1-1.9C248.9,69,248.9,66.8,248.9,64.5z"/>
		<path class="st9" d="M140.1,164.4c-0.4,0.1-0.9,0.4-1.3,0.4c-5.3-0.3-4.7,0.9-6.3-4.9c-1.8-6.9-3.9-13.7-5.8-20.6
			c-0.4-1.5-0.8-3-1.3-5c3.3,0.2,6.2,0.6,9.2,0.6c2.8,0,5.7-0.4,8.5-0.7c1.6,1.4,1,3.2,0.9,4.9C143.9,147.7,141.5,155.9,140.1,164.4
			z"/>
		<path class="st10" d="M16.5,73.6c-3-0.1-4.8-1.4-5.9-4c-0.4-1.1-0.4-2.1,0-3.2C12.4,62,14,57.5,15.7,53
			c3.5-9.2,6.9-18.5,10.6-27.7c1-2.5,2.5-4.8,4-7c0.7-1.1,1.9-1.8,3.3-1.4c1.3,0.3,2.3,1.7,2.4,3.2c0.1,1.5-0.5,2.8-1.3,4
			c-3.3,5.6-6.6,11.3-9.7,17c-1.6,2.9-2.9,6-4,9.2c-1.3,3.5-1.8,7.1-1.7,10.8c0.1,3.2,0,6.4,0,9.6C19.2,73,18.5,73.7,16.5,73.6z"/>
		<path class="st11" d="M96.9,108.2c-1.6,0-3.1,0.1-4.7,0.1c-16.9,0-33.8,0-50.7,0c-3,0-6.1,0-9.1,0.1c-2.1,0.1-3.8-0.7-5-2.3
			c-0.5-0.7-1.2-1.7-1.1-2.5c0.2-1.3,1.5-0.8,2.4-0.8c18.8,0.1,37.6,0.1,56.5,0.2c1.9,0,3.8,0,5.7,0C95,103.2,95.6,102.1,96.9,108.2
			z"/>
		<path class="st12" d="M172.1,108.3c0.4-1.3,0.7-2.2,1.1-3c0.4-0.9,1.1-1.5,2.2-1.4c0.6,0.1,1.3,0,1.9,0
			c20.3,0.1,40.6,0.1,60.8,0.2c0.8,0,1.6,0,2.4,0.1c0.6,0,1,0.9,0.6,1.5c-1.1,1.7-2.5,2.9-4.6,2.9c-0.8,0-1.6,0-2.4,0
			c-18.7,0-37.4-0.1-56-0.1C176.2,108.3,174.4,108.3,172.1,108.3z"/>
		<path class="st10" d="M150.1,150.5c4,0,8,0.1,11.9-0.1c3.8-0.2,7.6-0.6,11.4-1.1c0.5-0.1,1.2-0.6,1.4-1.1c0.5-1.3,0.8-2.7,1.1-4.1
			c0.5-2.7,0.8-5.3,1.2-8c0.1-0.4,0.6-0.7,0.8-1.1c0.5,0.3,1.1,0.6,1.6,1c1.4,1.3,2.8,2.5,4.2,3.8c-0.3,1.7-0.6,3.4-0.9,5.1
			c-0.5,2.7-0.9,5.3-1.4,8c-0.3,1.8-0.7,2.2-2.5,2.2c-9.7,0-19.4,0-29.1,0c-0.3,0-0.6-0.2-0.9-0.3
			C148.7,153.3,149.2,151.9,150.1,150.5z"/>
		<path class="st10" d="M110.7,194.7c-1.8,6.3-0.4,5.7-6.5,5.6c-8.8,0-17.6-0.1-26.3-0.3c-2.7-0.1-5.4-0.3-8.1-0.6
			c-2-0.2-2.9-1.2-3.3-3c-0.2-1.1,0.3-2,1.4-2.1c0.8-0.1,1.6-0.1,2.4-0.1c12.8,0.1,25.5,0.1,38.3,0.2
			C109.1,194.6,109.8,194.7,110.7,194.7z"/>
		<path class="st13" d="M210.4,128.2c-5.7-4.2-11.4-8.5-17-13.4c0.8-0.3,1.2-0.5,1.6-0.5c8-0.1,15.9-0.1,23.9-0.2c0.3,0,0.6,0,1,0
			c1,0.1,1,0.5,0.4,2c-2.2,0-3.4,1.2-4.5,3C213.9,122.2,212.7,125.5,210.4,128.2z"/>
		<path class="st14" d="M53.8,127.5c-3-3.8-4.9-8-6.5-12.4c0.4-0.3,0.7-0.7,0.9-0.7c8.3-0.1,16.6-0.2,24.9-0.2c0.5,0,1,0.4,1.5,0.7
			c-0.5,0.4-0.9,0.7-1.4,1.1c-5.5-0.2-8.8,3.6-12.4,6.8C58.7,124.6,57.5,127.8,53.8,127.5z"/>
		<path class="st15" d="M146.7,161.7c0.1-0.9,0.2-1.7,0.4-2.4c0.2-1.1,0.9-1.7,2-1.7c0.2,0,0.3,0,0.5,0c9.7,0,19.4,0,29.1,0.1
			c1.4,0,1.8,0.4,1.9,1.6c0.1,2-0.3,2.7-1.7,2.8c-0.5,0-1,0-1.4,0c-9.6,0-19.1-0.1-28.7-0.1C148.1,162,147.5,161.8,146.7,161.7z"/>
		<path class="st4" d="M87.6,156.1c-0.1-1.8,0.8-3,2.6-3.4c0.3-0.1,0.6-0.2,0.9-0.2c4.6-0.4,9.1-0.7,13.7-1.1
			c1.7-0.2,3.4-0.6,5.2-0.7c2.7-0.1,5.4-0.1,8.1-0.1c0.6,1.8,1.2,3.5,1.9,5.6c-0.9,0.2-1.5,0.4-2,0.4c-9.4,0-18.7,0.1-28.1,0.1
			C89.1,156.6,88.4,156.2,87.6,156.1z"/>
		<path class="st16" d="M118.2,131.4c3,0.6,4.4,1.8,5.1,4.3c2.1,8.2,4.5,16.2,6.8,24.3c0.2,0.8,0.5,1.5,0.6,2.3
			c0.2,0.8,0.2,1.6-0.7,2c-1,0.5-2.4-0.1-2.8-1.1c-0.1-0.3-0.2-0.6-0.3-0.9c-2.9-9.6-5.7-19.2-8.6-28.8
			C118.2,133.1,118.3,132.4,118.2,131.4z"/>
		<path class="st16" d="M196.8,238.5c3.8-7.4,6.6-15.1,8.6-23.1c0.3-1.4,0.8-2.4,2.4-2.4c2.1-0.1,3.6,0.8,4.2,2.4
			c0.2,0.4,0.2,0.9,0.1,1.4c-0.1,0.4-0.3,0.9-0.6,1.3c-4.2,6-7,12.8-11.5,18.6c-0.8,1-1.5,2-2.3,3.1
			C197,239.8,196.4,239.6,196.8,238.5z"/>
		<path class="st17" d="M140.1,164.4c-1.3-1-0.8-2.3-0.6-3.5c0.7-4.4,1.6-8.7,2.1-13c0.6-4.5,0.9-9.1,1.4-13.6
			c0.1-0.1,0.2-0.3,0.3-0.3c1.9-0.7,3.6-1.9,5.8-1.6c0.9,2.1-0.4,3.9-0.9,5.8c-2.3,7.7-4.6,15.5-6.9,23.2
			C141.1,162.4,140.6,163.3,140.1,164.4z"/>
		<path class="st18" d="M68.3,236.9c-2.5-3.1-4.6-6.4-6.5-10c-1.5-2.8-3.3-5.5-4.9-8.2c-0.8-1.2-1.6-2.5-0.7-4
			c0.9-1.5,2.4-2,4.1-1.9c1.1,0.1,1.8,0.6,2.1,1.6c0.2,0.5,0.2,0.9,0.3,1.4c1.7,6.5,3.9,12.8,6.6,18.9C70,236.1,70,236.9,68.3,236.9
			z"/>
		<path class="st19" d="M185.7,230.8c0,3.1-1.1,5.2-3,6.9c-1.9,1.6-4.1,1.8-6.3,0.8c-2-0.8-3.5-3.5-3.2-5.9c0.3-2.2,1.1-4.3,2.6-6.1
			c2-2.3,4.3-2.5,6.7-0.7C184.5,227.2,185.8,228.9,185.7,230.8z"/>
		<path class="st20" d="M87.9,215.5c2.3-0.1,4.5,0.5,6.5,2c0.7,0.6,1.5,1.3,1.9,2.1c0.3,0.6,0.4,1.7,0.1,2.2
			c-0.3,0.4-1.5,0.6-2.1,0.4c-1-0.3-2-1-3-1.5c-4.6-2.1-9.6-0.6-12.4,3.8c-0.3,0.5-0.6,1.2-1.1,1.5c-0.4,0.3-1.2,0.5-1.7,0.3
			c-0.5-0.2-1-0.8-1.1-1.4c-0.4-1.9,0.6-3.4,1.7-4.8C79.5,217,83.2,215.4,87.9,215.5z"/>
		<path class="st21" d="M88.3,226.2c3.4-0.1,6.7,3.7,6.7,7.4c-0.1,3-3.3,5.8-6.5,5.8c-3.5-0.1-6.4-3-6.3-6.5
			C82.2,229.3,85,226.3,88.3,226.2z"/>
		<path class="st22" d="M127.9,185.1c-1.5,1.6-3.1,3.2-4.6,4.9c-5.6,6.6-8.3,14.1-7.2,22.9c0.1,0.9,0,1.9,0,2.9
			c-5.9-8.6-4.1-24.4,9.5-30.2C126.3,185.2,127.1,185.2,127.9,185.1z"/>
		<path class="st23" d="M222.9,66.1c0-3,0-7.3,0-11.6c0-0.2,0.3-0.5,0.5-0.5c0.3,0,0.7,0.1,0.8,0.3c0.6,1.4,1.4,2.9,1.7,4.4
			c0.5,3,0.7,6,0.8,9c0.1,3.3,0,6.7-0.2,10c-0.1,1.2-0.3,2.5-0.7,3.7c-0.2,0.5-0.9,1-1.4,1.1c-0.8,0.1-1.6-0.4-1.7-1.3
			c-0.2-1.1-0.3-2.2-0.3-3.3C222.5,74.4,222.7,70.9,222.9,66.1z"/>
		<path class="st12" d="M104.6,162c-4.6,0-9.3,0-13.9,0c-0.8,0-1.6,0-2.3-0.3c-0.4-0.2-0.6-1-0.6-1.6c0-0.3,0.4-0.9,0.7-1
			c0.8-0.2,1.6-0.1,2.4-0.1c8.9,0,17.9,0,26.8,0c0.8,0,1.6,0,2.4,0.1c0.9,0.2,1.2,0.9,1.1,1.8c0,0.9-0.7,0.9-1.3,0.9
			c-4.2,0.1-8.3,0.1-12.5,0.1C106.5,162.1,105.5,162,104.6,162z"/>
		<path class="st24" d="M79.8,251.3c4.6,5.1,10,9.3,16.1,12.5c0.8,0.4,1.9,0.6,2,1.8c0.1,1.6-1.6,3.7-3.1,3.8
			c-1,0.1-2.2-0.2-3.2-0.6c-0.8-0.4-1.5-1.2-2.1-1.9c-3.6-4.9-7.1-9.8-10.6-14.6C78.6,251.2,79,251.1,79.8,251.3z"/>
		<path class="st25" d="M188.4,253.1c-3.2,4.5-6.5,9-9.8,13.4c-0.4,0.5-0.8,1-1.3,1.4c-2.4,2.4-6.1,1.7-6.9-1.4
			c-0.1-0.5-0.3-0.9-0.5-1.5c3.1-1.9,6.3-3.6,9.2-5.8c2.9-2.2,5.5-4.8,8.2-7.2C188.3,252,188.8,252.2,188.4,253.1z"/>
		<path class="st26" d="M163.9,228c0.2-2.5,1-4.9,2.7-6.9c2.9-3.4,6.7-5.3,11.1-6.1c1.6-0.3,3.2-0.1,4.4,1.2
			c0.7,0.7,0.5,2.1-0.3,2.4c-1,0.3-2.1,0.6-3.2,0.7c-3,0.2-5.5,1.5-7.8,3.2c-2.4,1.7-3.8,4.2-4.2,7.2c-0.1,0.7-0.4,1.4-1.1,1.1
			c-0.5-0.1-0.9-0.8-1.1-1.3C164,229.1,164.1,228.6,163.9,228z"/>
		<path class="st27" d="M53.8,127.5c2.2-2,4.4-4.1,6.7-6.1c2-1.8,4-3.6,6.1-5.2c2.1-1.6,4.3-1.6,6.6-0.3
			c-5.4,4.3-10.7,8.6-16.1,12.8C55.3,130.2,55.1,130.1,53.8,127.5z"/>
		<path class="st28" d="M210.4,128.2c0.2-1.1,0.3-2.2,0.8-3.1c1.5-2.9,3.1-5.8,4.8-8.7c1-1.6,1.9-1.6,4.3-0.2
			c-1.3,4.2-3.7,8-5.9,11.7C213,130.1,213,130,210.4,128.2z"/>
		<path class="st29" d="M96.3,91c0.3-0.9,0.7-1.7,0.7-2.6c0.1-2.1,0-4.1,0.2-6.2c0.1-0.9,0.5-1.8,0.8-2.7c0,3,0,6,0,9
			c0.1,4.3,0.6,8.5,1.8,12.7c0.2,0.9,0.3,1.8,0.5,3.2C97.8,101.4,96.4,96.4,96.3,91z"/>
		<path class="st30" d="M79.8,251.3c-0.3,0.3-0.5,0.6-0.8,0.8c-3.5-5.1-7.1-10.1-10.6-15.2c1.1-0.3,0.8-1.3,1.1-2.1
			c0.4,0.5,0.8,1,1.1,1.5C73.1,241.7,76.5,246.4,79.8,251.3z"/>
		<path class="st31" d="M223.4,90.9c1.5,0.1,2.6,1.3,2.5,2.8c0,1.4-1.3,2.7-2.7,2.7c-1.5,0-3-1.6-2.8-3.1
			C220.6,92,222,90.9,223.4,90.9z"/>
		<path class="st32" d="M188.4,253.1c-0.3-0.3-0.6-0.6-0.9-0.9c3.1-4.6,6.2-9.1,9.3-13.7c0.3,0.4,0.7,0.8,1,1.2
			C194.7,244.2,191.6,248.7,188.4,253.1z"/>
		<path class="st33" d="M190.2,234.9c0.3,0.6,0.6,1.3,0.9,1.9c-1,3.1-2.8,5.6-5.4,8.6c0.4-1.5,0.4-2.3,0.8-2.9
			C187.7,239.9,189,237.4,190.2,234.9z"/>
		<path class="st34" d="M147.4,205.6c0,1.4-0.4,2.5-1.7,3.1c-5,2.4-10,4.9-15.1,7.2c-2.9,1.3-5.2-0.1-5.3-3.2
			c-0.1-5.4,0.1-10.8,0.4-16.2c0.1-2.6,0.4-2.6,3.7-3.2c6.5,1.3,11.5,5.7,17.1,8.9C147.8,202.8,147.6,204.3,147.4,205.6z"/>
		<path class="st35" d="M147.4,205.6c-0.4-1.9-1.5-2.9-3.2-3.9c-5-2.8-9.9-5.7-14.8-8.5c0.1-0.4,0.2-0.9,0.5-1.2
			c0.1-0.2,0.6-0.2,0.9-0.3c6.1-0.6,11.3,1.4,15.4,5.9c1,1.1,1.7,2.7,2.3,4.1C149.2,203.2,148.7,204.5,147.4,205.6z"/>
		<path class="st36" d="M141.3,223.4c-0.4-0.1-0.8,0-1-0.2c-0.3-0.3-0.6-0.7-0.8-1.1c-0.1-0.2,0.1-0.7,0.4-0.8
			c0.7-0.4,1.4-0.8,2.1-1.1c3.8-1.6,6.9-4,8.9-7.6c0.3-0.6,0.6-1.2,1.1-1.5c0.4-0.3,1.2-0.6,1.6-0.4c0.5,0.2,0.8,0.9,0.9,1.5
			c0.1,0.4-0.1,1-0.2,1.4c-2.3,5.1-6.2,8.4-11.7,9.8C142.2,223.4,141.7,223.4,141.3,223.4z"/>
		<path class="st37" d="M154.7,204.5c-0.4,0.3-0.9,1.2-1.7,1.4c-1.1,0.4-2.1-1.1-2-2.5c0.1-1,0.6-1.8,1.7-1.9
			C153.8,201.3,154.8,202.6,154.7,204.5z"/>
		<path class="st38" d="M84.6,123.6c-1.4,0-2.7-1.4-2.7-2.7c0.1-1.5,1.7-3,3.2-2.8c1.2,0.1,2.3,1.4,2.4,2.5
			C87.6,122.1,86.2,123.6,84.6,123.6z"/>
		<path class="st39" d="M78.9,128.4c0.1,1.5-1,2.8-2.5,2.9c-1.4,0.1-2.6-1.1-2.6-2.7c0-1.4,1-2.5,2.2-2.7
			C77.4,125.7,78.9,126.9,78.9,128.4z"/>
		<path class="st40" d="M67.5,133.8c1.4-0.1,2.6,0.9,2.6,2.2c0.1,1.3-1.1,2.4-2.4,2.4c-1.2,0-2.1-0.8-2.3-2
			C65.2,135,66.1,133.9,67.5,133.8z"/>
		<path class="st41" d="M186.1,121.1c-0.1,1.4-1.6,2.7-2.9,2.5c-1.5-0.2-2.6-1.5-2.6-2.9c0-1.4,1.5-2.7,2.9-2.5
			C184.9,118.3,186.2,119.8,186.1,121.1z"/>
		<path class="st42" d="M191.9,131.3c-1.4,0-2.6-1.2-2.7-2.7c0-1.5,1.3-2.8,2.6-2.7c1.3,0.1,2.3,1.2,2.4,2.5
			C194.4,130,193.3,131.3,191.9,131.3z"/>
		<path class="st43" d="M202.8,136.1c0,1.3-1.1,2.4-2.5,2.3c-1.4-0.1-2.4-1.2-2.3-2.5c0.1-1.1,1.1-2,2.2-2.1
			C201.6,133.7,202.8,134.8,202.8,136.1z"/>
		<path class="st44" d="M179.9,230c1.6-0.1,2.7,0.8,2.9,2.5c0.2,1.8-0.9,3.2-2.6,3.3c-1.5,0.1-2.9-1.1-3-2.5
			C177,231.7,178.4,230.1,179.9,230z"/>
		<path class="st45" d="M87.8,229.1c1.5,0.2,3.1,2.1,3,3.7c-0.1,1.6-1.6,3-3.2,2.8c-1.7-0.3-3-2.1-2.7-3.8
			C85.2,230.2,86.6,228.9,87.8,229.1z"/>
		<path class="st24" d="M129.1,199.1c0.5-0.2,0.7-0.4,0.8-0.3c3.8,2.2,7.7,4.5,11.8,6.8c-3.7,2.4-7.4,4.2-11.1,6
			c-0.6,0.3-1.3,0-1.3-0.8C129.1,206.8,129.2,202.9,129.1,199.1z"/>
	</g>
</g>
</svg>
