<?xml version="1.0" encoding="utf-8"?>
<!-- Generator: Adobe Illustrator 26.3.1, SVG Export Plug-In . SVG Version: 6.00 Build 0)  -->
<svg version="1.1" id="simplemech_xA0_head" xmlns="http://www.w3.org/2000/svg" xmlns:xlink="http://www.w3.org/1999/xlink"
	 x="0px" y="0px" viewBox="0 0 119.8 169.7" style="enable-background:new 0 0 119.8 169.7;" xml:space="preserve">
<style type="text/css">
	.st0{fill:#FFFFFF;}
	.st1{fill:#CDCDCD;}
	.st2{fill:#FEFEFE;}
	.st3{fill:#FDFDFD;}
	.st4{fill:#FC9700;}
	.st5{fill:#F4F7F7;}
	.st6{fill:#F3F3F3;}
	.st7{fill:#312A2A;}
	.st8{fill:#F4F5F5;}
	.st9{fill:#F5F6F6;}
	.st10{fill:#E7ECEC;}
	.st11{fill:#EBECEC;}
	.st12{fill:#F8F9F9;}
	.st13{fill:#DEE1E1;}
	.st14{fill:#F8F8F8;}
	.st15{fill:#EBF0F0;}
	.st16{fill:#E3E9E9;}
	.st17{fill:#DCE4E4;}
	.st18{fill:#373030;}
	.st19{fill:#474747;}
	.st20{fill:#D2D4D4;}
	.st21{fill:#312B2B;}
	.st22{fill:#3D3131;}
	.st23{fill:#B2B8B8;}
	.st24{fill:#F9FEFE;}
	.st25{fill:#B5BBBB;}
	.st26{fill:#AFB2B2;}
	.st27{fill:#4F5959;}
	.st28{fill:#7C8787;}
	.st29{fill:#889191;}
	.st30{fill:#110F0F;}
	.st31{fill:#100D0D;}
	.st32{fill:#101111;}
	.st33{fill:#1C1818;}
	.st34{fill:#1C1713;}
	.st35{fill:#231A10;}
	.st36{fill:#150D00;}
	.st37{fill:#EDF4F4;}
	.st38{fill:#E3EBEB;}
	.st39{fill:#D98300;}
	.st40{fill:#F19200;}
</style>
<g>
	<g>
		<path class="st0" d="M37,19.8c2.7-11.3,9.3-19,21.4-19.7c14.9-0.9,22.8,7.7,25.9,22.2c2.5-2.5,4.4-4.6,6.4-6.6
			c1.2-1.3,2.6-2.4,4.4-2.8c3.1-0.8,6.3,0.9,7.1,4c0.3,1,0.2,2.3-0.1,3.2c-0.6,1.8-1.4,3.6-2.3,5.3c-2.1,4-4.2,7.9-6.3,11.8
			c-0.6,1-0.9,2.1-0.3,3.2c3,5.6,4,11.7,5.6,17.8c0.7,2.6,0.7,2.6,3.6,2.8c2.7,0.1,5.4,0.2,8.1,0.4c4.8,0.3,7.5,2.8,8.6,8.1
			c0.2,1.1,0.2,2.2,0.2,3.3c0,5.8-0.1,11.5,0,17.3c0.1,3.4-0.8,6.3-3.5,8.5c-0.8,0.7-1.2,1.3-0.9,2.4c1.6,5.6,1.6,11.4,2,17.1
			c0.9,11,1.4,22,2.2,33c0.2,3.2,0.7,6.4,0.7,9.5c0,5.3-2.2,7.9-7.5,8.8c-2.3,0.4-4.8,0.5-7.2,0.5c-28.8,0-57.5,0-86.3,0
			c-4,0-8,0-12,0c-3.2,0-5-1.3-6-4.4c-0.5-1.5-0.9-3.1-0.9-4.7c0.1-4.8,0.2-9.6,0.6-14.3c0.6-7.3,1.3-14.6,2.1-21.9
			c0.7-6.3,1.7-12.7,2.5-19c0.2-1.3,0.3-2.5,0.5-3.8c0.3-1.3-0.1-2.1-1.1-2.9C1.3,96-0.1,92.5,0,88.2c0.1-5.3,0.1-10.5,0.2-15.8
			c0-1.6,0.3-3.2,0.9-4.7c1.3-3.2,3.7-5.2,7.2-5.4c3.4-0.1,6.7-0.1,10.1-0.1c1.4,0,2-0.6,2.3-1.8c0.7-2.9,1.4-5.9,2.2-8.8
			c1.2-4.6,2.5-9.2,5.2-13.3c0.9-1.3,0.5-2.3-0.1-3.5c-2-3.6-3.9-7.3-5.8-11c-0.6-1.3-1.3-2.6-1.7-4c-1.2-4.3,2.3-7.7,6.9-7.1
			c2,0.3,3.4,1.6,4.8,3c1.3,1.4,2.7,2.7,4.1,4C36.5,19.8,36.7,19.8,37,19.8z"/>
		<path d="M101,96.1c0,0.8,0,1.5,0.1,2.1c0.5,2.4,0.6,2.5,3.2,2.6c5.4,0.2,6,0.7,6.6,6c0.5,4.8,0.9,9.5,1.3,14.3
			c0.7,10,1.3,20.1,2,30.1c0.2,2.7,0.7,5.4,0.8,8.1c0.2,4.7-0.7,5.5-5.5,5.7c-2.1,0.1-4.2,0.1-6.2,0.1c-28.8,0-57.5,0-86.3,0
			c-3.2,0-6.4-0.2-9.6-0.1c-1.4,0-2.1-0.8-2.3-2c-0.3-1.4-0.4-2.9-0.3-4.3c0.4-6.5,0.7-13.1,1.3-19.6c0.7-7.3,1.5-14.6,2.4-21.9
			c0.6-4.6,1.3-9.2,2.1-13.7c0.3-2,1.1-2.6,3.3-2.7c1-0.1,1.9,0,2.9,0c1.7-0.1,3.2-2.8,2.2-4.3c-0.2-0.3-0.8-0.6-1.2-0.6
			c-2.6-0.1-5.1-0.1-7.7-0.1c-2.2,0-3.6-1.2-4.3-3.1C5.3,91.4,5,90.1,5,88.9c0-5.1,0.1-10.2,0.1-15.3c0-0.5,0.1-1,0.1-1.4
			c0.5-3.6,1.5-4.7,5.3-4.8c3-0.1,6.1,0,9.1,0c1.4,0,3.2,0.5,4.1-0.2c0.9-0.7,1-2.5,1.3-3.9c0.7-2.9,1.4-5.9,2.1-8.8
			c1.3-5.5,3.1-10.8,6.5-15.3c0.9-1.3,0.7-2.3,0-3.5c-2.1-3.9-4.2-7.9-6.2-11.9c-0.4-0.8-1-1.7-1.3-2.6c-0.3-0.9-1.7-2-0.2-2.8
			c1.2-0.7,2.1,0.5,2.8,1.3c3,3.1,5.9,6.3,8.8,9.5c0.9,0.9,1.7,1.9,2.7,2.7c0.2,0.2,0.9,0.2,1.3,0c0.4-0.2,0.7-0.7,0.7-1.1
			c0-0.8-0.2-1.6-0.2-2.4c-0.1-2.1-0.2-4.1-0.2-6.2C42.2,13.2,50,5.5,59,5c7-0.4,12.8,2.5,16.7,8.5c3.1,4.8,4.5,10.2,3.1,16
			c-0.2,0.6-0.4,1.4-0.2,1.9c0.3,0.7,0.9,1.3,1.6,1.6c0.4,0.2,1.3,0,1.6-0.4c1.3-1.2,2.4-2.6,3.6-3.9c2.8-3.1,5.6-6.1,8.5-9.1
			c0.5-0.6,1.2-1,1.9-1.4c0.3-0.2,0.9,0.1,1.3,0.3c0.2,0.1,0.3,0.6,0.2,0.8c-0.4,1-0.8,2.1-1.4,3.1c-2.5,4.8-5,9.6-7.6,14.4
			c-1,1.8-1.3,3.2-0.1,5.3c3,5,4.2,10.7,5.5,16.3c0.4,1.9,0.8,3.7,1.2,5.6c0.5,1.9,0.7,2.1,2.6,2.2c3.2,0.1,6.4,0.1,9.6,0.1
			c5.7,0.1,7.1,1.4,7.1,7.1c0,5.6,0,11.2,0,16.8c0,0.5,0,1,0,1.4c-0.2,2.8-1.4,4.1-4.2,4.2c-1.9,0.1-3.8,0-5.8,0.1
			C103.3,95.8,102.2,96,101,96.1z"/>
		<path class="st1" d="M26.7,118.8c-0.5,0-1,0-1.4,0c-1.6,0.1-2.3,0.6-2,1.2c0.4,1,1.3,0.7,2,0.7c1.3,0.1,2.5,0,3.8,0
			c20.4,0,40.7,0,61.1,0c1,0,1.9,0.1,2.9,0c1-0.1,2.5,0.6,2.6-1.1c0-1.2-1.6-0.6-2.2-1.3c-0.1-0.1-0.2-0.3-0.3-0.4
			c2.1-3.8,4.5-7.5,8.4-9.8l0.1-0.1c0.4-0.2,0.6-0.4,0.7-0.8c0.2-0.2,0.5-0.5,0.7-0.6c1.5-1,2.1-0.8,2.3,0.7c0.3,4,0.6,8,1,11.9
			c0.8,7.8,1.7,15.6,2.5,23.3c0.6,5.4,1.1,10.8,1.7,16.4c-1.1,0.1-2,0.3-3,0.3c-31.8,0-63.6,0-95.4,0c-0.5,0-1,0-1.4,0
			c-1,0-1.4-0.7-1.3-1.6c0.2-2.2,0.3-4.5,0.5-6.7c1.5-12.5,3-25.1,4.5-37.6c0.3-2.2,0.5-4.4,0.9-6.6c0.2-1.2,1.2-0.7,1.9-0.4
			C21.4,109.8,25.6,113.1,26.7,118.8z"/>
		<path class="st2" d="M59.3,115.9c-2.7,0-5.4,0-8.1-0.1c-0.4,0-0.9-0.7-1.3-1.1c-0.1-0.1-0.1-0.3-0.1-0.5c-0.1-2.5,0.4-5.3-0.3-7.6
			c-1.1-3.4-3-6.7-4.9-9.7c-2.8-4.5-4.3-9.1-3.8-14.4c0.3-3.2,0.2-6.4,0-9.5c-0.2-2.4,0.9-3.9,2.6-5.3c0.7-0.6,1.4-0.7,2.2-0.3
			c2.3,1.1,4.6,2.3,6.8,3.5c0.7,0.4,1.4,0.9,1.8,1.5c1.6,2.7,3.2,5.5,4.6,8.3c0.5,0.9,0.3,2.2,0.3,3.3c0.2,5.9,0.3,11.8,0.5,17.7
			C61.1,106.4,61.8,111.2,59.3,115.9z"/>
		<path class="st3" d="M79.4,69.2c0,6.5-0.1,13-0.1,19.5c0,2.1-0.4,4.1-1.5,5.9c-1.4,2.3-2.6,4.8-4.2,6.9c-2.3,3-3.5,6.2-3.3,10.1
			c0.2,4.7,0.2,4.3-4.4,4.3c-1.4,0-2.9-0.1-4.3-0.1c-2-4.4-1.5-8.8-0.3-13.3c0.2-6,0.5-12.1,0.7-18.1c0.1-1.6-0.1-3.1,1.8-4.1
			c0.7-0.4,1.2-1.4,1.7-2.3c1-1.6,1.9-3.3,2.8-5c1.1-2.2,2.5-4,4.7-5.2C76,64.5,77,64.7,79.4,69.2z"/>
		<path class="st4" d="M46.7,23.8c-0.1-4.2,1.3-7.6,4.3-10.4c4.4-3.9,9.2-4.7,14.7-2.6c7.9,3.1,13.1,16.8,4,24.2
			c-1,0.8-1.8,2.3-3.5,1.7c0.4-1.2,0.6-2.4,1.1-3.5c0.7-1.6,1.6-3.1,2.3-4.7c0.5-1.1-0.2-2.3-1.4-2.6c-1.3-0.4-3.1,0.5-2.9,1.6
			c0.7,3.3-1.3,5.8-2.5,8.5c-0.7,1.7-2.4,1.9-3.4,0.5c-1.1-1.5-2-3.2-3.1-4.8c-0.8-1.1,0.2-2.2-0.2-3.2C56,28,55.3,27.2,54.7,27
			c-0.6-0.2-1.6,0.2-2.1,0.6c-0.5,0.5-0.9,1.6-0.7,2.1c1,2,2.3,3.8,3.4,5.7c0.1,0.2,0,0.6-0.1,0.8c-0.2,0.2-0.5,0.1-0.8,0.1
			c-0.1,0-0.3-0.1-0.4-0.2C49.2,33.3,46.2,29.5,46.7,23.8z"/>
		<path class="st5" d="M62.3,59.4c4.3-4.9,8.7-9.8,13-14.7c1.9-2.2,3.7-4.4,5.7-6.5c0.4-0.4,1-0.6,1.5-1c1,1.3,0.4,2.5-0.4,3.5
			C76.2,49.3,70.2,57.8,64,66c-1.4,1.8-3.2,2.3-4.8,0.2c-6.9-8.9-14-17.8-19.4-27.7c0.1-0.8,0.3-1.4,1.3-1.1
			c5.1,5.9,10.2,11.8,15.3,17.6c1.1,1.3,2.5,2.4,3.7,3.6C61.3,57.7,60.3,62.6,62.3,59.4z"/>
		<path class="st6" d="M80.3,51.5c0.9-2,2-3.9,3.5-6.2c0.6,1.2,1.2,2,1.4,2.8c5,15.6,9.3,31.4,12.2,47.6c0.1,0.8,0.2,1.6,0.3,2.4
			c0.5,2.2-0.3,3.7-2.6,4.6c-0.6-2.5-0.9-5-1.3-7.4c-1.7-12-3.8-23.9-7.7-35.4c-0.8-2.2-1.9-4.4-2.9-6.5c-0.3-0.7-1-1.3-1.9-0.7
			C80.5,52.8,80.1,52.5,80.3,51.5z"/>
		<path class="st7" d="M40.3,38.2C47,48,54,57.6,61.2,67.3c0.6-0.5,1-0.7,1.3-1.1c6.5-9,13-18.1,19.5-27.2c0.3-0.5,0.4-1.1,0.5-1.7
			c0,0-0.1,0.1-0.1,0.1c0.2-0.3,0.5-0.4,0.8-0.3c0.3,0.2,0.3,0.5,0.3,0.9c0.2,0.7,0.8,1.5,0.6,2c-0.6,1.5-1.6,2.8-2.4,4.2
			c-0.8-0.1-0.7,0.6-1.1,1l0.1-0.1c-3.1,3.8-5.3,8.1-8.2,12c-2.3,4-5.4,7.4-8,11.2c-1.9,2.8-3.9,2.3-5.8,0.1
			c-3.5-4.1-6.7-8.4-9.4-13.1C46.9,52.3,45.2,49,43,46l0.1,0.1c-0.5-0.8-0.9-1.7-1.9-2c-1.5-1.1-2-2.9-2.5-4.5
			c-0.1-0.3,0.6-0.9,1-1.4C39.9,37.8,40.1,37.8,40.3,38.2z"/>
		<path class="st8" d="M49.6,54.7c3.8,5,7.6,10,11.2,14.7c0.6,0.1,0.8,0.2,0.9,0.1c0.1,0,0.3-0.2,0.4-0.3c3.3-4.3,6.5-8.5,9.8-12.8
			c0.9-0.1,1.4,0.2,1.2,1.2c-3.1,5.7-6.3,11.3-9.4,17c-0.1,0.3-0.5,0.4-0.9,0.8c-0.3-1.1-0.6-2-0.9-3.1c-0.6,1.3-1.2,2.4-1.9,3.9
			c-3.6-6.5-6.9-12.6-10.3-18.7c-0.2-0.4-0.4-0.8-0.7-1.1c-0.2-0.2-0.3-0.4-0.3-0.7C48.3,54.9,48.8,54.7,49.6,54.7z"/>
		<path class="st9" d="M96.8,72c4.6,0,8.9,0,13,0c0.3,0.4,0.6,0.6,0.6,0.9c0.2,7.9,1.3,7.2-6.8,7.3c-1.7,0-3.5-0.2-5.2-0.4
			c-0.5-1.6-1-3.3-1.4-4.9C97,74.1,96.9,73.3,96.8,72z"/>
		<path class="st10" d="M61.6,50.1c-3.6,0.1-6.8-0.8-8.8-3.9c-2-2.9-4.4-5.4-6.7-8c-0.4-0.5-0.7-1-1-1.6c-0.1-0.1,0-0.4,0.1-0.4
			c0.2-0.2,0.5-0.4,0.7-0.3c0.5,0.3,1,0.7,1.5,1.1c1.5,1.1,3,2.4,4.7,3.3c1.9,1,2.8,2.1,2.8,4.4c0,2,1.1,2.9,3,3
			c2.5,0.1,5.1,0,7.7-0.1c1.7-0.1,2.4-0.9,2.6-2.8c0.1-0.6,0.1-1.3,0.1-1.9c0-0.8,0.3-1.5,1-2c1.9-1.4,3.8-2.8,5.8-4.2
			c0.3-0.2,0.9-0.1,1.3,0.1c0.6,0.4,0.8,1,0.4,1.6c-2.6,3.2-5.2,6.5-8,9.5c-0.8,0.9-2.1,1.4-3.3,1.8C64.2,50,62.9,50,61.6,50.1z"/>
		<path class="st11" d="M16.2,80.2c-0.2,0-0.3,0-0.5,0c-1.7-0.2-3.5,0.4-5.1-0.7c-0.1-2-0.3-4.1-0.3-6.1c0-0.4,0.8-1.1,1.3-1.1
			c3.5-0.1,7-0.1,10.5,0c0.3,0,0.6,0.6,0.9,0.9c0.1,0.1,0,0.3,0,0.5C22.9,79.8,22.5,80.2,16.2,80.2z"/>
		<path class="st12" d="M98.5,82.3c2.4,0,4.2-0.1,5.9,0c1.9,0.1,3.8,0.3,5.7,0.4c1.1,2.3,0.4,4.7,0.4,7c0,0.4-0.7,1-1.2,1.2
			c-0.6,0.2-1.3,0.1-1.9,0.1c-2.4-0.1-4.8-0.2-7.1-0.3C99,88.2,99,85.5,98.5,82.3z"/>
		<path class="st13" d="M40.1,93.9c-1.9-1.3-2.9-2.6-2.9-4.7c0-7.2,0-14.3-0.1-21.5c0-0.9,0.2-1.5,0.9-2c1.5-1.4,3-2.8,4.8-4.4
			c2.5,1.4,5,2.8,7.4,4.2c0.3,0.2,0.7,0.9,0.6,1.2c-0.3,0.8-1,0.5-1.5,0.3c-1.3-0.5-2.6-1.2-4-1.6c-0.9-0.3-1.9-0.2-2.6,0.5
			c-0.8,0.8-1.6,1.6-2.4,2.3c-0.7,0.7-1,1.5-1,2.6c0,6.2,0,12.4,0,18.6C39.3,90.8,39.8,92.2,40.1,93.9z"/>
		<path class="st14" d="M21.6,82.5c-0.5,2.9-0.9,5.5-1.4,8.3C19,90.9,18,91,16.9,91c-7.3,0-7.4-0.1-6.6-7.2c0.1-0.5,0.6-1.2,1-1.3
			C14.7,82.2,18,82.2,21.6,82.5z"/>
		<path class="st15" d="M72.9,64.3c1.4-1,2.8-2,4.1-2.9c0.4,0.2,0.6,0.3,0.7,0.4c1.7,1.5,3.9,2.7,4.8,4.6c0.8,1.8,0.3,4.3,0.3,6.5
			c0,5.3,0,10.5,0,15.8c0,0.9-0.3,1.8-0.5,2.7c0,0.1-0.3,0.4-0.3,0.3c-0.2-0.2-0.7-0.3-0.7-0.5c-0.1-0.9-0.1-1.9-0.1-2.9
			c0-5.8,0-11.5,0-17.3c0-1.1,0.3-2.3-0.7-3.1C78.7,65.5,75.2,66,72.9,64.3z"/>
		<path class="st16" d="M19.1,105.5c1.3-0.4,2.3-0.2,3.3,0.9c2.3,2.8,4.8,5.4,7.2,8.1c1.1,1.2,1.1,1.3-0.8,2.7
			C24.1,114.5,20.5,111,19.1,105.5z"/>
		<path class="st17" d="M92.1,117c-0.3,0-0.7,0.1-0.9,0c-1.4-0.6-1.7-1.1-0.9-2c1.9-2.2,3.8-4.3,5.7-6.4c0.8-0.9,1.7-1.9,2.5-2.8
			c0.7-0.7,1.5-0.3,2.2-0.2c0.2,0.3,0.3,0.6,0.2,0.9c-0.2,0.2-0.4,0.4-0.4,0.7C98.4,111,96.2,114.8,92.1,117z"/>
		<path class="st18" d="M19.1,105.5c0.1,0.4,0.1,1,0.4,1.3c3.1,3.5,6.2,6.9,9.3,10.4c-0.4,0.9-1,1.6-2.1,1.6c-1.9-2.5-3.9-5-5.8-7.5
			c-1.2-1.6-2.4-3.3-3.7-4.9C17.9,106.2,18.5,105.8,19.1,105.5z"/>
		<path class="st19" d="M61.3,102.5c0.1,4.4,0.2,8.9,0.3,13.3c-0.8,0-1.5,0-2.3,0c0.1-3.3,0.2-6.7,0.2-10c0-1.4,0.1-2.8,0.1-4.3
			C60.1,101.9,60.7,102.2,61.3,102.5z"/>
		<path class="st20" d="M33.1,54.2c0.5-4,1.8-7.7,4.2-11c2.3,2.4,2.3,2.4,1,4.1C36.6,49.7,34.8,52,33.1,54.2z"/>
		<path class="st21" d="M92.1,117c2.8-3.3,5.6-6.5,8.4-9.8c0.3,0.4,0.7,0.8,1,1.1c-2.4,3.6-5.2,6.9-8.4,9.8
			C92.8,117.7,92.4,117.3,92.1,117z"/>
		<path class="st22" d="M72.9,64.3c0.3,0.3,0.7,0.8,0.9,0.7c0.6-0.1,1.1-0.5,1.6-0.9c1.1-0.7,2-0.7,2.8,0.4c0.8,1.1,1.5,2.3,2.3,3.5
			c-0.4,0.4-0.8,0.7-1.1,1.1c-0.1-0.1-0.3-0.1-0.4-0.2c-1-0.9-1.8-2.3-3-2.6c-0.9-0.2-2.1,0.9-3.2,1.5
			C71.5,65.7,71.5,65.7,72.9,64.3z"/>
		<path class="st23" d="M73.1,57.7c-0.4-0.4-0.8-0.8-1.2-1.2c2.6-3.8,5.2-7.5,7.9-11.3c0.1-0.2,0.5-0.2,0.8-0.3
			c-0.3,0.7-0.4,1.5-0.8,2.1C77.6,50.7,75.3,54.2,73.1,57.7z"/>
		<path class="st24" d="M60.7,43.6c0,0-0.3,0-0.6,0c-1.4,0-2.4-1.7-1.6-3c0.2-0.3,0.7-0.7,1.1-0.7c1.3,0,2.5,0,3.8,0.1
			c1,0.1,1.2,0.8,1.2,1.6c0,0.9-0.2,1.6-1.2,1.7C62.6,43.5,61.8,43.5,60.7,43.6z"/>
		<path class="st25" d="M49.6,54.7c-0.3,0.4-0.7,0.7-1,1.1c-1.9-3-3.8-6-5.7-9c-0.1-0.2,0-0.6,0.1-0.9c1.5,0.5,1.9,1.9,2.7,3
			C47.1,50.8,48.4,52.8,49.6,54.7z"/>
		<path class="st26" d="M80.3,51.5c0.4,0.4,0.7,0.8,1.1,1.2c-1.3,1.8-2.5,3.6-3.8,5.4c-0.1,0.2-0.6,0.3-0.8,0.2
			c-0.2-0.1-0.3-0.6-0.2-0.8C77.9,55.5,79.1,53.5,80.3,51.5z"/>
		<path class="st27" d="M62.3,59.4c0,1.2,0,2.4,0,4.6c-0.9-1.3-1.4-1.7-1.5-2.2c-0.3-1-0.4-2.1-0.6-3.2
			C60.9,58.9,61.6,59.2,62.3,59.4z"/>
		<path class="st28" d="M82.5,36.5c1-1.3,2-2.6,3.1-4c0.9,1.1,0.3,1.7-0.1,2.3c-0.7,1.1-1.4,2.1-2.1,3.1c-0.2-0.2-0.3-0.5-0.1-0.7
			C83,37,82.7,36.8,82.5,36.5z"/>
		<path class="st29" d="M40.3,38.2l-0.3,0c0,0-0.3,0-0.3,0c-0.8-1.5-1.6-3-2.5-4.5l0.3-0.3c1.7,0.9,2.9,2.3,3.7,4
			C40.8,37.7,40.6,38,40.3,38.2z"/>
		<path class="st25" d="M41.2,44.1c0.2-0.1,0.5-0.3,0.7-0.4c0.4,0.8,0.8,1.6,1.2,2.4C41.7,46.1,41.9,44.7,41.2,44.1z"/>
		<path class="st23" d="M80.5,45.1c0.1-1.5,0.1-1.5,1.1-1C81.2,44.4,80.9,44.8,80.5,45.1z"/>
		<path class="st21" d="M100.9,106.5c-0.1-0.3-0.1-0.6-0.2-0.9C101.6,105.8,101.6,105.8,100.9,106.5z"/>
		<path class="st5" d="M82.5,36.5c0.3,0.2,0.5,0.4,0.8,0.6c-0.3,0.1-0.6,0.2-1,0.2C82.4,37.1,82.5,36.8,82.5,36.5z"/>
		<path class="st21" d="M102.3,107.4c-0.2,0.3-0.5,0.5-0.7,0.8C101.9,107.9,102.1,107.6,102.3,107.4z"/>
		<path class="st29" d="M37.2,33.7c-0.2-0.3-0.3-0.6-0.5-0.9c0.2,0.2,0.5,0.4,0.8,0.6C37.4,33.4,37.2,33.7,37.2,33.7z"/>
		<path class="st25" d="M49,56.5c0.2,0.4,0.5,0.7,0.7,1.1C49.5,57.3,49.2,56.9,49,56.5z"/>
		<path class="st30" d="M22.3,144.7c1.6-0.2,3.1,0,4.1,1.6c1,1.8,1.3,3.6,0.4,5.5c-0.8,1.7-2.1,2.8-3.8,3.4c-3.4,1.1-7-1.9-6.4-5.4
			C17,146.5,19.3,144,22.3,144.7z"/>
		<path class="st31" d="M35.7,144.7c3,0,4.7,1.6,4.8,4.6c0.1,2.9-2.1,5.6-5,6c-3.2,0.5-6-2.1-5.8-5.3
			C30,146.6,32.2,144.7,35.7,144.7z"/>
		<path class="st32" d="M100,145.8c-0.4-3.8-0.8-7.6-1.2-11.4c-0.2-2.2,0.3-3.7,1.3-3.5c1.7,0.3,1.7,1.7,1.8,3
			c0.3,4,0.6,7.9,0.8,11.9c0.1,1.1,0,2.3-0.5,3.3c-0.7,1.3,0,3.4-2.2,3.7c-1-1.2-0.3-2.7-0.5-4c-0.1-0.9,0-1.9,0-2.9
			C99.8,145.8,99.9,145.8,100,145.8z"/>
		<path class="st33" d="M92.9,146.2c0.2-1.2,0.3-2.2,0.6-3c0.2-0.5,0.9-1,1.4-1c0.5,0,1.3,0.5,1.5,0.9c0.7,2.2,0.7,4.4-1,6.2
			c-0.4,0.4-1.4,0.4-1.6-0.2C93.5,148.1,93.2,147.1,92.9,146.2z"/>
		<path class="st34" d="M50.6,86.4c0,1.7,0.1,3.5,0,5.2c-0.2,1.6-1.7,2.9-3.2,3c-1.5,0.1-3.2-0.9-3.8-2.3c-0.2-0.6-0.4-1.2-0.4-1.8
			c0-2.9-0.1-5.7,0-8.6c0.1-2.1,1.7-3.6,3.6-3.7c1.9-0.1,3.5,1.3,3.9,3.5c0.1,0.3,0.1,0.6,0.1,0.9c0,1.3,0,2.5,0,3.8
			C50.7,86.4,50.6,86.4,50.6,86.4z"/>
		<path class="st35" d="M76.9,86.6c0,1.4,0.1,2.9,0,4.3c-0.2,2.2-1.6,3.6-3.6,3.8c-1.9,0.1-3.6-1.2-3.7-3.5
			c-0.1-3.3-0.2-6.7,0.1-9.9c0.3-2.8,3.6-4,5.8-2.2c0.7,0.5,1.2,1.5,1.3,2.4C77,83.1,76.9,84.8,76.9,86.6
			C76.9,86.6,76.9,86.6,76.9,86.6z"/>
		<path class="st36" d="M55.3,20.6c0.2-1.5,0.4-3,0.6-4.6c0.1-0.8,0.3-1.8,1.3-1.7c0.7,0,1.3,0.7,2,1c0.1,0.1,0.2,0.3,0.3,0.4
			c0.7,0.8,0.8,2.4,2.1,2.3c0.8-0.1,1.4-1.2,2.2-1.7c1.4-1,2.9-0.5,3.2,1.3c0.2,1.8,0.9,2.4,2.6,2.5c1.4,0.1,2,1.1,1.7,2.3
			c-0.1,0.4-0.6,1-0.8,1c-1.5-0.1-3.1-0.4-4.6-0.7c-0.3-0.1-0.6-0.3-0.7-0.6c-0.7-1.5-1.4-1.8-2.8-0.6c-1.3,1.1-2.2,0-3.1-1
			c-0.7-0.9-1.2-0.7-1.5,0.4c-0.5,1.8-1,3.5-3.5,2.7c-0.3-0.1-0.8,0.3-1.2,0.5c-1.4,0.8-1.9,0.6-2.2-0.7c-0.5-2.4,0.3-3.1,2.8-2.7
			c0.3,0,0.6,0.1,0.9,0.1C54.7,20.8,54.9,20.7,55.3,20.6z"/>
		<path class="st37" d="M24.4,148.7c-0.3,0.9-0.5,1.7-0.8,2.3c-0.6,0.9-2.1,1.2-2.9,0.7c-1-0.6-1.1-1.5-0.8-2.5
			c0.1-0.6,0.5-1.2,0.9-1.6c0.6-0.8,1.5-1.3,2.4-0.7C23.7,147.2,24,148,24.4,148.7z"/>
		<path class="st38" d="M32.6,150.2c0.3-0.9,0.5-1.5,0.8-2c0.7-1.1,1.8-1.8,2.7-1.6c1,0.3,1.7,1.9,1.3,3.2c-0.4,1.3-1.6,2.4-2.8,2
			C33.9,151.6,33.3,150.8,32.6,150.2z"/>
		<path class="st39" d="M45.3,86.4c0-1.4-0.1-2.9,0-4.3c0.1-0.8,0.6-1.5,1.6-1.4c0.9,0,1.5,0.7,1.5,1.5c0.1,2.9,0.1,5.7,0,8.6
			c0,0.8-0.6,1.5-1.6,1.4c-0.9-0.1-1.5-0.7-1.5-1.5C45.2,89.3,45.3,87.9,45.3,86.4C45.3,86.4,45.3,86.4,45.3,86.4z"/>
		<path class="st40" d="M74.6,86.2c0,1.6,0,3.2,0,4.7c0,0.8-1,1.5-1.7,1.2c-0.5-0.2-1-0.8-1-1.3c-0.1-2.8-0.1-5.7,0-8.5
			c0-0.3,0.1-0.7,0.3-0.9c0.3-0.3,0.8-0.7,1.1-0.6c0.4,0,1,0.4,1.1,0.7c0.3,1.5,0.4,3.1,0.5,4.7C74.8,86.2,74.7,86.2,74.6,86.2z"/>
	</g>
</g>
</svg>
