<?xml version="1.0" encoding="utf-8"?>
<!-- Generator: Adobe Illustrator 26.3.1, SVG Export Plug-In . SVG Version: 6.00 Build 0)  -->
<svg version="1.1" id="simplemech_xA0_leg1" xmlns="http://www.w3.org/2000/svg" xmlns:xlink="http://www.w3.org/1999/xlink"
	 x="0px" y="0px" viewBox="0 0 120 382.7" style="enable-background:new 0 0 120 382.7;" xml:space="preserve">
<style type="text/css">
	.st0{fill:#FFFFFF;}
	.st1{fill:#FF9900;}
	.st2{fill:#CDCDCD;}
	.st3{fill:#FD9801;}
	.st4{fill:#CCCCCC;}
	.st5{fill:#FBFCFC;}
	.st6{fill:#FCFDFD;}
	.st7{fill:#FBFBFB;}
	.st8{fill:#F9FCFA;}
	.st9{fill:#F7F7F7;}
	.st10{fill:#F8FAFA;}
	.st11{fill:#FAFBFB;}
	.st12{fill:#F4F4F4;}
	.st13{fill:#CBC9C9;}
	.st14{fill:#B5B7B7;}
	.st15{fill:#F3F4F4;}
	.st16{fill:#F4F5F5;}
	.st17{fill:#FA9705;}
	.st18{fill:#F6FAFA;}
	.st19{fill:#F7F6F2;}
	.st20{fill:#E48E0B;}
	.st21{fill:#E58E0A;}
	.st22{fill:#F9FCFC;}
	.st23{fill:#E89013;}
	.st24{fill:#EDEFEF;}
	.st25{fill:#F2EDE4;}
	.st26{fill:#F5F9F9;}
	.st27{fill:#F0F1EE;}
	.st28{fill:#F99702;}
	.st29{fill:#F39708;}
	.st30{fill:#D5870F;}
	.st31{fill:#F2EFE9;}
	.st32{fill:#F2ECE0;}
	.st33{fill:#F2ECE1;}
	.st34{fill:#A9A7A7;}
	.st35{fill:#0A0909;}
	.st36{fill:#1B1B1B;}
	.st37{fill:#020201;}
	.st38{fill:#0B0A08;}
	.st39{fill:#090603;}
	.st40{fill:#F0F7F2;}
	.st41{fill:#F9FBFB;}
	.st42{fill:#FAFCFC;}
	.st43{fill:#E4E6E6;}
	.st44{fill:#FFFEFE;}
	.st45{fill:#140B0B;}
	.st46{fill:#1B1919;}
</style>
<g>
	<g>
		<path class="st0" d="M62.7,382.6c-9.8,0.4-19.5-0.8-28.9-3.7c-4.4-1.3-7.9-3.6-11-7.2c-5-5.7-4.5-11.5-1.6-17.3
			c0.6-1.1,1.3-2.2,1.7-3.3c0.4-1-0.2-2-1.3-2.1c-4.8-0.5-7.8-3.3-10.1-7.2c-0.4-0.8-1-1.1-1.8-1.3c-2.5-0.3-4.4-1.6-6.3-3.2
			c-2.4-2-3.4-4.6-3.5-7.5c-0.1-3.7-0.1-7.4,0-11c0.1-2.6,0.7-5,2.3-7.2c1.5-2,3.2-3.6,5.7-4c1.9-0.3,3-1.1,3.6-3.2
			c0.6-2.1,2-4.2,4.1-5.1c2.5-0.9,2.3-2.6,2.1-4.5c-0.5-4.3-0.9-8.6-1.3-12.9c-0.9-8.9-1-17.9-0.5-26.8c0.3-7,1.6-14,3.8-20.7
			c1.2-3.7,2.9-7.1,5.4-10c0.9-1.1,1.3-2,1.1-3.4c-0.3-2.5-0.5-5.1-0.6-7.6c-0.1-1.1-0.4-1.9-1.6-2.1c-4.3-0.6-6.1-3.9-7.3-7.4
			c-0.7-2.1-1.8-3.6-4-4.2c-4.1-1.3-5.7-4.4-5.7-8.5c0-4,0-8,0.2-12c0.2-4.4,2.6-7.3,7-8.5c1.8-0.5,2.7-1.3,3-3.1
			c0.9-5.3,4.9-7.4,9.2-7.4c0.8,0,1.6,0,2.4-0.2c0.4-0.1,0.7-0.5,0.9-0.9c0.1-0.2,0.1-0.6,0.1-0.9c0-5,0-9.9,0-14.9
			c-0.1-9.6-0.4-19.2-0.5-28.7c0-2.6,0-5.1,0-7.7c-0.1-5.1,1-9.8,4.3-13.9c0.9-1.1,1.3-2.1,0.8-3.5c-0.6-1.6-0.2-3.2,0.4-4.7
			c0.5-1.4,0.6-2.8,0.1-4.2c-1.5-3.6-0.5-7,1.5-10c1.3-2,1.7-4,1.7-6.3c0-8.5,0-16.9,0-25.4c0-3.9,0.5-7.7,2.2-11.2
			c0.5-1,0.4-1.7-0.2-2.6c-1.7-2.7-3.4-5.4-4.2-8.5C33.9,9,39.3,0.9,47.3,0.1c4.9-0.5,9.1,0.8,12.1,5.1c4.6,6.5,9.4,12.9,14,19.4
			c8.1,11.5,16.1,23,24.2,34.5c1.6,2.4,3.3,4.7,5,7c5.1,7.1,2.7,16-5.3,19.6c-0.7,0.3-1.5,0.5-2.3,0.7c-2.4,0.7-3.2,3.2-1.6,5.1
			c1.8,2.1,3.5,4.2,4.5,6.7c1.2,3,1.7,6.1,1.7,9.3c0,27.2,0.1,54.3,0.2,81.5c0,2.3,0.3,4.3,1.5,6.4c4.2,7.5,5.7,15.6,4.7,24
			c-0.2,1.7-0.1,3,1,4.4c4.7,6.1,6.9,13.3,7.9,20.8c0.8,5.8,1.2,11.8,1.2,17.7c0.1,11.3,0.1,22.7-0.4,34c-0.5,10.3-1,20.8-4.3,30.7
			c-0.4,1.2-0.2,2.1,0.4,3.1c1.3,2.5,2.7,5.1,3.7,7.8c1.2,3.2,1.7,6.5,1.5,9.9c-0.1,2.3,0.1,4.3,1.2,6.4c1.3,2.6,1.7,5.4,1.8,8.4
			c0.1,4.4-1.9,7.6-5.5,10c-3,1.9-6.3,3.3-9.7,4.1c-8.1,1.9-16.3,3.3-24.5,4.1C74.4,381.5,68.5,382,62.7,382.6z"/>
		<path d="M41.1,93.5c-1.8-3.2-2.1-6.3-0.6-9.4c0.3-0.6,0.3-1.6,0-2.2c-1.9-3.8-1.5-7,1.5-10.1c0.6-0.6,0.9-1.7,0.9-2.6
			c0.1-2.1,0.1-4.2,0.1-6.2c0-8,0-16,0-24c0-3.8,0.5-7.4,2.9-10.4c1-1.3,0.7-2.3-0.1-3.4c-1.1-1.6-2.2-3.1-3.2-4.8
			c-0.8-1.4-1.4-2.8-1.9-4.4C39,9.9,44.5,3.9,50.7,5.2c2,0.4,3.5,1.5,4.7,3.1c3.1,4.3,6.3,8.5,9.3,12.8C75.9,36.8,86.9,52.7,98,68.5
			c0.5,0.7,1,1.3,1.3,2c2.9,6-1.5,12.4-8.2,11.9c-1.3-0.1-2.5-0.6-3.7-0.8c-0.7-0.2-1.6,0.8-1.4,1.5c0.3,0.9,0.7,1.8,1.1,2.6
			c0.6,1.3,1.1,2.9,0.5,4.2c-1.1,2.3-0.6,3.5,1.5,5c4,2.7,5.4,7,5.7,11.6c0.2,2.5,0,5.1,0,7.7c0.1,23.6,0.1,47.3,0.2,70.9
			c0,1.1,0.1,2.2,0,3.4c-0.4,3.8,0.6,7,2.5,10.4c3.9,6.9,5,14.4,3.5,22.3c-0.4,1.9-0.2,3.2,1.2,4.8c4.9,5.4,6.8,12.2,8,19.2
			c0.7,4.1,1,8.3,1.1,12.4c0.1,12.8,0.1,25.6-0.2,38.3c-0.2,8.1-1.1,16.2-2.6,24.3c-0.5,2.7-1,5.3-2.5,7.7c-0.6,0.9-0.4,1.8,0.1,2.7
			c0.9,1.5,1.8,3,2.7,4.5c2.9,4.8,4,10.1,3.3,15.6c-0.2,1.7,0.1,3,0.9,4.5c1,1.9,1.7,4.1,2,6.3c0.6,4.1-0.5,6.3-4.2,8.2
			c-2.3,1.1-4.7,2.2-7.1,2.7c-5.8,1.3-11.5,2.6-17.4,3.3c-10.5,1.4-20.9,2.5-31.5,2.2c-6.7-0.2-13.3-1.5-19.8-3.4
			c-4.3-1.2-7.3-4-9.7-7.4c-2.4-3.5-1.6-7.2,0.6-10.3c1.4-2,2.3-3.7,2-6.1c-0.2-2,1.2-4,0-6c-1.9-0.1-3.8-0.3-5.7-0.4
			c-3.4-0.1-5.3-2.7-6.2-5.2c-0.9-2.6-2-3.4-4.7-3.4c-4.1,0-6.5-2.6-6.5-6.6c0-3.5,0.1-7,0.3-10.5c0.3-4.1,1.7-5.6,5.8-6.4
			c0.2,0,0.3-0.1,0.5-0.1c2.7,0.1,4.3-0.8,4.1-3.8c0-0.2,0.1-0.3,0.1-0.5c0.9-2.9,2.4-4.7,5.8-4.7c2.3,0,2.5-0.4,2.2-2.5
			c-0.8-6.5-1.7-13-2.2-19.5c-0.9-11-1.3-22,0.3-33c0.4-2.8,1.1-5.6,1.7-8.4c1.2-5.1,3.2-9.7,6.9-13.4c1-1,1.4-2,1.1-3.4
			c-1-4.7-1.3-9.5-0.3-14.3c0.2-1-0.5-1.4-1.4-1.5c-0.6-0.1-1.3,0-1.9-0.1c-3.9-0.2-6.1-2-6.8-5.9c-0.2-0.9-0.1-1.9-0.2-2.9
			c-0.1-0.9-0.5-1.5-1.4-1.6c-0.5-0.1-1,0-1.4-0.1c-4.9-1.2-5.7-2.2-5.7-7.2c0-2.4,0-4.8,0-7.2c0-0.8,0-1.6,0.1-2.4
			c0.4-2.8,1.9-4.4,4.8-4.3c4.1,0.1,4.2-0.3,4.7-4.1c0.6-5.2,1.8-6.1,7.2-6.1c1.4,0,2.9,0,4.3,0c1.2,0,1.7-0.6,1.8-1.8
			c0-1.3,0.1-2.6,0-3.8c-0.2-9.9-0.4-19.8-0.6-29.7c-0.1-7.8-0.1-15.6-0.2-23.5C34.4,101.3,36.1,96.8,41.1,93.5z"/>
		<path class="st0" d="M39.8,190.8c-0.2-7.1-0.5-13.2-0.4-19.2c0.1-13.1,0.3-26.2,0.5-39.3c0.1-7.8,0.1-15.6,0.1-23.5
			c0-1.4,0-2.9,0.2-4.3c0.4-3.5,2.1-5.9,5.6-7c2.8-0.9,5.5-1.6,8.4-1.3c2.7,0.2,5.4-0.6,8,0.5c0.1,2.5,0.2,5.1,0.2,7.6
			c-0.1,22.3-0.2,44.7-0.3,67c0,2.5,0,5.1,0,7.5c-4.2,1.5-8.1,2.8-11.9,4.3C46.5,184.8,43.6,187.5,39.8,190.8z"/>
		<path class="st0" d="M89.5,188.1c-7.3-5.7-14.6-8.4-22.8-8.8c-0.9-1.7-0.6-3.5-0.6-5.3c-0.2-10.5-0.3-21.1-0.4-31.6
			c-0.1-13.9,0-27.8,0-41.6c0-1.1-0.1-2.2,0.1-3.3c0.1-0.5,0.7-1.3,1.1-1.3c4.6-0.1,9.3-0.3,13.9,0c2.7,0.2,5.2,1.5,6.9,3.8
			c1.5,2,2.4,4,2.3,6.6c-0.2,14.8-0.3,29.7-0.4,44.5c-0.1,10.5,0,21.1,0,31.6C89.5,184.1,89.5,185.5,89.5,188.1z"/>
		<path class="st1" d="M86.3,194.6c5.5,4.2,8.2,10.1,9.3,16.7c2.6,15.6-7,29.8-22.4,33.6c-14.8,3.7-29.9-4.4-35-18.8
			c-0.4-1-0.5-2.1-0.8-3.2c0-5.9,1.6-11.4,3.7-17c5-12.9,22-20.7,35.4-15C79.6,192.4,83.1,193,86.3,194.6z"/>
		<path class="st2" d="M59.3,249.7c6.7,1.2,13.3,0.6,19.7-1.8c0.3-0.1,0.6,0,0.9,0c0.1,0.1,0.2,0.2,0.3,0.3c0.1,0.1,0.2,0.3,0.2,0.4
			c0,18.7,0,37.3,0,56c0,1.1-0.1,2.2-0.2,3.3c0,0.3-0.3,0.6-0.5,1.1c-6-1.6-12.2-1-18.4-0.9c-2.6-3.6-2.2-7.9-2.4-11.9
			c-0.4-11.7-1.8-23.5-1.2-35.2C58,257.1,57.9,253.3,59.3,249.7z"/>
		<path class="st3" d="M53.6,13.5c0.7,0.9,1.4,1.7,2.1,2.6C67.9,34.1,80.2,52,92.4,70c0.6,0.9,1.3,1.8,1.9,2.8c1.2,2,0.3,3.9-2,4.1
			c-2.3,0.1-4.4-0.5-5.9-2.5c-0.3-0.4-0.5-0.8-0.8-1.2c-9.4-13.7-18.9-27.3-28.3-41c-0.4-0.6-0.7-1.4-1.1-2.1
			c-1.2-3.4-3.9-6.2-4.4-9.9C51.4,17.7,50.5,15,53.6,13.5z"/>
		<path class="st4" d="M49.7,362.9c1.4,0,2.9-0.1,4.3,0.1c7.6,1.2,15.3,1,22.9,0.5c6.5-0.4,13.1-1.1,19.4-2.6
			c3.2-0.8,6.4-1.8,9.6-2.8c1.6-0.5,2.3-0.1,2.8,1.6c0.1,0.3,0.2,0.6,0.2,0.9c0.5,2.6,0.4,3.2-2,4.1c-3,1.1-6,2.2-9.1,2.8
			c-13,2.7-26.2,4.1-39.5,4.4c-8.3,0.1-16.5-0.8-24.3-4.2c0-3.4,2.8-3.4,5-3.9c3.3-0.8,6.7-0.3,10,0.3
			C51.2,364.2,49,362.9,49.7,362.9z"/>
		<path class="st5" d="M38.4,324.2c3-4,6.8-6.4,10.8-8.2c3.9-1.8,8.1-2.9,12.4-3.2c5.3-0.4,10.5-1,15.7,0c5,1,10,2.2,14.6,4.5
			c3.3,1.7,6.2,3.8,9.1,7.1c-4-0.6-7-2.4-10.4-2.9c-3.5-0.6-6.9-1.3-10.4-1.6c-3.5-0.3-7-0.4-10.5-0.4c-3.5,0-7,0.1-10.5,0.4
			c-3.5,0.3-7,0.9-10.4,1.6C45.5,322.2,42.1,323.2,38.4,324.2z"/>
		<path class="st6" d="M38.5,329.5c2.5-2.2,7.1-3.9,14.5-5c15.3-2.4,34.9-1.5,44.2,3.1C87.5,331.3,49.2,332.5,38.5,329.5z"/>
		<path class="st7" d="M33.4,323.9c-1-5.4-1.9-10.3-2.7-15.1c-1.8-11.4-3.2-22.8-3.7-34.3c0-0.8-0.1-1.6-0.2-2.4
			c-0.2-4.9-0.5-4.8,4.5-4.8c2.4,0,4.8,0,7.2,0.7c-0.6,0.2-1.2,0.5-1.8,0.7c-1.4,0.3-2.8,0.5-4.2,0.8c-0.9,0.2-1.3,0.8-1.3,1.7
			c0.1,2.4,0,4.8,0.4,7.2c1.5,10.4,3,20.9,4.6,31.3c0.4,2.7,1.2,5.3,1.6,8c0.1,0.7,0,1.7-0.4,2.2C36.3,321.2,35,322.3,33.4,323.9z"
			/>
		<path class="st5" d="M33.9,230.9c2.1,1.8,2.5,3.5,1.7,5.8c-1.8,5.1-2.8,10.4-2.7,15.9c0,2.8,0.1,3.3,3,3.9c2.5,0.6,5,0.9,7.5,1.2
			c2.2,0.3,4.5,0.3,6.7,0.6c1.8,0.2,2.8,2.3,2,4c-0.2,0.3-0.7,0.6-1.1,0.7c-0.6,0.1-1.3,0.1-1.9,0.1c-6.1,0-12.1,0-18.2,0
			c-0.8,0-1.6,0-2.4-0.1c-1-0.1-1.8-0.5-1.8-1.8c0-1.1,0-2.2,0-3.3c0.4-6.9,1.3-13.6,3.5-20.2C31.1,235.4,32.2,233.1,33.9,230.9z"/>
		<path class="st8" d="M86.3,194.6c-2.3-0.5-4.7-0.8-7-1.4c-1.2-0.3-2.4-0.8-3.6-1.2c-8.2-3.1-15.9-1.5-23.4,2.3
			c-2.9,1.5-5,3.9-6.8,6.5c-3.2,4.6-5.3,9.7-6.4,15.3c-0.4,2.3-1.2,4.6-1.8,6.9c-4.8-16.7,8.5-37.6,30.3-36.7
			c6.4,0.3,12.1,2.5,17.1,6.5C85.4,193.3,85.8,194,86.3,194.6z"/>
		<path class="st9" d="M59.3,249.7c0.9,1.3,1,2.6,0.7,4.1c-0.4,1.9-0.7,3.8-0.7,5.7c-0.1,5.7-0.1,11.5,0,17.2c0,2.1,0.4,4.1,0.6,6.1
			c0.1,1.3,0.2,2.5,0.2,3.8c0.2,4.9-0.3,9.9,0.8,14.8c0.5,2.1,0.2,4.5,0.3,6.7c0,0-0.2,0-0.2,0c-0.8,0.6-2,0.1-2.8,0.7
			c-0.7,0.1-1.6,0.5-1.9-0.6c-0.2-0.6-0.2-1.3-0.2-1.9c-0.2-18.2-0.4-36.4-0.6-54.7c0-0.5,0-1,0-1.4c0.2-1,0.8-1.2,1.7-1
			C58.1,249.4,58.7,249.5,59.3,249.7z"/>
		<path class="st10" d="M56.3,341.4c0.1-0.3,0.1-0.6,0.3-0.9c2.8-5.5,2.8-5.5,9-5.9c7.5-0.5,15-1,22.4-1.6c3.5-0.3,6.9-1,10.4-1.6
			c1.3-0.2,2.2,0.2,2.7,1.3c1.5,3.2,3,6.3,4.4,9.5c1.3,3,0.8,6.3,0.7,10.4c-0.8-1.7-1.3-2.7-1.7-3.7c-1.2-3.2-2.8-6.1-5-8.7
			c-2.6-3.1-5.7-4.9-10-4.4c-7,0.8-14,1.2-21,2c-4.4,0.5-8.3,2.2-11.2,5.8c-0.3,0.3-0.7,0.6-0.8,1.1c-0.1,0.3-0.2,0.5-0.4,0.7
			c-0.9,0.2-1.3,0-0.9-1c0.1-0.6,0.3-1.1,0.4-1.7C55.8,342.2,56,341.8,56.3,341.4z"/>
		<path class="st11" d="M55.4,335.3c-2.9,4.7-4.4,9.6-5.5,14.5c-0.6,2.5-0.9,5-1.4,7.5c-0.2,0.9-0.8,1.4-1.7,1.2
			c-4.1-0.9-4-0.5-3.6-4.5c0.4-3.8,1.1-7.6,2.4-11.2c0.6-1.6,0.2-2.2-1.2-3.2c-1.9-1.3-4-1.9-6.3-2.1c-0.7-0.1-1.2-0.6-1.1-1.3
			c0.2-0.7,0.6-1.4,1.1-2c0.1-0.2,0.6-0.2,0.9-0.1C44.3,334.5,49.6,334.9,55.4,335.3z"/>
		<path class="st12" d="M49.9,31.2c1.4,1.9,2,2.8,2.7,3.6c1.5,1.7,1.6,3.5,1.3,5.7c-0.9,6.1-1.6,12.3-1.4,18.5c0.1,2.7,0,5.4,0,8.1
			c0,2.3-0.6,2.7-2.9,2.5c-0.9-0.1-1.5-0.5-1.5-1.5c0-1,0-1.9,0-2.9c-0.5-9.4,0.6-18.7,0.7-28.1C48.7,35.6,49.3,33.9,49.9,31.2z"/>
		<path class="st13" d="M51.6,85.5c4.5-0.1,8.9-0.3,13.4-0.3c4.9,0,9.9,0.2,14.8,0.3c1.5,0,2.3,0.8,2.9,2.1c0.7,1.5-0.4,3.4-1.9,3.6
			c-0.5,0.1-1,0.1-1.4,0.1c-10.5,0-21-0.1-31.6-0.1c0.8-2.5,2.9-2,4.7-1.9c1.6,0.1,3.2,0.8,5.1,0.5c0.5,0-0.5-0.9-0.2-0.4
			c0.1,0.2,0,0.3-0.4,0.3C54.4,89.4,50.8,90.2,51.6,85.5z"/>
		<path class="st14" d="M47.8,75.1c7.3,0,14.6,0.1,21.9,0c3,0,6-0.2,9.1-0.2c2.2,0,3.9,2.4,3.2,4.7c-0.1,0.3-0.3,0.6-0.6,0.7
			c-0.4,0.2-0.9,0.3-1.4,0.3c-6.4,0-12.7-0.1-19.1-0.2c-3.2-0.1-6.3-0.3-9.5-0.5c3-2.7,6.1-0.4,8.7-0.6c-2.7-0.7-6.2-0.5-9.3-1.9
			C49.7,76.9,48,77,47.8,75.1z"/>
		<path class="st15" d="M99,295.1c-1.8-5.1-1.7-10.4-2.2-15.6c-0.8-8.4-2.2-16.7-4.4-24.9c-0.4-1.4-0.5-2.8-0.6-4.2
			c0-0.2,0.4-0.5,0.6-0.6c0.3-0.1,0.7-0.1,0.9,0.1c0.5,0.7,1.2,1.5,1.4,2.4c1.2,4.6,2.6,9.2,3.5,13.9c1,5.5,1.5,11.1,2.2,16.6
			C100.9,286.9,100.3,291,99,295.1z"/>
		<path class="st16" d="M104.8,264c-1.8-7.1-3.5-14.2-5.3-21.2c-0.5-2-0.9-4.3-2.1-5.8c-2.1-2.7-1-4.5,0.9-6.6
			c1.9,1.7,2.8,3.9,3.6,6.1c1.5,4,2.5,8.2,3,12.5C105.5,254.1,105.6,259.2,104.8,264z"/>
		<path class="st17" d="M23,326.4c3.4-0.9,5.8-0.1,7.6,3.4c1.2,2.2,1.3,3.9,0.4,6.1c-1.2,2.7-1.1,2.8-4.1,2.8
			c-1.4,0-2.8-0.1-4.2-0.2C21.8,334.4,20.1,330.3,23,326.4z"/>
		<path class="st18" d="M49.7,362.9c0.9,0.5,1.8,0.9,3.4,1.8c-4.5,0-8.2-0.1-11.9,0c-2.6,0.1-5.4,0.3-7.1,2.9
			c-3.8-1.1-5.1-2.6-4.7-5.8c0.3-2.2,1.8-2.9,4-2.4c5.1,1.2,10.2,2.2,15.3,3.2C49.1,362.7,49.4,362.8,49.7,362.9z"/>
		<path class="st19" d="M53.6,13.5c-1.5,1.7-1.6,3.7-0.9,5.8c0.7,2.3,1.5,4.5,2.3,6.7c0.4,1.3,0.8,2.7,1.2,4.1
			c-3.3-4.5-6.6-9-9.9-13.5c-1.4-1.9-1-4.3,0.9-5.9c1.6-1.4,3.8-1.1,5.5,0.8C53.1,12,53.3,12.8,53.6,13.5z"/>
		<path class="st20" d="M14.8,323.8c0,1.6,0,3.2,0,4.7c0,1.3-0.7,1.7-2.3,1.7c-1.6,0-2.1-0.4-2.2-1.8c-0.1-3-0.1-6-0.1-9
			c0-1.9,2.3-3.3,4-2.4c0.3,0.2,0.6,0.7,0.6,1.1c0.1,0.9,0,1.9,0,2.8c0,0.9,0,1.9,0,2.8C14.9,323.8,14.9,323.8,14.8,323.8z"/>
		<path class="st21" d="M29.6,180.8c6.4,0,5.5,0,5.5,5.8c0,0.8,0.1,1.6-0.1,2.4c-0.1,0.5-0.7,1.3-1.1,1.3c-2.9,0.4-5.9,1.4-8.8,0.2
			C29,188.4,27.4,183.7,29.6,180.8z"/>
		<path class="st22" d="M47.8,75.1c0.2,0.2,0.4,0.6,0.7,0.6c4.3,0.3,8.2,2.5,12.4,3.2c0.1,0,0.1,0.3,0.2,0.4
			c-3.1,0.2-6.3,0.4-9.5,0.6c-1.5,0-3.1,0.1-4.6-0.1c-1.1-0.1-2-0.8-2.1-2.1c-0.1-1.1,0.2-2.2,1.3-2.8C46.5,74.7,47.2,75,47.8,75.1z
			"/>
		<path class="st23" d="M23.6,309.1c1-0.2,1.5,0.4,1.6,1.2c0.4,2,0.7,4,1.1,6c1.2,6.3,0.7,6.7-6.1,5.4c1.4-2,1.1-4.3,1.2-6.5
			C21.6,313,21.6,310.7,23.6,309.1z"/>
		<path class="st24" d="M71.7,347.9c0.1,2.2-0.8,3.5-2.1,4c-1.2,0.4-2.8-0.1-3.7-1.4c-1.3-1.7-1.2-3.9,0.1-5.7
			c1.5-1.9,3.2-1.8,4.4,0.3C71,346.2,71.5,347.4,71.7,347.9z"/>
		<path class="st25" d="M29.6,180.8c-0.1,2.3-0.2,4.7-0.3,7c-0.1,2.1-0.3,2.4-2.4,2.6c-0.6,0.1-1.2,0.1-1.9,0.1
			c-0.1-2.8-0.2-5.6-0.3-8.3c0-1.1,0.5-1.8,1.7-1.7C27.4,180.5,28.5,180.7,29.6,180.8z"/>
		<path class="st26" d="M51.6,85.5c0,1.5,0.7,2.4,2.1,2.9c1.5,0.5,3,0.9,5.3,1.6c-3.3,0.3-5.7,0.2-8.2,0.2c-1.1,0-2.3-0.1-3.1,0.9
			c-1.6,0.4-2.4-0.8-2.7-1.9c-0.2-1,0-2.1,0.4-3.1c0.1-0.4,1-0.8,1.6-0.8C48.5,85.2,50.1,85.4,51.6,85.5z"/>
		<path class="st27" d="M23.6,309.1c-0.3,3.5-0.7,7-0.8,10.4c0,2-1.3,1.9-2.5,2.1c-1-3.9-0.3-7.9,0-11.8c0-0.3,0.6-0.8,1-0.8
			C22,308.9,22.8,309.1,23.6,309.1z"/>
		<path class="st28" d="M29.5,195c0.6-0.1,1.2-0.2,1.8-0.2c3.1-0.4,4.6-0.2,3.1,4.4c-0.1,0.4-0.4,0.9-0.6,1.3
			c-0.8,1.6-0.9,1.7-2.9,1.4c-0.6-0.1-1.2-0.3-1.8-0.4C27.9,199.2,27.8,197.1,29.5,195z"/>
		<path class="st29" d="M29.6,171c0.6-0.1,1.2-0.2,1.9-0.2c3.8-0.1,4,0.1,3.8,3.9c-0.1,1.8-0.4,2.1-2.3,2.1c-1.3,0-2.5-0.2-3.8-0.3
			C28,174.6,28.1,172.7,29.6,171z"/>
		<path class="st30" d="M20.8,186.6c0,0.6,0,2-0.3,3.4c-0.1,0.4-0.9,0.7-1.5,0.8c-0.3,0-1-0.4-1-0.7c-0.1-2.8-0.1-5.7,0-8.5
			c0-0.3,1-0.8,1.5-0.7c0.5,0.1,1.2,0.7,1.2,1.1C20.9,183.2,20.8,184.5,20.8,186.6z"/>
		<path class="st31" d="M23,326.4c0,2.3,0,4.6-0.1,7c0,1.7-0.1,3.4-0.2,5.1c-0.4,0-0.8-0.1-1.2-0.1l-0.1,0c-0.5-3.2-1.1-6.4-1.4-9.6
			C19.7,326.2,20.1,326,23,326.4z"/>
		<path class="st32" d="M29.5,195c-0.1,2.2-0.3,4.3-0.4,6.5c-0.3,0-0.6,0.1-1,0.1c-1.2,0.1-2.3-0.1-2.4-1.6c0-0.5-0.1-1-0.2-1.4
			C25.1,194.5,25.1,194.5,29.5,195z"/>
		<path class="st33" d="M29.6,171c-0.2,1.8-0.3,3.6-0.5,5.5c-0.8,0-1.5,0.1-2.3,0.1c-0.9,0-1.5-0.4-1.4-1.4c0-0.9,0.1-1.9,0.3-2.8
			c0.2-1.5,0.5-1.7,2.1-1.7C28.4,170.7,29,170.9,29.6,171z"/>
		<path class="st0" d="M55.2,344.3c0.3,0.3,0.6,0.7,0.9,1c-0.6,1.6-1.3,3.2-1.9,4.7c-0.1,0.1-0.2,0.2-0.5,0.4"/>
		<path class="st0" d="M58.3,308.8c0.8-1,1.8-1,2.8-0.7C60.4,309,59.4,309,58.3,308.8z"/>
		<polygon class="st17" points="21.4,338.3 21.5,338.1 21.5,338.3 		"/>
		<path class="st34" d="M56.3,341.4c-0.2,0.4-0.4,0.8-0.6,1.2C55.9,342.2,56.1,341.8,56.3,341.4z"/>
		<path class="st34" d="M56.5,344.6c0.3-0.4,0.5-0.7,0.8-1.1C57.1,343.9,56.8,344.2,56.5,344.6z"/>
		<path class="st35" d="M85.3,116.1c0,3.5,0.1,5.9-1,8.1c-0.1,0.2-0.4,0.5-0.7,0.5c-0.3,0-0.7-0.2-0.8-0.4c-0.6-1.8-1.2-3.6-1.6-5.5
			c-0.4-1.9-0.6-3.8-0.9-5.6c-0.5-3-1.2-5.9-3.1-8.4c-0.7-0.9-0.7-1.8,0.2-2.6c0.8-0.7,1.9-0.8,2.6-0.2c1.1,0.9,2.3,1.9,2.8,3.1
			c1,2.7,1.6,5.5,2.2,8.2C85.4,114.6,85.3,115.9,85.3,116.1z"/>
		<path class="st36" d="M78.7,111.8c0,1.6-0.7,3-1.5,3.2c-1,0.3-2.2-1.2-2.5-3c-0.3-2.1,0.6-3.7,2-3.6
			C77.9,108.6,78.6,109.8,78.7,111.8z"/>
		<path class="st37" d="M67.5,227.4c-2.7-0.6-4-2.2-3.8-5.1c0.2-4.8,0.1-9.6,0.1-14.4c0-1.5,0.3-2.8,1.5-3.9c2-1.8,2.7-2.1,5-0.5
			c4,2.7,7.9,5.4,11.8,8.2c2.1,1.5,2.1,2.1,0.7,4.8C78.9,221.9,73.8,225.5,67.5,227.4z"/>
		<path class="st38" d="M59.3,216.6c0,2.6,0,5.1,0,7.7c0,1.2-0.8,2-2,2.4c-2.3,0.9-4.7,0.8-7.1,0.4c-2.3-0.3-3.5-2-3.4-4.4
			c0.1-3.7,0.2-7.3,0.2-11c0-0.2,0-0.3,0-0.5c0.8-7.9,1.8-7.6,9.1-7.3c1.7,0.1,2.5,0.9,2.8,2.7c0.2,1.4,0.4,2.8,0.4,4.3
			C59.5,212.7,59.4,214.7,59.3,216.6C59.4,216.6,59.4,216.6,59.3,216.6z"/>
		<path class="st39" d="M93.1,216.4c-0.5,2.3-0.8,4.7-1.4,7c-0.2,0.9-0.7,1.8-1.4,2.4c-0.5,0.5-1.4,0.7-2.1,0.6
			c-0.4-0.1-1-0.9-1-1.4c-0.1-1.1-0.1-2.2,0.2-3.3c1.4-5.7,0.6-11-2.1-16.1c-0.3-0.6-0.7-1.2-0.7-1.7c0-0.6,0.2-1.3,0.6-1.6
			c0.4-0.3,1.4-0.4,1.7-0.2c1.2,1,2.4,2.1,3.2,3.4C92.1,208.7,92.9,212.4,93.1,216.4z"/>
		<path class="st40" d="M67.5,227.4c3.6-2.5,7.2-4.9,10.7-7.4c1.5-1.1,3-2.3,4.4-3.5c1,1.7,0,3.2-0.9,4.4c-2.3,2.9-5.1,5.2-8.4,6.9
			C71.3,228.7,69.4,228.8,67.5,227.4z"/>
		<path class="st41" d="M62.2,266c0,0,0-0.8,0.2-1.6c0.8-2.8,3.5-5.3,5.5-5.3c3.3,0,6.3,2.1,7.3,5.1c1,2.8-0.2,6.2-2.8,7.9
			c-2,1.3-4,1.8-6.2,0.5C63.9,271.3,62,269.8,62.2,266z"/>
		<path class="st42" d="M74.9,288.4c-0.3,1.2-0.5,2.4-0.9,3.6c-1.6,4.8-8.5,4.7-10.9,1.2c-2-2.9-1-9,2.2-10.5
			C69.6,280.6,75,283.2,74.9,288.4z"/>
		<path class="st43" d="M77.5,214.5c-2.8,1.9-5.3,3.6-7.7,5.3c-0.5,0.3-1.4-0.1-1.4-0.7c0-3.1-0.1-6.3-0.1-9.4
			c0-0.7,0.7-1.1,1.3-0.7C72.1,210.7,74.7,212.5,77.5,214.5z"/>
		<path class="st44" d="M55,215.6c0,1.7,0,3.5,0,5.2c0,1.5-0.5,1.9-2.1,1.9c-1.1,0-1.8-0.5-1.9-1.6c-0.1-1.6-0.1-3.2-0.1-4.7
			c0-1.9-0.1-3.8-0.1-5.7c0-2,0.5-2.4,2.6-2.2c0.9,0.1,1.4,0.5,1.5,1.5C54.9,211.8,54.9,213.7,55,215.6
			C54.9,215.6,55,215.6,55,215.6z"/>
		<path class="st45" d="M71.9,266.7c0.1,1.9-1.3,3.6-3,3.6c-1.8,0-3.3-1.6-3.4-3.3c-0.1-1.7,1.3-2.8,3.7-2.9
			C70.7,264,71.8,265,71.9,266.7z"/>
		<path class="st46" d="M69.1,292.5c-2.7-0.1-4.7-3.2-3.5-5.4c1.1-2,3.2-2.3,4.8-0.8c0.6,0.5,1.1,1.2,1.5,1.9
			C72.9,290,71.3,292.5,69.1,292.5z"/>
	</g>
</g>
</svg>
