<?xml version="1.0" encoding="utf-8"?>
<!-- Generator: Adobe Illustrator 26.3.1, SVG Export Plug-In . SVG Version: 6.00 Build 0)  -->
<svg version="1.1" id="simplemech_xA0_arm_1" xmlns="http://www.w3.org/2000/svg" xmlns:xlink="http://www.w3.org/1999/xlink"
	 x="0px" y="0px" viewBox="0 0 127.2 355.6" style="enable-background:new 0 0 127.2 355.6;" xml:space="preserve">
<style type="text/css">
	.st0{fill:#FFFFFF;}
	.st1{fill:#FD9800;}
	.st2{fill:#FEFEFE;}
	.st3{fill:#CCCCCC;}
	.st4{fill:#CBCCCC;}
	.st5{fill:#F8FAFA;}
	.st6{fill:#FB9701;}
	.st7{fill:#F4F4F3;}
	.st8{fill:#F7F8F8;}
	.st9{fill:#F2F3F3;}
	.st10{fill:#F5F6F6;}
	.st11{fill:#EFF0F0;}
	.st12{fill:#FBFBFB;}
	.st13{fill:#F5F8F8;}
	.st14{fill:#F6F8F8;}
	.st15{fill:#F4F9F9;}
	.st16{fill:#FAFBFB;}
	.st17{fill:#EAEBEB;}
	.st18{fill:#DD8500;}
	.st19{fill:#F9FDFD;}
	.st20{fill:#EFF3F3;}
	.st21{fill:#DFE7E7;}
	.st22{fill:#F2F0EB;}
	.st23{fill:#E5E7E7;}
	.st24{fill:#F59000;}
	.st25{fill:#E2E6E6;}
	.st26{fill:#DFE2E2;}
	.st27{fill:#F1F0E5;}
	.st28{fill:#F5F0E4;}
	.st29{fill:#D0D0D0;}
	.st30{fill:#D3D9CB;}
	.st31{fill:#B8B7B7;}
	.st32{fill:#090805;}
	.st33{fill:#231400;}
	.st34{fill:#262424;}
	.st35{fill:#0B0909;}
	.st36{fill:#201D1D;}
	.st37{fill:#151111;}
	.st38{fill:#869B9B;}
</style>
<g>
	<g>
		<path class="st0" d="M31.9,61.2c-3.3-4.7-6.7-9.3-9.9-14.1c-3.1-4.7-6-9.4-8.8-14.3c-3.4-5.9-6.7-12-10-18c-1.1-2-1.9-4-2.7-6.1
			c-1.9-5.2,1.4-9.4,7-8.7c5.1,0.6,10.2,1.3,15.1,2.4c25,6,47.8,16.8,68.7,31.6c6.6,4.7,13,9.8,18.3,16.1c0.8,1,1.8,1.2,3,1.1
			c2.8-0.2,5.4,0.7,7.7,2.2c5.1,3.3,8,10.4,6.4,16.4c-1,3.8-2.4,7.6-3.8,11.3c-4.6,12.4-9.4,24.8-13.9,37.2c-1.9,5.4-5.9,8.2-11,9.7
			c-4.6,1.4-8.8,0.1-12.5-2.9c-0.6-0.5-1.1-1-1.7-1.5c-1,1.2-0.6,2.4-0.6,3.4c0,9.1,0,18.2-0.1,27.3c-0.1,4.9-0.4,9.9-0.7,14.8
			c-0.1,1.7,0.1,3.1,0.9,4.6c1.1,2.1,2,4.3,2.8,6.6c1.6,4.6,1.1,9.1-0.6,13.6c-0.6,1.6-0.6,3,0.2,4.5c0.7,1.2,0.9,2.7,1.3,4.1
			c0.4,1.2,0.7,2.4,1.1,3.6c0.9,2.4,2.1,4.7,1.3,7.4c-0.3,1.1,0.2,1.8,0.8,2.6c4.8,6.6,7.5,14.1,9.1,21.9c2,9.9,3.4,19.8,4.1,29.9
			c0.9,12.1,1.3,24.2,1.1,36.4c-0.1,5.4-0.7,10.8-1,16.2c-0.2,2.8-1.5,4.8-3.8,6.3c-0.5,0.3-1.1,0.7-1.7,0.9
			c-1.5,0.6-2.1,1.8-2.3,3.3c-0.5,3.6-1.5,7.2-1.8,10.9c-0.5,6.3-4.7,9.4-9.8,11.1c-7.8,2.6-16,3.1-24.2,2c-2.5-0.3-5-1-7.5-1.5
			c-5.6-1.3-9.4-4.5-11.2-10c-1-3-2.2-6-3.1-9.1c-0.5-1.8-1.4-3.1-3.2-3.8c-1-0.4-2-1-3-1.5c-2.8-1.7-4.1-4.3-4.6-7.5
			c-2.8-21-3.3-42-2.7-63.1c0.3-11.7,2.3-23.2,5.8-34.4c1.3-4.3,2.9-8.5,6-11.9c0.9-1,1.2-2.1,1.3-3.5c0-2.1,0.5-4.1,1.8-5.9
			c1.1-1.6,1.2-3.5,1.5-5.4c-1.7-0.5-3.3-0.8-4.7-1.3c-3.2-1-5.6-3.1-6.6-6.4c-0.8-2.7-1.5-5.5-2.1-8.4c-0.4-2.3-1.1-4.1-3.1-5.6
			c-3.6-2.6-4.9-6.6-5.3-10.9c-0.3-3.7,0.2-7.3,1.5-10.8c1-2.9,2.7-5.5,5.5-7c1.4-0.7,2.3-1.6,2.5-3.2c0.2-1.2,0.8-2.4,1.2-3.6
			c1.3-3.9,4.1-5.9,8-6.6c1.1-0.2,2.2-0.3,3.3-0.3c3.6,0,3.5-0.4,3.5-3.4c0-4.6,0-9.3,0-13.9c0-2.5-0.2-2.6-2.8-2.7
			c-2.1-0.1-4.1-0.2-6.2-0.4c-2.5-0.2-4.1-1.5-5.2-3.7c-1.3-2.6-2.6-5.1-3.1-8c-0.6-3.8-1.6-7.5-1.8-11.3
			C25,79.9,26.7,70.2,31.9,61.2z"/>
		<path d="M78.6,139.7c-0.3,9.1-0.6,18.2-0.9,27.3c-0.1,2.1-0.9,4.2-0.5,6.1c0.3,1.8,1.9,3.3,2.8,5c2.7,5.1,3,10.4,0.6,15.7
			c-1.1,2.3-1.9,4.3,0.4,6.4c0.5,0.5,1,1.4,1,2.1c-0.1,3,1.4,5.4,2.7,8c0.7,1.4,0.4,2.8-0.2,4.2c-0.4,0.9-0.5,1.8,0.2,2.7
			c6.8,7.9,9.4,17.6,11.2,27.6c1.5,8.8,2.3,17.7,3.1,26.6c1.1,12.3,1,24.6,0.9,36.9c-0.1,4-0.7,7.9-0.9,11.9
			c-0.1,1.4-0.8,2.4-1.9,3.1c-0.4,0.3-0.8,0.6-1.2,0.7c-3.7,0.6-4.1,3.4-4.5,6.3c-0.6,4.1-1.4,8.2-2.1,12.3
			c-0.3,1.7-1.1,2.9-2.5,3.9c-2.4,1.8-4.9,2.9-7.8,3.4c-7.8,1.5-15.5,1.6-23.3-0.2c-0.9-0.2-1.8-0.5-2.8-0.8c-3.5-1-5.8-3.3-6.9-6.7
			c-1.3-3.8-2.7-7.5-3.8-11.3c-0.6-2-1.6-3.3-3.8-3.8c-1.3-0.3-2.6-1.2-3.8-2c-1.2-0.8-1.8-2.1-2-3.6c-3.1-21.4-3.4-43-2.7-64.5
			c0.3-10.2,2.2-20.3,5.2-30.1c1.4-4.8,3.3-9.4,7.1-12.8c1-0.9,1.1-1.8,0.9-3c-0.4-2.1-0.2-4.1,1.8-5.6c0.4-0.3,0.7-1.1,0.7-1.6
			c-0.3-3.8,1-6.9,3.7-9.5c0.3-0.3,0.4-0.9,0.3-1.2c-0.1-0.3-0.7-0.7-1-0.7c-2.2,0-4.5,0-6.7,0.1c-5,0.2-7.4-2.2-8.3-6.8
			c-0.6-3.3-1.3-6.6-1.9-9.9c-0.2-0.8-0.5-1.5-1.3-1.8c-5.2-2.1-6.2-6.5-6-11.4c0.1-1.7,0.3-3.5,0.8-5.2c0.8-3,2.3-5.7,5.9-6.2
			c1.2-0.2,1.5-0.9,1.8-1.9c0.5-2,1.2-4,1.7-6c0.8-3.1,3.1-4.4,6-4.6c2.4-0.2,4.8,0,7.2-0.1c2,0,2.4-0.4,2.4-2.2
			c0-8.5,0-16.9,0-25.4c0-1.7-0.5-2.2-2.4-2.2c-2.7,0-5.4-0.1-8.1,0.1c-2.6,0.2-4.1-0.9-5.2-3.2c-2-4.3-2.8-8.8-3.3-13.4
			c-0.7-6.1-0.3-12.1,1.3-18.1c1.1-3.9,2.4-7.6,4.9-10.8c1.2-1.6,1.2-1.6,0-3.3c-2.4-3.4-4.8-6.8-7.3-10.1
			C23.1,41.5,18.2,32.2,13,23c-2-3.5-3.9-7-5.7-10.5C6.5,11,6,9.5,5.4,8.1C4.6,5.7,5.1,5,7.4,5.3C12.3,6,17.3,6.4,22,7.6
			c28.3,7.3,53.9,19.8,76.3,38.6c3.3,2.8,6.1,6.1,9,9.3c1.1,1.2,1.9,2,3.6,1.4c3.5-1.1,6.4,0.1,8.6,2.7c2.5,2.9,3.7,6.4,2.4,10.3
			c-1.1,3.2-2.2,6.3-3.4,9.5c-4.5,12.1-9.1,24.2-13.5,36.4c-1.2,3.3-3.3,5.4-6,7.1c-5.2,3.3-12.4-0.2-13.1-6.3
			c-0.2-1.3-0.1-2.6,0.1-3.8c0.2-1.7-0.8-2.6-2.1-3.4c-1.5-0.8-3.1-0.7-4.7-0.4c-0.3,0.1-0.8,0.6-0.9,1c-0.1,0.9-0.1,1.9-0.1,2.9
			c0,8.9,0,17.9,0,26.8C78.3,139.7,78.5,139.7,78.6,139.7z"/>
		<path class="st1" d="M58.3,109.1c4.5-0.1,8.9-0.2,13.4-0.2c1.2,0,1.6,0.6,1.7,1.8c0,0.6,0,1.3,0,1.9c0.1,18.3,0.2,36.7,0.3,55
			c0,0.6-0.1,1.2-0.1,2.1c-2.4-1-4.4-2.2-6.7-2.8c-2.3-0.6-4.7-0.6-7.1-0.8c2.1-2.6,1.8-5.5,1.1-8.6c-1.2-5.9-2.3-11.9-2.2-18
			c3.5-6.4,0.6-13.1,1.1-19.6c0.2-2.3,0.4-4.8-2.1-6.4C57.1,111.9,57,110.4,58.3,109.1z"/>
		<path class="st2" d="M90.3,111.1c0.2-0.6,0.4-1.3,0.7-2.1c5.2-13.7,10.4-27.4,15.5-41.2c1.1-2.9,2.7-5,5.5-6.2
			c1.2-0.5,2.2-0.3,3.1,0.4c2.2,1.6,2.9,4.7,1.9,7.3c-4,10.1-8.1,20.1-12.1,30.2c-1.8,4.6-3.5,9.2-5.3,13.8
			c-0.5,1.2-0.9,2.4-1.7,3.4c-1.9,2.6-5.3,2.2-6.4-0.8C90.9,114.5,90.7,112.8,90.3,111.1z"/>
		<path class="st3" d="M40.2,89.5c1.1,1.1,0.6,3.2,2.5,3.9c1.2-1.4,1.1-3.2,1.4-4.9c0.6-4.3,1.2-8.5,1.9-12.7
			c0.1-0.7,0.5-1.4,0.8-2.1c0.4,0,0.5,0,0.6,0.1c0.1,0,0.3,0.1,0.4,0.2c8.8,10,17.8,19.8,27.6,28.9c-0.6,1.2-1.5,0.9-2.2,0.9
			c-4.9,0-9.9-0.2-14.8-0.2c-3.7,0-7.3,0.4-11,0.5c-3.2,0.1-6.4,0-9.5-0.1c-0.2,0-0.4-0.4-0.6-0.7c1.5-1.5,3.5-1.1,5.4-1.3
			C38.3,97.5,37.7,94.5,40.2,89.5z"/>
		<path class="st4" d="M57.4,172.1c2-1.5,4.4-1.3,6.4-0.7c5.6,1.7,9.9,5.1,12,10.8c1.5,4.1,0.8,7.9-1.5,11.4c-1.9,2.9-4.9,4.2-8.2,4
			c-4.2-0.2-8.1-1.5-10.7-5.2c-0.2-2.7-1.3-5.2-1.1-8c0.5-5.7,2.7-10.1,8.5-12C60.8,173.2,59,173.9,57.4,172.1z"/>
		<path class="st5" d="M59.1,59.8c1.2-4.5,2.5-8.9,3.5-13.4c0.6-2.8,0.8-5.7,1.1-8.5c0.2-1.4-0.3-2.4-1.6-3.2
			c-6.2-3.9-12.4-7.8-19-10.9c-3.8-1.7-7.5-3.4-11.3-5.2c-5.2-2.4-10.6-4.3-16.2-5.6c-1.1-0.3-2.2-0.5-2.8-1.6
			c-0.1-0.3-0.3-0.7-0.2-0.8c0.1-0.2,0.5-0.3,0.8-0.3c0.3,0,0.6,0.1,0.9,0.1c17.8,5.1,35.1,11.6,51.4,20.4c5.8,3.1,5.1,3.2,3.1,8.4
			c-2.9,7.6-5.8,15.2-8.7,22.8C58.3,62,58.9,60.8,59.1,59.8z"/>
		<path class="st6" d="M54.3,338.7c0.5,0.5,1.1,1.1,1.6,1.6c0.8,0.8,1.3,0.4,1.9-0.2c2.8-2.6,1.1-6.7,3.3-9.5
			c0.8-0.1,1.6-0.2,2.3-0.2c1.8,0.1,2.2,0.3,2.2,2.2c0,2.3,0.8,4.2,1.9,6.2c2.6,1.2,2.8-1.2,3.6-2.5c1.2-1.9,0.8-4.5,2.7-6
			c0.3-0.1,0.6-0.3,0.9-0.4c0.8-0.2,1.8-0.1,1.6,1c-0.3,2.5-0.6,5,0.6,7.5c1.9-1.6,2.6-3.8,2.9-5.9c0.3-2.6,1.6-4,4.2-4.3
			c0.5-0.1,0.9-0.2,1.7-0.4c0,0.9,0,1.6-0.1,2.3c-0.7,3.8-1.4,7.5-2.1,11.2c-0.2,1.1-0.7,1.7-1.8,1.9c-9,1.8-17.9,2.6-26.9-0.1
			c-0.1,0-0.2-0.2-0.4-0.3C53.9,341.6,53,340.2,54.3,338.7z"/>
		<path class="st7" d="M59.9,139.4c0.5,8.6,1.7,17.2,4.1,25.8c-1.5,0.3-2.8,0.6-4.1,0.9c-1.5,0.3-3.1,0.6-4.9,1
			c-0.1-1.5-0.2-2.8-0.2-4.2c0-14.8,0.1-29.5,0.2-44.3c0-2.5-0.1-5.1-0.1-7.6c0-2,0.3-2.2,2.7-2.1c0.3,0,0.6,0.2,0.9,0.2
			c0,1.5,0.1,2.9,0.1,4.4c1.1,1.1,1.2,2.6,1.2,4C59.6,124.8,59.9,132.1,59.9,139.4z"/>
		<path class="st8" d="M62.3,268.1c-7.7,0.4-15.3-0.1-22.8-1.9c-0.9-0.2-1.8-0.5-2.8-0.7c-0.9-0.2-1.3-0.8-1.2-1.7
			c0.3-5.1,0.4-10.2,1-15.3c0.9-7.6,2.6-15.1,4.6-22.5c0.9-3.4,2.4-6.6,5.1-9.1c0.3-0.3,1.2-0.3,1.7-0.2c0.2,0.1,0.5,0.9,0.4,1.2
			c-0.3,1.1-0.7,2.1-1.2,3.1c-3.4,8.7-5.4,17.7-6.8,26.9c-0.5,3.3-0.8,6.7-1.3,10c-0.3,2.1,0.6,3.3,2.2,4.3
			c3.5,1.9,7.2,3.4,11.2,4.1c3.1,0.5,6.3,0.7,9.5,1.1C62.4,267.4,62.5,267.6,62.3,268.1z"/>
		<path class="st9" d="M35.5,269.5c5.9,0.4,5.2,1.1,4.4,5.3c-1.9,9.5-2.2,19-1.1,28.5c0.3,3.2,0.9,6.3,1.1,9.5
			c0.1,2.1,1.2,3.6,2.8,4.8c1.8,1.3,3.7,2.5,5.6,3.6c1.3,0.8,2.7,1.4,4.1,2.1c-0.2,0.4-0.2,0.6-0.3,0.6c-5,0.1-9.8-1.1-14.4-3
			c-1.1-0.4-1.3-1.2-1.3-2.2c0.7-9.6-0.3-19.1-0.6-28.6c-0.2-5.7-0.4-11.5-0.5-17.2C35.3,271.7,35.4,270.6,35.5,269.5z"/>
		<path class="st10" d="M83.3,297c-0.3-5.8-0.6-12.1-0.9-18.5c-0.1-1.3,0-2.6,0-3.8c0-1.8,0.5-2.9,1-2.7c1.2,0.5,1.5,1.6,1.6,2.7
			c0.2,1.6,0.3,3.2,0.5,4.8c1,11.1,1.9,22.3,1.4,33.5c0,1-0.1,1.9,0,2.9c0.1,0.5,0.5,1.2,0.9,1.5c1,0.7,2.2,1.3,3.3,1.9
			c0.6,0.4,0.7,1.2,0.1,1.5c-1,0.5-2,1-3.1,1.3c-6.8,2.2-5.6,2-5.4-3.8C83.1,311.3,83.2,304.4,83.3,297z"/>
		<path class="st11" d="M85.1,266.3c-2.2,0.1-2.8-0.4-2.8-1.7c-0.3-4.3-0.4-8.6-0.8-12.9c-0.8-9.5-2.4-18.9-5.5-28.1
			c-0.3-0.9-0.5-1.9-0.5-2.8c-0.1-0.9,0.4-1.5,1.3-1.7c0.5-0.1,0.9-0.2,1.4-0.3c1.4-0.2,2.5,0.5,2.9,1.8c0.1,0.6,0.2,1.3,0.2,1.9
			c-0.5,11.4,1.3,22.5,3.3,33.7c0.3,1.5,0.1,3.5,1,4.5c1.1,1.2,2.9-0.3,4.4-0.4c1-0.1,1.9-0.4,2.3,0.9c0.5,1.5,0.1,2.5-1.4,3
			C88.7,265.2,86.4,265.9,85.1,266.3z"/>
		<path class="st12" d="M40.2,89.5c0,2,0,4.1-0.1,6.1c-0.1,1.8,0.6,3,2,4.1c0.9,0.7,1.8,1.3,2.6,2c0.2,0.2,0.3,0.6,0.3,0.8
			c0,0.2-0.4,0.5-0.6,0.5c-2.4,0.1-4.7,0.1-7.1,0.1c-0.2-0.6-0.5-1.2-0.6-1.8c-0.8-6.6-1.3-13.3-0.5-20c0.4-4,1.3-7.8,3-11.5
			c0.6-1.3,1.4-2.4,2.1-3.6c2,1.2,2.7,2.4,1.9,4.5C40.8,76.8,39.9,83.1,40.2,89.5z"/>
		<path class="st13" d="M104.8,61.4c-1.2,2.6-2.4,5.2-3.9,8.4c-0.5-1.7-0.9-2.7-1.1-3.9c-0.7-4.6-2.9-8.4-6-11.7
			c-4.6-5.1-9.9-9.4-16.1-12.6c-1.6-0.8-3.1-1.7-4.5-2.7c-1-0.6-0.8-1.7-0.4-2.6c0.1-0.3,0.7-0.7,1-0.7c0.6,0.1,1.2,0.4,1.7,0.8
			c8,5,15.6,10.6,22.5,17C100.6,55.7,102.9,58.3,104.8,61.4z"/>
		<path class="st14" d="M66.1,207.5c-4.4-0.2-8.1-0.4-11.6-1.6c-0.9-0.3-1.8-0.6-2.6-1.1c-2.1-1.1-2.5-2-1.7-4.3c0.4-1,1-2,1.6-2.9
			c0.2-0.3,0.9-0.4,1.2-0.3c0.6,0.2,1,0.8,1.5,1.1c5.9,4.5,12.3,5.8,19.3,2.7c1.7-0.8,3.4,0.4,3.5,2.4c0,0.5-0.4,1.3-0.8,1.6
			c-1.1,0.6-2.3,1.2-3.5,1.4C70.4,207.1,67.9,207.3,66.1,207.5z"/>
		<path class="st15" d="M47.1,207.4c2.3,1,4.5,2.4,6.9,3c7.9,1.9,15.8,2.2,23.6-0.5c1.7-0.6,2.3-0.4,2.8,0.6
			c0.6,1.3,0.3,2.7-0.9,3.4c-1.1,0.6-2.3,1.1-3.5,1.4c-1.4,0.3-2.8,0.5-4.3,0.5c-5.9,0-11.8-0.1-17.6-1.4c-2.2-0.5-4.3-1.1-6-2.7
			C46.8,210.5,46.3,209.1,47.1,207.4z"/>
		<path class="st16" d="M57.4,172.1c1.9,0,3.8,0,6.1,0c-0.5,0.7-0.7,1.1-1,1.3c-5.7,2.8-7.9,8.7-6.7,15.3c0.1,0.8,0.5,1.5,0.5,2.3
			c0,0.5-0.6,1-0.9,1.5c-4.1-4-4.5-9-3.6-14.1C52.2,175.3,53.8,172.7,57.4,172.1z"/>
		<path class="st17" d="M46.3,254.6c-1.6-2.1-1.6-3.7-1.3-5.3c1.1-6.6,2.5-13.1,4.8-19.4c0.5-1.3,1.2-2.6,2-3.8
			c0.2-0.3,0.9-0.4,1.3-0.2c0.3,0.1,0.6,0.8,0.5,1.1c-0.2,0.9-0.4,1.9-0.8,2.7c-2.4,5.1-3.3,10.6-4.3,16.1c-0.2,1.3-0.4,2.5-0.7,3.8
			C47.4,251.1,46.9,252.6,46.3,254.6z"/>
		<path class="st18" d="M37.7,179.4c-1.7-3.4-1.9-6.7-0.4-10.2c1.6-3.9,0.9-7.9,0.1-11.8c-0.5-2.4-0.5-4.7-0.1-7.1
			c0-0.2,0.3-0.6,0.5-0.6c0.2,0,0.7,0.2,0.7,0.3c0.7,2.8,1.7,5.4,1.6,8.4c-0.2,4.1-0.2,8.3-0.2,12.4c0,2.6-0.7,5-1.4,7.5
			C38.6,178.8,38.1,179.1,37.7,179.4z"/>
		<path class="st10" d="M43.1,153.6c-0.7-3-1.4-5.9-2.1-8.8c6.7-1.3,7.2-1,8.5,5c0.1,0.6,0.2,1.2,0.2,1.9c0,0.6-0.1,1.2-0.1,2
			C47.4,154.1,45.3,154.1,43.1,153.6z"/>
		<path class="st19" d="M49.7,157.9c0,4.1,0,8,0,12.3c-0.8,0.1-1.9,0.2-3,0.2c-2,0-2.1-0.1-2.2-2.2c-0.1-2.7-0.1-5.4-0.2-8.1
			c0-1.8,0.2-2,1.8-2.1C47.2,157.9,48.3,157.9,49.7,157.9z"/>
		<path class="st20" d="M41.1,187c1.1-4.5,2-8.4,2.9-12.2c0.2-0.9,0.8-1.4,1.7-1.4c0.8,0,1.5,0.2,2.3,0.4c0.1,0,0.3,0.6,0.2,0.8
			c-1.6,3.6-1.5,7.4-1.1,11.2c0.1,0.8-0.5,1.1-1.2,1.1C44.5,187.1,43.1,187,41.1,187z"/>
		<path class="st21" d="M76.4,280.5c0,2.6-2.6,5.2-5.3,5.2c-2.4,0-4.3-2.2-4.2-4.8c0.1-2.6,2.4-4.9,4.9-5
			C74.2,275.8,76.5,278.1,76.4,280.5z"/>
		<path class="st22" d="M54.3,338.7c0.1,0.9,0.3,1.8,0.3,2.7c0,0.6-0.2,1.1-0.3,1.7c-1.3-0.1-2.4-0.5-2.9-2
			c-1.1-3.4-2.4-6.9-3.5-10.3c-0.4-1.2,0.1-1.7,1.5-1.6c0.3,0,0.6,0.1,0.9,0.1c1.3,0,2,0.6,2.2,1.9C53,333.8,53.7,336.2,54.3,338.7z
			"/>
		<path class="st23" d="M68,259.5c-0.6-1.4-0.6-2.8-0.1-4.2c0.7-2.1,2.3-2.9,4.4-2.4c0.5,0.1,0.9,0.3,1.3,0.5c2.7,1,3.8,2.9,3.1,5.5
			c-0.6,2.4-2.8,3.8-5.4,3.3c-0.6-0.1-1.1-0.6-1.6-0.9c-0.1-1.9,2-1.6,2.7-2.7c0.6-1.4,0-2-1.4-2.1c-0.5,0.1-0.9,0.4-1.1,0.9
			c-0.2,0.5-0.3,1-0.5,1.5C69.1,259.4,68.7,259.7,68,259.5z"/>
		<path class="st24" d="M35,159.6c0.7,2.6-0.1,5-0.7,7.4c-0.3,1.2-1.5,1.5-2.6,0.8c-0.9-0.6-1.4-1.3-1.4-2.3c0-1.7,0.1-3.4,0.2-5.1
			C31.9,159.5,33.3,158.6,35,159.6z"/>
		<path class="st25" d="M74.5,55c-0.1,1.5-1.6,3-3.1,3c-1.7,0-3.3-1.7-3.2-3.4c0.1-1.5,1.7-3.1,3.1-3.1C72.9,51.5,74.6,53.3,74.5,55
			z"/>
		<path class="st26" d="M54.8,42.1c1.7,0,3.4,1.8,3.3,3.4c-0.1,1.5-1.8,3-3.3,2.8c-1.5-0.1-3-1.7-3-3.2C51.7,43.7,53.3,42,54.8,42.1
			z"/>
		<path class="st27" d="M73.9,330.4c-0.4,2.9-1,5.7-2.6,8.2c-0.7,1.2-1.8,1.9-3.2,1.4c-0.3-0.1-0.4-0.7-0.6-1.1
			c0.4-0.1,1-0.2,1.2-0.4c1.1-1.8,1.6-3.7,1.9-5.8C70.9,330.1,70.9,330.1,73.9,330.4z"/>
		<path class="st28" d="M61.1,330.6c0,1.4,0.2,2.9,0,4.2c-0.3,2.2-0.8,4.3-3.3,5.2c0.4-2.7,0.3-5.4-0.4-8.1c-0.4-1.5,0.1-2,1.8-1.9
			C59.9,330.2,60.5,330.5,61.1,330.6z"/>
		<path class="st29" d="M57.7,235c0.5,0.7,1.3,1.2,1.3,1.8c0,1.2-0.3,2.5-0.7,3.6c-0.3,0.8-1,1.9-2.1,1.4c-0.7-0.3-1.3-1.3-1.6-2.1
			c-0.4-1.4,0.2-2.8,1.2-3.9C56.2,235.4,57,235.3,57.7,235z"/>
		<path class="st30" d="M35,159.6c-1.5,0.5-2.9,1.2-4.5,0.8c0.1-0.9,0-1.9,0.3-2.8c0.3-0.9,1-1.6,2.2-1.5c1.1,0.1,1.8,0.7,2,1.7
			C35,158.4,35,159,35,159.6z"/>
		<path class="st31" d="M59.1,59.8c0.4,0.7,0.7,1.4,1.1,2.1c-0.8,2.4-1.5,4.8-2.4,7.2c-0.1,0.4-0.7,0.6-1,0.9
			c-0.2-0.4-0.5-0.8-0.5-1.1c0-0.6,0.1-1.3,0.3-1.9C57.4,64.5,58.2,62.1,59.1,59.8z"/>
		<path class="st8" d="M62.3,268.1c-0.1-0.3-0.3-0.6-0.4-0.9c1.3-0.1,2.5-0.2,3.8-0.2c4.3,0,8.5,0.3,13-0.1
			c-0.5,0.3-1.1,0.9-1.6,0.9C72.1,268,67.2,268.1,62.3,268.1z"/>
		<path class="st0" d="M68,259.5c0.3-0.4,0.7-0.8,1-1.2c1.7-0.3,3.2-0.1,4.5,1c-0.5,0.9-1.3,1.2-2.2,1.1c-0.8,0-1.4,0.1-1.8,0.9
			C68.6,261.1,68.1,260.4,68,259.5z"/>
		<path class="st32" d="M59.9,139.4c-0.5-1.5-1.3-3-1.3-4.5c-0.1-7.1-0.1-14.3-0.1-21.4c2.1-0.1,2.6,0.1,2.7,1.5
			c0.1,1,0,1.9,0.1,2.9c0.2,4.1,0.4,8.3,0.4,12.4c0,2.4-0.3,4.8-0.6,7.1C61,138.2,60.3,138.8,59.9,139.4z"/>
		<path class="st33" d="M62.5,118.4c0.3-1.1,0.3-1.9,0.7-2.6c0.3-0.5,1-0.9,1.5-0.9c0.5,0,1.2,0.4,1.5,0.9c1.1,1.8,0.6,4.6-0.9,6.1
			c-0.5,0.5-1.3,0.3-1.6-0.3C63.2,120.5,62.9,119.3,62.5,118.4z"/>
		<path class="st34" d="M51.4,85.6c-0.3,1.2-0.3,2.8-1.8,3.5c-0.9,0.4-2-1.7-2-3.7c0-1.8,1.1-3.3,2.2-3C50.8,82.7,51.5,84,51.4,85.6
			z"/>
		<path class="st35" d="M70.7,185.3c-0.1,2.3-0.7,4.2-2.2,5.7c-1.7,1.7-4,2-6.1,0.7c-0.7-0.4-1.4-1-1.1-1.9c0.2-0.5,0.8-0.9,1.4-1.2
			c0.4-0.2,0.9-0.2,1.4-0.4c1.8-0.9,2.4-2.6,1.5-4.3c-0.5-1-1.3-1.7-2-2.6c-0.6-0.8-0.7-1.7-0.1-2.6c0.6-0.8,1.9-1,3-0.4
			C69.1,180,70.3,182.4,70.7,185.3z"/>
		<path class="st36" d="M74.4,281.3c-0.2,1.3-1.3,2.1-2.8,2.2c-1.2,0-2.3-0.6-2.5-1.7c-0.1-0.6,0.1-1.3,0.4-1.7
			c1.2-1.4,3.3-1.4,4.4,0.1C74.2,280.6,74.3,281.1,74.4,281.3z"/>
		<path class="st37" d="M73.6,259.3c-1.7,0.5-3.2,0.4-4.5-1c0-0.5,0-1.1,0-1.6c0.1-0.4,0.3-0.7,0.6-0.9c0.1-0.1,0.3-0.2,0.4-0.3
			c1.2-0.8,2.4-0.7,3.5,0.3C74.7,257,74.4,258.2,73.6,259.3z"/>
		<path class="st38" d="M69.7,255.8c-0.2,0.3-0.4,0.6-0.6,0.9C69.3,256.4,69.5,256.1,69.7,255.8z"/>
	</g>
</g>
</svg>
