<?xml version="1.0" encoding="utf-8"?>
<!-- Generator: Adobe Illustrator 26.3.1, SVG Export Plug-In . SVG Version: 6.00 Build 0)  -->
<svg version="1.1" id="simplemech_xA0_arm_2" xmlns="http://www.w3.org/2000/svg" xmlns:xlink="http://www.w3.org/1999/xlink"
	 x="0px" y="0px" viewBox="0 0 127.1 388.6" style="enable-background:new 0 0 127.1 388.6;" xml:space="preserve">
<style type="text/css">
	.st0{fill:#FFFFFF;}
	.st1{fill:#FF9900;}
	.st2{fill:#FE9900;}
	.st3{fill:#FEFEFE;}
	.st4{fill:#CCCDCD;}
	.st5{fill:#F7F8F8;}
	.st6{fill:#F9FAFA;}
	.st7{fill:#CBCBCB;}
	.st8{fill:#F7FAFA;}
	.st9{fill:#FC9902;}
	.st10{fill:#FAFBFB;}
	.st11{fill:#F1F4F4;}
	.st12{fill:#FCFBF9;}
	.st13{fill:#FBFCFC;}
	.st14{fill:#E6E7E7;}
	.st15{fill:#E3E5E5;}
	.st16{fill:#F6F9F9;}
	.st17{fill:#F6F5F3;}
	.st18{fill:#F59300;}
	.st19{fill:#FCF7F4;}
	.st20{fill:#F89702;}
	.st21{fill:#E8E9E9;}
	.st22{fill:#E48900;}
	.st23{fill:#E5ECEC;}
	.st24{fill:#F3F0F0;}
	.st25{fill:#EAEFEF;}
	.st26{fill:#F5FAFA;}
	.st27{fill:#F5EFED;}
	.st28{fill:#EAEEEE;}
	.st29{fill:#E5EBE6;}
	.st30{fill:#ED8A03;}
	.st31{fill:#E4E8E8;}
	.st32{fill:#120E00;}
	.st33{fill:#231F1F;}
	.st34{fill:#090808;}
	.st35{fill:#1F1313;}
	.st36{fill:#262121;}
</style>
<g>
	<g>
		<path class="st0" d="M95.3,61.2c6.3,12.2,7.9,24.5,5.1,37.5c-0.8,3.8-2,7.4-3.8,10.8c-1.3,2.3-3.1,3.6-5.7,3.7
			c-2.1,0.1-4.2,0.1-6.2,0.1c-1.7,0.1-2.1,0.4-2.1,1.9c0,5.6,0,11.2,0,16.8c0,1,0.6,1.4,1.5,1.4c2.6-0.1,5.1,0.1,7.5,1.1
			c2.5,1,4.4,2.6,5.3,5.2c0.3,0.9,0.8,1.8,1,2.7c0.5,2.7,1.9,4.4,4.3,5.8c2.4,1.4,3.6,4,4.5,6.6c1.4,4.4,1.6,8.8,0.8,13.3
			c-0.6,3.5-2.4,6.3-5.2,8.3c-1.6,1.1-2.2,2.5-2.5,4.3c-0.4,2.7-1.1,5.3-1.8,7.9c-1.1,4.5-4.1,7.1-8.5,8.1c-0.6,0.1-1.2,0.3-1.9,0.4
			c-0.9,0.2-1.4,0.6-1.2,1.6c0.3,1.5,0.2,3.2,1.3,4.5c1.4,1.7,1.8,3.7,1.7,5.9c-0.1,1.4,0.5,2.4,1.4,3.4c2.6,2.9,4.1,6.4,5.3,10.1
			c2.2,6.5,3.7,13.2,4.7,20c2.3,15.6,2.2,31.2,1.4,46.9c-0.2,3.8-0.4,7.7-0.5,11.5c-0.1,7.2-1.2,14.3-2.1,21.4
			c-0.4,3.2-2.2,5.7-5.1,7.2c-1.4,0.7-1.7,1.7-1.6,3.1c0.2,1.9,0.3,3.8,0.4,5.7c0.5,6.7,1,13.4,1.5,20c0.4,5.3-1.3,9.7-5,13.4
			c-5.6,5.6-11.8,10.4-18.6,14.2c-6.5,3.7-13.6,3.3-20.2-0.2c-2.2-1.2-4.3-2.8-6.2-4.5c-1.4-1.3-2.6-2.1-4.6-1.8
			c-2.6,0.4-5.1-0.1-7.6-0.8c-8.4-2.3-13.6-9.7-12.6-18.4c0.3-2.7,1.2-5.3,1.9-7.9c0.6-2.2,1-4.2,0.9-6.5c-0.3-5.1,0.6-10.2,2.6-15
			c0.4-0.9,0.7-1.8,1.2-2.6c0.4-0.8,0.2-1.6-0.4-2.1c-2.2-2-2.5-4.6-2.9-7.3c-1.2-9.4-1.2-18.8-0.9-28.2c0.6-16.1,1.4-32.2,4.4-48.1
			c1.5-7.6,3.3-15,7.1-21.8c0.5-0.8,0.8-1.8,1.4-2.5c1.5-1.9,2.8-3.8,2.1-6.5c-0.2-0.7,0.1-1.6,0.3-2.3c1.3-3.9,2.6-7.8,4.1-11.7
			c0.4-1,0.4-1.8,0.1-2.7c-0.6-2.1-1.3-4.3-1.6-6.5c-0.6-4.9,0.5-9.6,3.1-13.8c1.2-2,1.8-3.9,1.2-6.3c-0.5-1.8-0.3-3.8-0.3-5.7
			c-0.1-12.6-0.1-25.2-0.1-37.9c0-0.3-0.2-0.5-0.3-0.8c-1.2-0.3-1.6,0.8-2.2,1.4c-5.2,4-12,4.2-17.4,0.5c-3-2.1-5-4.6-6.3-8.1
			c-4.4-12.2-9.1-24.2-13.6-36.3c-1.2-3.3-2.4-6.6-3.5-9.9c-2.1-6.4-0.3-12,4.3-16.7c2.5-2.5,5.6-3.6,9.1-3.5
			c1.4,0.1,2.4-0.2,3.4-1.3c7.1-8.2,15.7-14.5,24.6-20.4C57.9,19.5,74.6,11.7,92.3,5.9c6.2-2,12.6-3.3,19-4.7
			c2.8-0.6,5.7-0.9,8.5-1.1c3.8-0.4,6.4,1.4,7.2,4.8c0.2,1,0.1,2.2-0.2,3.2c-0.5,1.8-1.2,3.7-2.1,5.3c-6.6,12-12.9,24.3-20.7,35.6
			C101.3,53.1,98.3,57.1,95.3,61.2z"/>
		<path d="M89.3,61.7c7,10,8.6,20.7,7.1,32c-0.4,3-1.2,6-1.9,8.9c-0.3,1.2-1,2.4-1.4,3.5c-0.8,2-2.2,3-4.5,2.9
			c-2.1-0.1-4.2-0.1-6.2-0.1c-0.8,0-1.6-0.2-2.4-0.1c-1.9,0.1-2.5,0.8-2.5,2.7c0,6.2,0,12.5,0,18.7c0,2.2,0,4.5,0.1,6.7
			c0,1.1,0.7,1.8,1.8,1.8c2.1,0,4.2,0,6.2,0.1c1.3,0.1,2.5,0.2,3.8,0.5c1.6,0.4,2.9,1.4,3.4,3.1c0.6,2.1,1.3,4.3,1.8,6.4
			c0.3,1.3,0.7,2.3,2.4,2.6c2.7,0.4,4.1,2.3,5,4.7c1.5,4,1.4,8.2,0.6,12.3c-0.4,2.3-2,4.1-4.1,5c-2,0.8-2.5,2.1-2.7,4
			c-0.4,2.5-1,5-1.5,7.5c-0.2,0.8-0.4,1.6-0.6,2.3c-1.2,3.7-3.1,5.3-6.9,5.4c-2.4,0.1-4.8-0.2-7.2-0.2c-0.5,0-1.1,0.3-1.5,0.7
			c-0.2,0.2,0.1,0.9,0.3,1.2c0.5,0.6,1.2,1.1,1.5,1.8c0.8,1.6,1.7,3.2,1.9,4.8c0.3,2.2,0.2,4.3,2.2,5.9c1.1,1,0.9,2.7,0.5,4.1
			c-0.4,1.5,0.1,2.4,1.1,3.4c3.4,3.1,5.2,7.3,6.5,11.6c2.7,8.9,4.5,18,5.1,27.2c0.9,12.8,0.9,25.5,0.1,38.3
			c-0.3,3.8-0.1,7.7-0.4,11.5c-0.5,6.3-1.3,12.7-2,19c-0.3,2.1-1.7,3.6-3.6,4.2c-3.4,1-3.6,3.1-3.2,6.2c0.9,7.9,1.4,15.9,2,23.9
			c0.1,1.3,0.1,2.6,0.2,3.8c0.2,3.1-0.9,5.7-2.9,7.9c-1.7,1.9-3.6,3.7-5.6,5.2c-3.5,2.8-7.1,5.4-10.8,8c-5.7,3.9-11.7,3.8-17.7,0.7
			c-2.2-1.2-4.3-2.8-6-4.7c-1.7-2-3.3-2.6-5.8-2.2c-1.7,0.3-3.5,0.2-5.3,0c-6.6-0.7-11.9-5.8-11.2-13c0.3-2.8,1.1-5.6,1.9-8.4
			c0.7-2.3,1.1-4.5,0.9-7c-0.6-6.9,1.6-13.2,5.1-19.1c0.9-1.5,0.8-1.6-0.6-2.6c-0.3-0.2-0.5-0.4-0.8-0.5c-2.1-1.2-2.8-2.9-3.1-5.4
			c-1.4-11-1.3-22-0.7-33c0.4-6.7,0.8-13.4,1.3-20.1c0.6-8.4,1.6-16.9,3.4-25.1c1.8-8.5,4.5-16.7,10.4-23.4c0.6-0.7,0.7-1.4,0.3-2.2
			c-1.3-2.6-0.6-4.9,1-7.2c0.5-0.7,1.1-1.7,1-2.5c-0.1-2.6,0.7-4.7,2.4-6.6c0.9-1,0.7-2,0.1-3c-1.2-2.3-2-4.7-2.3-7.3
			c-0.4-4.5,0.7-8.6,3.3-12.2c1.4-2,1.7-3.9,1.4-6.2c-0.5-4.9-0.8-9.9-0.8-14.8c-0.1-13.7,0-27.5,0-41.2c0-1.1,0-2.2,0-3.4
			c0-1-0.6-1.4-1.5-1.4c-1.1,0-2.3-0.1-3.3,0.2c-2,0.5-2.9,1.7-2.9,3.8c0,0.6,0.1,1.3,0.1,1.9c0.1,3.7-1.5,6.5-4.7,8.2
			c-3.5,1.8-6.7,1.3-9.8-1c-2.1-1.6-3.6-3.4-4.5-5.9c-5.6-15.1-11.2-30.2-16.8-45.4C4,66.7,4.9,62.9,7.8,59.7
			c2.3-2.6,5.1-3.8,8.6-2.7c1.2,0.4,2.1,0.4,2.9-0.7C24.8,49,32,43.3,39.4,38c19.5-13.7,40.8-23.8,63.9-29.9
			c5.1-1.3,10.3-2.2,15.6-2.6c0.6-0.1,1.3-0.1,1.9-0.1c0.8,0,1.5,0.8,1.2,1.7c-0.6,1.8-1.2,3.7-2.1,5.3c-4.8,8.7-9.4,17.5-14.5,25.9
			c-4.1,6.7-8.8,12.9-13.3,19.4C91.2,59,90.3,60.3,89.3,61.7z"/>
		<path class="st1" d="M39.4,355.6c-2.6-1-4-3.1-5.2-5.3c-0.6-1-0.7-2.4-0.8-3.6c-0.1-7.1,2.2-13.4,6.4-19.1c2.7,0.7,5.3,1.6,7.9,2
			c7.1,1.1,14.3,1.5,21.4,0.9c2.5-0.2,5.1-0.3,7.6-0.4c4.5,6.5,4.9,14,4.7,21.4c-0.1,3.2-3.7,4.9-7.3,4.6c-2-0.2-3.6-1.3-5.4-1.9
			c-1.4-1.3-2.7-2.5-4.1-3.8c-1.2-1.1-1.6-2.2-0.6-3.7c0.2-0.3-0.1-1.4-0.4-1.6c-0.3-0.2-1.2,0-1.6,0.3c-1.5,1.1-2.8,2.4-4.3,3.6
			c-2.6,1.1-4.7,3.1-7.2,4.4C47.1,355.2,43.4,356.2,39.4,355.6z"/>
		<path class="st2" d="M66.4,165.9c-4,0.4-7.9,1.3-11.3,3.4c-0.8,0.5-1.5,0-1.5-1c0-2.4,0.2-4.8,0.2-7.2c0.1-15.8,0.1-31.6,0.1-47.4
			c0-1.1-0.1-2.3,0.1-3.3c0.1-0.5,0.7-1,1.1-1.2c0.4-0.2,0.9-0.1,1.4-0.1c2.8,0.1,5.7,0.3,8.5,0.4c1.4,2.7,0.5,5.6,0.5,8.4
			c0,5.6,0.4,11.2,1.2,16.7c0.1,0.4,0.5,0.8,0.7,1.1c0.3-0.4,0.8-0.8,0.9-1.3c0.3-0.9,0.5-1.8,0.7-2.7c2.5,4.3,1.6,8.7,0.7,13.2
			c-2,2.1-2.1-0.5-3.4-1.6c0.7,1.7,2.1,2.3,2.6,3.4C70,153.4,68.6,159.7,66.4,165.9z"/>
		<path class="st3" d="M36.9,111.4c-0.4,1.7-0.7,3.5-1.4,5.1c-1,2.3-3.9,2.8-5.5,1c-1-1.2-1.7-2.7-2.3-4.1
			c-4.8-12.2-9.5-24.4-14.2-36.5c-0.9-2.4-1.9-4.8-3-7c-1.1-2.1-0.8-4,0.2-5.9c1.4-2.6,3.4-3.1,5.9-1.5c2,1.2,3.2,2.9,4,5.2
			c4.5,12.4,9.2,24.8,13.8,37.2c0.6,1.5,1.3,2.9,1.8,4.4C36.5,109.8,36.7,110.6,36.9,111.4z"/>
		<path class="st4" d="M74,103.3c-8.5,0.5-18.2,0.4-22.2-0.3c1.4-1.9,3.2-3.2,4.7-4.7c1.6-1.6,3.2-3.1,4.8-4.7
			c1.6-1.6,3.1-3.2,4.7-4.8c1.4-1.5,2.8-3,4.2-4.6c1.5-1.6,3-3.3,4.5-5c1.5-1.7,3-3.3,4.7-5.2c0.7,0.8,1.4,1.5,1.8,2.2
			c2,3.7,2.7,7.8,3.2,12c0.2,1.6,0.5,3.1,0.9,4.7c0.3,1,0.5,1,2,0c1.4,3.6,0.1,6-3.4,7.5C80.7,101.7,77.2,102.1,74,103.3z"/>
		<path class="st5" d="M54.3,324.8c7.4-1.6,13.9-3.1,20.4-4.5c0.3-0.1,0.6-0.1,0.9-0.2c3-1.1,6-2.1,9-3.2c1.3-3,1.5-6.1,1.8-9.3
			c0.8-7.6,1.6-15.2,2.2-22.8c0.2-2.8,0-5.7,0-8.6c0-1.6,0-3.2,0.1-4.8c0.1-0.6,0.5-1.2,0.9-1.6c0.3-0.3,0.9-0.4,1.3-0.3
			c0.4,0.1,0.8,0.6,0.8,0.9c0.1,1.1,0.1,2.2,0.1,3.3c-0.3,7.3-0.5,14.7-0.8,22c-0.2,5.4-0.5,10.8-0.7,16.3c-0.1,2.2,0,4.5,0.3,6.7
			c0.1,1.2-0.4,1.8-1.3,2.2c-3.4,1.6-7,2.2-10.6,2.8c-7.3,1.1-14.6,1.7-21.9,1.3C56.2,325.1,55.6,325,54.3,324.8z"/>
		<path class="st6" d="M80.3,217.2c3.3,1.9,4.8,4.9,5.7,8.1c3.4,12.2,5.5,24.6,5.7,37.3c0,0.5,0,1,0,1.4c0,0.9-0.5,1.5-1.4,1.6
			c-6,0.7-11.7,2.8-17.9,2.8c-5.7-0.1-11.5-0.1-17.2-0.2c-0.5,0-1.1-0.1-1.6-0.5c2.2-0.3,4.3-0.6,6.5-0.8c5-0.5,9.7-1.9,14.4-3.4
			c3.6-1.2,7.3-2.3,10.9-3.5c1.3-0.4,1.9-1.1,1.8-2.4c-0.1-3.8,0.1-7.7-0.2-11.5c-0.4-4.4-1-8.9-1.7-13.3c-0.8-4.7-2.1-9.3-4.2-13.7
			C80.8,218.6,80.6,217.9,80.3,217.2z"/>
		<path class="st7" d="M69.9,194.5c-2.4,2.4-5.5,3.1-8.7,3.2c-4.7,0.1-7.8-2.1-9.6-6.5c-1.3-3.3-1.3-6.5,0.1-9.8
			c1.6-3.6,3.9-6.5,7.6-8.1c9.1,1.7,12.7,7.1,10.7,16C69.7,191.1,69.7,192.8,69.9,194.5z"/>
		<path class="st8" d="M115.1,9.9c-1.1,2-1.7,3.5-2.6,4.6c-0.7,0.7-1.9,1.1-2.9,1.4c-3.9,1-7.8,1.6-11.6,2.7
			c-12.8,3.8-24.7,9.3-35.7,16.9c-1.3,0.9-2.6,1.7-4.1,2.7c-0.7-1.6-1.2-2.9-1.9-4.4C74.6,23.1,94,15.5,115.1,9.9z"/>
		<path class="st9" d="M60.6,362.6c0-3.1,0.6-5.9,2-8.7c0.5,0.2,0.8,0.3,1,0.5c3.2,3.6,7.3,5.6,11.7,7.1c1.5,0.5,3.1,0.7,4.6,1.1
			c0.8,0.2,2.1-0.4,2.4,0.8c0.1,0.6-0.6,1.4-1.2,1.9c-1.5,1.3-3.2,2.6-4.8,3.8c-0.3,0.1-0.6,0.2-0.9,0.3
			C66.3,374.5,62.6,372.8,60.6,362.6z"/>
		<path class="st10" d="M74,103.3c0.6-1,1.5-1.5,2.6-1.9c2.7-0.8,5.3-1.8,8-2.7c1-0.3,1.6-0.8,1.8-1.9c0.2-1.4,0.6-2.7,0.9-4.1
			c1.8-8.2-0.4-15.4-5-22.4c1.1-1.4,2.1-2.7,3.3-4.2c1.6,1.3,2.2,3,2.8,4.5c1.5,3.5,2.4,7.3,2.7,11.1c0.6,6.7,0.4,13.4-0.7,20
			c-0.3,1.7-0.4,1.8-2.1,1.8C83.5,103.9,78.7,104.1,74,103.3z"/>
		<path class="st11" d="M65.3,66.8c-3-2.4-4.4-5.3-5.6-8.1c-1.8-4.2-3.5-8.6-5.1-12.9c-1.4-3.5-2.6-4.3-6.1-3
			c-2.4,0.8-4.8,1.9-6.8,3.4c-4.3,3.3-8.4,6.8-12.5,10.4c-1.9,1.7-3.7,3.6-5.5,5.3c-0.2,0.1-0.6,0.1-0.8,0c-0.1-0.1-0.2-0.6-0.1-0.7
			c1.6-2,3-4.1,4.8-5.9c7.5-7.5,16-13.6,25-19.2c1.2-0.7,1.7-0.6,2.2,0.6C58,46,61.4,55.2,64.7,64.5C64.9,65.1,65,65.7,65.3,66.8z"
			/>
		<path class="st12" d="M68.1,145.6c0.2-0.4,0.6-0.8,0.7-1.2c0.1-4.2,0.2-8.4,0.3-12.7c0.3-5.6,0.6-11.1,0.8-16.7
			c0.1-1.4,0.1-2.9,0.1-4.3c0-0.8,0.2-1.7,1.3-1.5c1.1,0.1,0.9,1.1,1,1.8c0,0.2,0,0.3,0,0.5c0,17.4,0,34.7,0,52.1
			c0,3.5-0.1,4-3.7,2.8c-0.4-0.1-0.7-0.2-1.1-0.3c-0.4-0.1-0.8-0.2-1.2-0.2c0.1-1.9,0.2-3.8,0.4-5.7
			C67.4,155.3,68.6,150.5,68.1,145.6L68.1,145.6z"/>
		<path class="st13" d="M69.9,194.5c-1-0.2-1.9-0.7-1.7-1.9c0.2-1.4,0.3-2.9,0.9-4.1c2.9-6.2-1.9-10.9-6.1-13.1
			c-1.2-0.6-2.8-0.7-3.6-2.1c2.6-2,5.6-2.3,8.6-1.8c4.6,0.7,7,2.8,7.7,7.8C76.6,185.4,75.2,190.7,69.9,194.5z"/>
		<path class="st14" d="M40,319.7c1.3-6.2,1.6-11.9,2-17.6c0.7-9.9,1.4-19.8,0.7-29.7c0-0.6,0.1-1.3,0.2-1.9
			c0.1-0.2,0.5-0.3,0.8-0.4c0.1,0,0.3,0.1,0.3,0.2c0.3,0.7,0.7,1.5,0.7,2.2c0,2.7,0.1,5.4-0.1,8.1c-0.9,12.9-0.6,25.9-0.3,38.8
			c0,1,0.1,1.9,0.1,2.9c0,0.3-0.7,0.8-1,0.8c-3.7-0.4-7.1-1.8-10.2-3.9c-1.2-0.8-0.8-2-0.5-3c0.1-0.3,0.8-0.6,1-0.5
			c1.4,0.8,2.7,1.7,4,2.6C38.4,318.7,38.9,319,40,319.7z"/>
		<path class="st15" d="M42,262.7c1.5-4.4,1.5-8.8,2.1-13c1.2-8.8,2.4-17.7,4.5-26.4c0.1-0.6,0.3-1.2,0.4-1.9
			c0.6-2.1,0.7-2.1,3.6-1.4c-2,5.7-3.8,11.5-4.8,17.5c-1.5,8.3-2.6,16.7-2.7,25.1c0,1,0,1.9-0.1,2.9c-0.1,1.2-0.7,1.6-2,1.2
			c-2-0.6-4-1.2-5.9-1.9c-2.4-0.8-2.5-1.1-2.3-3.4c0.2-2.7,0.7-2.9,3.1-1.4C39.2,260.9,40.5,261.7,42,262.7z"/>
		<path class="st13" d="M61.9,207.5c-2.1-0.1-4-0.2-5.9-0.4c-1.4-0.2-2.8-0.6-4.1-1.1c-2.2-0.8-2.5-2.1-1.1-4.1
			c0.6-0.9,1.3-1.2,2.4-0.7c7.3,3.5,13.9,2,20-2.9c0.6-0.5,1.2-1.2,2-0.7c1.3,0.8,2.6,4.1,2,5.5c-0.3,0.7-0.9,1.5-1.5,1.7
			c-2.4,0.9-4.8,1.7-7.3,2.2C66.2,207.4,63.9,207.3,61.9,207.5z"/>
		<path class="st16" d="M59.7,215.7c-2.2,0-4.5,0.1-6.7,0c-1.4-0.1-2.8-0.5-4.2-1c-0.7-0.2-1.4-0.8-1.9-1.4
			c-0.7-0.8-0.8-1.7-0.2-2.6c0.6-1,1.4-1.2,2.4-0.7c4.2,1.8,8.6,2.1,13.1,2c5.9-0.1,11.8-0.4,16.8-4.3c0.4-0.4,1.1,0.3,1.3,1
			c0.3,1.1-0.2,1.9-0.8,2.6c-1.1,1.4-2.6,2.4-4.4,2.7c-3.3,0.6-6.6,1.3-9.9,1.7C63.5,215.8,61.6,215.6,59.7,215.7
			C59.7,215.6,59.7,215.7,59.7,215.7z"/>
		<path class="st17" d="M68.8,354c0.9,0.1,1.9,0.3,2.8,0.4c1.3,0.1,2.5,0.4,3.8,0.3c4.4-0.3,5.3-1.2,5-5.6c-0.1-2.9-0.5-5.7-1.1-8.5
			c-0.7-3.6-1.7-7.1-2.5-10.7c0.7-0.3,1.5-0.7,2.2-0.8c0.7-0.1,1.5,0,2.5,0c0.2,1.9,0.4,3.8,0.6,5.7c0.6,7.5,1.2,15,1.7,22.4
			c0.2,2.1-0.3,2.5-2.5,2.2C76.7,358.7,72.5,357.1,68.8,354z"/>
		<path class="st18" d="M48.1,370.7c3.1-4.3,6-8.4,9-12.5c1.1,0.2,0.7,1,0.6,1.5c-0.9,5.2-1.1,10.4-0.1,15.7c0.1,0.4-0.1,1-0.4,1.2
			c-0.3,0.2-1,0.1-1.3-0.2C53.3,374.6,50.7,372.7,48.1,370.7z"/>
		<path class="st19" d="M60.6,362.6c0.7,1.6,1.4,3.2,2.2,4.7c2,3.9,4.4,4.9,8.6,3.6c1.7-0.5,3.3-1.2,4.9-1.7c-1,0.8-1.9,1.6-2.9,2.4
			l-0.1,0.1c-1.9,1.4-3.8,2.9-5.8,4.1c-1.3,0.8-2.8,1.4-4.3,1.9c-1.6,0.5-2.2,0-2.5-1.8C60,371.4,59.4,367,60.6,362.6z"/>
		<path class="st20" d="M32.4,366.5c-1.6-1.2-1.9-3-1.7-4.7c0.2-2.7,0.6-5.4,1-8.6c2,1.8,3.5,3.4,5.2,4.7c1.8,1.3,3.8,2.3,5.7,3.4
			C40.7,365.5,37.4,367.2,32.4,366.5z"/>
		<path class="st21" d="M80.7,247c-0.1,0.8-0.1,1.3-0.2,1.8c-0.2,0.9-1.1,1.6-2.1,1.6c-0.9-0.1-1.6-0.6-1.7-1.4
			c-0.3-1.7-0.7-3.5-0.6-5.2c0.5-6.2-1.3-11.9-3.6-17.5c-0.2-0.5-0.2-1.2-0.2-1.8c0-0.1,0.2-0.3,0.3-0.3c0.3-0.1,0.7-0.2,0.9-0.1
			c0.4,0.3,0.7,0.6,0.9,1.1c0.9,1.9,1.8,3.7,2.4,5.7c1.2,4,2.2,8,3.2,12C80.3,244.2,80.5,245.8,80.7,247z"/>
		<path class="st22" d="M88.8,148.9c1.5,2.6,1.6,4.9,1.2,7.3c-0.4,2-0.6,4.1-0.9,6.1c-0.3,2.7-0.1,5.4,1,7.9c1.2,2.6,1,5.3-0.1,7.9
			c-0.1,0.3-0.7,0.5-1,0.8c-0.2-0.3-0.6-0.7-0.7-1c-0.4-2.2-1-4.4-1.1-6.6C87,167,87,162.5,86.9,158C86.9,155,88,152.3,88.8,148.9z"
			/>
		<path class="st23" d="M50.9,256.6c0.1-1.9,0.7-3.3,1.9-4.5c0.9-0.9,1.9-1.1,3-0.8c0.7,0.2,1.5,0.5,2.2,0.8c2.4,1,3.7,3.3,3.3,5.6
			c-0.4,2.3-2.6,4.3-4.9,4.5c-2.2,0.2-4.1-1.2-5-3.6C51.1,257.9,51,257.1,50.9,256.6z"/>
		<path class="st19" d="M39.4,355.6c0.5-0.3,1-0.7,1.6-0.8c4.4-0.2,8.2-1.8,11.8-4.2c1-0.7,2.1-1.3,3.3-1.8c0.5-0.2,1.2,0,1.7,0
			c-2.2,2.7-4.4,5.3-6.5,8.1c-1.1,1.4-2.4,1.9-4.1,1.7C44.3,358.4,41.8,357.3,39.4,355.6z"/>
		<path class="st24" d="M86.1,145c-0.5,2.1-1,4.2-1.5,6.4c-0.7,2.7-0.7,2.7-3.5,2.7c-3.8,0.1-4.2-0.3-3.5-4c1.2-6,1.8-6.4,7.9-5.5
			C85.7,144.6,85.8,144.8,86.1,145z"/>
		<path class="st25" d="M60.6,281.2c0,2.2-1.4,3.9-3.5,5c-2,1-4.4,0.6-5.7-0.9c-1.3-1.6-1.6-4.1-0.2-5.7c1.1-1.3,2.6-2.3,4.1-3.1
			c0.7-0.4,1.9-0.1,2.7,0.3C59.8,277.5,60.6,279,60.6,281.2z"/>
		<path class="st6" d="M82.3,170.4c-1.7,0-3.2,0-5.1,0c-0.3-1.9,0.2-3.8,0.1-5.6c0-1.9,0-3.8,0.2-5.7c0-0.4,0.8-0.9,1.3-1
			c0.9-0.1,1.9-0.1,2.8,0.1c0.4,0.1,1.1,0.8,1.1,1.2c0.1,3,0,6.1,0,9.1C82.6,169.1,82.5,169.7,82.3,170.4z"/>
		<path class="st26" d="M78.7,173.8c1.1-0.1,2.1-0.3,3-0.2c0.5,0.1,1.2,0.6,1.4,1c1,4,2,8,3,12.2c-2.1,0-3.9,0-6.1,0
			C80.8,182.3,80.5,178.1,78.7,173.8z"/>
		<path class="st27" d="M32.4,366.5c3.8-0.9,7.5-2.1,10.2-5.2c1.4,0.1,2.8,0.2,4.2,0.3C44.8,369.4,37.6,371,32.4,366.5z"/>
		<path class="st28" d="M70.7,50.8c-1.9,0.1-3.4-1.3-3.5-3c0-1.9,1.6-3.6,3.6-3.7c1.7-0.1,3.4,1.4,3.5,3.2
			C74.4,49.2,72.9,50.7,70.7,50.8z"/>
		<path class="st14" d="M52.2,58.6c0,1.9-1.6,3.5-3.3,3.4c-1.6-0.1-2.9-1.6-2.9-3.2c0-1.9,1.5-3.4,3.3-3.3
			C50.9,55.5,52.2,56.9,52.2,58.6z"/>
		<path class="st29" d="M92.2,161.2c0.1-1.2,0.1-2.5,0.3-3.7c0.1-0.8,0.9-1.4,1.7-1.2c0.7,0.1,1.6,0.4,1.9,0.9
			c1,1.6,1.1,3.6,0.8,5.5C94.6,164.5,93.5,162.6,92.2,161.2z"/>
		<path class="st30" d="M92.2,161.2c1.5,0.9,3,1.5,4.7,1.4c0,1.1,0.1,2.2,0,3.3c-0.1,1.2-1,1.9-2.1,2.2c-0.7,0.2-1.3,0.1-1.6-0.5
			C92.4,165.6,91.8,163.5,92.2,161.2z"/>
		<path class="st31" d="M71.3,238c-0.2,0.6-0.3,1.3-0.6,1.8c-0.4,0.8-1.7,1.2-2.5,0.8c-1.4-0.8-2.3-3-1.5-4.5
			c0.3-0.6,1.2-1.2,1.8-1.2c0.7,0,1.5,0.4,2,1C71,236.3,71,237.2,71.3,238z"/>
		<path class="st2" d="M67.5,166.1c0.4,0.1,0.7,0.2,1.1,0.3C68.3,166.3,67.9,166.2,67.5,166.1z"/>
		<polygon class="st9" points="73.4,371.6 73.4,371.4 73.5,371.5 73.6,371.7 		"/>
		<path class="st32" d="M68.2,145.5c-1.1,0-2.3,0.6-3-0.6c-0.4-0.6-0.7-1.4-0.7-2.2c0-1.2,0.9-2,2.1-2.1c1.1-0.1,2,0.8,2,2.1
			C68.5,143.7,68.3,144.6,68.2,145.5C68.1,145.6,68.2,145.5,68.2,145.5z"/>
		<path class="st33" d="M81.5,87c0,0.8,0,1-0.1,1.1c-0.4,1-0.9,1.9-1.3,2.9c-1.5-0.2-1.5-1.4-1.8-2.4c-0.4-1.7-0.8-3.4-1-5.1
			c-0.1-0.5,0.4-1.2,0.8-1.5c0.8-0.6,1.7,0,1.9,0.7C80.8,84.3,81.2,86,81.5,87z"/>
		<path class="st34" d="M56.6,184.7c0-1.8,1.3-4.1,3.6-5.8c0.6-0.4,1.4-0.6,2.2-0.7c1.4-0.1,2.4,1.5,1.7,2.6
			c-0.5,0.8-1.3,1.4-1.7,2.2c-0.4,0.8-0.8,1.7-0.9,2.6c-0.1,1,0.2,1.9,1.2,2.4c0.9,0.4,1.8,0.6,2.6,1c1,0.4,1,1.6,0.1,2.3
			c-2.1,1.7-4.5,1.7-6.4-0.1C57.4,189.8,56.6,187.9,56.6,184.7z"/>
		<path class="st35" d="M55.4,255.1c1.5,0,2.8,1.2,2.7,2.6c-0.1,1.3-1.1,2.2-2.5,2.3c-1.6,0.1-2.8-1.1-2.7-2.6
			C53,256.2,54.1,255.1,55.4,255.1z"/>
		<path class="st36" d="M55.3,279.1c1.5-0.1,2.9,1.2,2.8,2.5c-0.1,1-1.2,2-2.3,2.1c-1.6,0.1-3.1-1-3.1-2.3
			C52.8,280.3,54,279.2,55.3,279.1z"/>
	</g>
</g>
</svg>
