<?xml version="1.0" encoding="utf-8"?>
<!-- Generator: Adobe Illustrator 26.3.1, SVG Export Plug-In . SVG Version: 6.00 Build 0)  -->
<svg version="1.1" id="start_x5F_button_xA0_Image_1_"
	 xmlns="http://www.w3.org/2000/svg" xmlns:xlink="http://www.w3.org/1999/xlink" x="0px" y="0px" viewBox="0 0 262.9 123.4"
	 style="enable-background:new 0 0 262.9 123.4;" xml:space="preserve">
<style type="text/css">
	.st0{fill:#FF9900;}
	.st1{fill:#FCFDFD;}
	.st2{fill:#FEFEFE;}
	.st3{fill:#FDFEFE;}
	.st4{fill:#FDFDFD;}
	.st5{fill:#FAFCFC;}
	.st6{fill:#F3F6F6;}
	.st7{fill:#B8BABA;}
	.st8{fill:#8CA7A7;}
	.st9{fill:#050404;}
	.st10{fill:#302828;}
</style>
<g>
	<g>
		<path d="M131.8,123.4c-21.3,0.1-41.9-2-62.2-7c-12.1-3-23.9-6.9-35.1-12.5c-6.6-3.3-12.8-7.2-18.4-12C12,88.3,8.2,84.4,5.4,79.7
			c-7.2-11.9-7.2-23.9-0.1-35.8C8.3,39,12.1,35,16.4,31.4c8-6.8,17.1-11.7,26.7-15.7c13-5.4,26.6-9,40.4-11.5
			c21.2-3.9,42.6-4.8,64-3.6c23.1,1.2,45.7,5.1,67.4,13.3c8.5,3.2,16.7,7.1,24.3,12.2c4.4,2.9,8.5,6.2,12.2,10.1
			c2.9,3,5.4,6.3,7.3,10c5.4,10.4,5.5,20.8,0.1,31.2c-2.8,5.5-6.9,10-11.5,14c-5.8,5.1-12.3,9.1-19.2,12.6
			c-12.3,6.2-25.4,10.4-38.8,13.4C170.3,121.6,151,123.5,131.8,123.4z"/>
		<path class="st0" d="M131.7,117.9c-23.6-0.3-46.5-2.6-69-9.2c-10.5-3.1-20.6-6.9-30.1-12.3c-6.2-3.5-11.9-7.5-16.8-12.6
			c-2.4-2.6-4.6-5.3-6.3-8.4c-4.9-9-5-18,0-27c2.8-5.1,6.7-9.3,11.2-13c5.4-4.5,11.5-8.1,17.8-11.2c11.5-5.6,23.7-9.5,36.2-12.3
			c23.9-5.4,48.1-6.9,72.4-5.6c19.8,1.1,39.4,4.1,58.4,10.3c9.6,3.1,18.9,7,27.5,12.3c5.2,3.2,10.1,6.8,14.3,11.2
			c2.5,2.7,4.8,5.6,6.5,8.9c4.5,8.6,4.5,17.1,0,25.7c-2.9,5.5-7,9.9-11.7,13.8c-8.3,6.7-17.6,11.5-27.5,15.4
			c-12.5,4.9-25.5,8.2-38.8,10.4C161.1,116.8,146.3,117.7,131.7,117.9z"/>
		<path d="M125.8,111.5c-15.8-0.1-36.9-2.2-57.5-7.6c-9.6-2.5-18.9-5.8-27.8-10.4c-5-2.6-9.8-5.5-13.9-9.3c-2.5-2.4-5-5-7-7.8
			c-6.4-9.2-6.4-19.4-0.2-28.7c2.8-4.2,6.3-7.6,10.3-10.6c5.4-4.1,11.3-7.2,17.5-9.9c11.5-5,23.5-8.2,35.8-10.5
			c22.9-4.4,46-5.1,69.2-3.6c18.2,1.2,36.1,4.3,53.5,10.2c7,2.4,13.7,5.2,20.1,8.9c4.7,2.7,9.2,5.8,13,9.8c2.1,2.2,4.1,4.6,5.6,7.1
			c5.1,8.6,5,17.3-0.1,25.9c-2.8,4.8-6.7,8.5-11.1,11.8c-5.8,4.4-12.1,7.7-18.8,10.5c-11.8,5-24.2,8.2-36.8,10.4
			C162.3,110.3,146.9,111.5,125.8,111.5z"/>
		<path class="st1" d="M27.9,77.2c-3.3-3-5.4-6.6-6.7-10.9c-1.4-4.7-0.5-9.2,1.7-13.4c2-3.9,4.9-7.1,8.3-9.8
			c4.4-3.7,9.4-6.6,14.6-9.1c10-4.8,20.5-8.1,31.3-10.4c22.3-4.8,44.9-6.5,67.6-5.3c1.1,0.1,2.2,0.2,4.1,0.4c-2.4,1.1-4.1,1.7-6,1.8
			c-4.1,0.3-8.3,0.8-12.4,0.8c-23.6-0.1-46.3,4.3-68.6,11.7c-8.9,2.9-17,7.3-24.4,13.1c-1.1,0.9-2.3,1.8-3.3,2.8
			C27.4,55,25,62.4,27.6,71.3c0.5,1.5,1.1,3,1.6,4.5C29.4,76.9,29,77.3,27.9,77.2z"/>
		<path class="st2" d="M156.7,63.2c2.4,1.4,4.4,2.6,6.4,3.8c1.8,1.1,3.6,2.1,5.3,3.3c0.8,0.5,1.4,1.3,2,2c0.7,1,0.3,2.5-0.9,2.7
			c-1.2,0.3-2.5,0.5-3.7,0.3c-2.9-0.4-5.4-1.8-7.8-3.4c-2.1-1.4-4.1-3-6.1-4.5c-1.2,0.3-0.8,1.3-0.9,2c-0.1,1.6,0,3.2-0.2,4.8
			c-0.2,1.9-1.6,3.2-3.4,3.5c-1.4,0.2-3-0.9-3.1-2.2c-0.1-0.9-0.1-1.9-0.1-2.9c-0.1-6.4-0.1-12.7-0.1-19.1c0-1.3,0.1-2.5-0.7-3.7
			c-0.9-1.6-0.3-3.1,0.8-4.3c0.4-0.5,0.9-1,1.4-1.3c5-3.5,10.3-5.6,16.6-4.9c6.4,0.7,10.3,7.9,7.3,13.6c-1.5,2.9-4,5-6.7,6.7
			C160.9,60.9,159,61.9,156.7,63.2z"/>
		<path class="st2" d="M139.6,75.5c0,1.7-0.7,2.5-1.7,3.1c-1.2,0.6-2.6,0.8-3.6-0.2c-1-1-2-2.2-2.4-3.5c-0.9-2.7-1.6-5.5-2.2-8.3
			c-0.3-1.3-0.8-2-2.2-2c-0.5,0-1-0.1-1.4-0.1c-3.4,0-3.8,0.3-4,3.7c-0.1,2.1-0.4,4.1-1.4,6c-0.9,1.7-2.5,2.3-4.5,1.7
			c-1.7-0.5-2.6-1.7-2.4-3.6c0.9-8.7,2.4-17.4,5.6-25.6c0.7-1.9,1.9-3.7,3-5.4c1.1-1.6,2.8-2,4.6-1.9c1.2,0.1,2.2,0.6,2.8,1.6
			c0.6,1,1.1,1.9,1.5,3c0.5,1.3,1,2.7,1.2,4.1c1.6,8.5,4.1,16.7,6.4,25C139.3,74,139.4,74.9,139.6,75.5z"/>
		<path class="st3" d="M64.8,78.1c-5.3,0-9.8-3.7-10.8-9c-0.2-1.2,0-2.2,0.8-3.1c1.1-1.3,2.7-1.4,3.6-0.1c0.5,0.6,0.8,1.4,1.1,2.1
			c1.6,2.9,3.6,3.9,6.7,3.3c0.8-0.1,1.5-0.4,2.3-0.7c2.1-0.8,2.6-2,0.9-3.5c-2.9-2.7-6-5.3-9.2-7.7c-2.4-1.8-4-4.1-4.8-6.9
			c-1.2-4.3,0.1-8,3.9-10.3c3.4-2,7-3.2,11-2.5c4.4,0.8,7.3,5.9,5.6,9.9c-0.9,2.2-3.6,2.5-5,0.6c-0.3-0.4-0.5-0.8-0.7-1.2
			c-0.6-0.9-0.5-2.3-1.9-2.5c-1.8-0.2-3.5,0-4.9,1.3c-1.3,1.2-1.6,3-0.3,4.3c2.2,2.1,4.5,4.1,6.9,5.9c2.5,1.8,4.6,4,6.3,6.5
			c2.6,4,1.6,8.6-2.3,11.3C72.1,76.9,68.4,78.3,64.8,78.1z"/>
		<path class="st4" d="M91.3,61.4c-0.2-4.1-0.3-8.3-0.5-12.4c-0.1-2.2-0.2-2.4-2.4-2.5c-1.8-0.1-3.5,0.1-5.3,0
			c-1.7,0-2.3-0.6-2.4-2.3c0-0.6,0-1.3,0-1.9c0.2-1.4,1-2.3,2.4-2.6c0.6-0.1,1.3-0.2,1.9-0.2c7.2,0,14.4,0.5,21.4,1.9
			c0.6,0.1,1.3,0.2,1.9,0.4c1.5,0.5,2.3,1.8,2.2,3.3c-0.1,1.4-1.3,2.9-2.7,3c-2.1,0.1-4.2,0.1-6.2-0.1c-4.4-0.5-4.3-0.3-4.2,3.8
			c0.3,6.9,0.4,13.7,0.5,20.6c0,0.8,0,1.6,0,2.4c-0.2,1.9-1.2,2.9-3,3.2c-2.3,0.4-3.8-0.6-3.8-3c-0.1-3.7-0.1-7.3-0.1-11
			c0-0.8,0-1.6,0-2.4C91.2,61.4,91.2,61.4,91.3,61.4z"/>
		<path class="st4" d="M184.3,61.2c-0.1-4.3-0.3-8.6-0.4-12.9c0-1.3-0.7-1.7-1.7-1.8c-1.9-0.1-3.8,0-5.7,0c-2,0-2.6-0.6-2.7-2.5
			c-0.1-3.3,0.8-4.5,4-4.6c3.2-0.1,6.4,0,9.6,0.3c4.4,0.4,8.9,1,13.3,1.8c2.2,0.4,3.2,1.8,2.9,3.7c-0.3,1.8-1.7,3-3.8,2.9
			c-2.4,0-4.8-0.3-7.2-0.5c-1.8-0.1-2.2,0.3-2.1,2.2c0.2,7.2,0.4,14.4,0.6,21.6c0,1.1,0.1,2.2-0.1,3.4c-0.3,2.5-3.2,4-5.4,2.7
			c-0.6-0.3-1.1-1.2-1.3-1.9c-0.2-1.1-0.2-2.2-0.2-3.3C184.2,68.6,184.2,64.9,184.3,61.2C184.3,61.2,184.3,61.2,184.3,61.2z"/>
		<path class="st5" d="M232.3,60.8c1.6,4.2,0.4,7.8-2.6,10.9c-1.2,1.3-2.4,2.5-3.8,3.6c-5.7,4.9-12.1,8.8-19,11.8
			c-1.9,0.8-3.9,1.2-5.9,1.6c-0.4,0.1-1.2-0.5-1.4-0.9c-0.1-0.5,0.2-1.3,0.5-1.6c0.9-0.7,1.9-1.2,2.9-1.7c5.8-3,11.3-6.5,16.5-10.5
			c4.5-3.4,8.3-7.4,11-12.4C231,61.2,231.2,60.2,232.3,60.8z"/>
		<path class="st6" d="M226.2,50.3c-2.6,0-4.6-2-4.5-4.5c0-2.1,1.8-4,3.9-4c2.3,0,4.5,2.3,4.6,4.6C230.2,48.6,228.4,50.3,226.2,50.3
			z"/>
		<path class="st7" d="M27.9,77.2c0.4-0.5,0.9-0.9,1.3-1.4c1.5,1.4,2.4,3,3.6,5.6C30.3,80.1,28.8,79,27.9,77.2z"/>
		<path class="st8" d="M232.3,60.8c-0.6,0.3-1.1,0.6-1.7,0.9c0-0.3-0.2-0.7-0.1-0.9c0.2-0.6,0.4-1.5,0.7-1.5
			C232.3,59.1,232.4,59.9,232.3,60.8z"/>
		<path class="st9" d="M150.8,58.1c0-2.7,0.2-4.8,0-6.8c-0.3-2.4,1-3.4,2.9-4.2c2.4-1,4.9-1.2,7.4-0.9c2.3,0.3,3.1,2.2,1.7,4.2
			c-0.6,0.9-1.4,1.7-2.3,2.4C157.8,55,154.8,56.6,150.8,58.1z"/>
		<path class="st10" d="M126.4,51.3c0.3,1.8,0.6,3.3,0.8,4.8c0.2,1.1-0.5,1.7-1.5,1.9c-1.5,0.4-2.1-0.1-1.7-1.6
			c0.3-1.4,0.7-2.7,1.2-4C125.3,52,125.8,51.8,126.4,51.3z"/>
	</g>
</g>
</svg>
