<?xml version="1.0" encoding="utf-8"?>
<!-- Generator: Adobe Illustrator 26.3.1, SVG Export Plug-In . SVG Version: 6.00 Build 0)  -->
<svg version="1.1" id="medium_box" xmlns="http://www.w3.org/2000/svg" xmlns:xlink="http://www.w3.org/1999/xlink" x="0px" y="0px"
	 viewBox="0 0 422.9 237.7" style="enable-background:new 0 0 422.9 237.7;" xml:space="preserve">
<style type="text/css">
	.st0{fill:#FFFFFF;}
	.st1{fill:#010101;}
	.st2{fill:#060606;}
	.st3{fill:#020202;}
	.st4{fill:#FF9900;}
	.st5{fill:#FEFEFE;}
	.st6{fill:#FEFDFD;}
	.st7{fill:#050300;}
	.st8{fill:#080500;}
</style>
<g>
	<g>
		<path class="st0" d="M211.1,237.6c-62.4,0-124.8,0-187.1,0.1c-5.6,0-10.3-1.5-14.7-4.7c-5.6-4-8.5-9.6-9-16.2
			C-0.2,210.9,0,204.9,0,199c0-45.6,0.1-91.2,0.1-136.8c0-12.8,0.1-25.6-0.1-38.4C0,18,1.6,12.7,5.4,8.4c4.5-5.2,10.3-8.3,17.5-8.3
			C81.1,0.1,139.4,0,197.6,0c67,0,134,0.1,201.1,0.1c1.3,0,2.6,0,3.8,0c2.1,0.1,4.1,0.5,5.9,1.7c1.1,0.7,2.3,1.2,3.4,1.8
			c3.1,1.6,5.4,3.9,7.2,6.9c2.5,4.2,3.9,8.6,3.9,13.6c-0.2,13.4-0.1,26.9-0.1,40.3c0,47.8,0,95.7,0,143.5c0,2.1-0.1,4.2,0,6.2
			c0.3,5-1.6,9.4-4,13.6c-1.8,3.1-4.6,5.3-7.7,7c-3.7,2-7.5,3-11.9,3C336.5,237.5,273.8,237.6,211.1,237.6z"/>
		<path class="st1" d="M211.6,231.6c-62.4,0-124.8,0-187.2,0.1c-3.5,0-6.6-0.7-9.6-2.4c-5.8-3.1-8.4-8.2-8.7-14.5
			c-0.3-7.2-0.1-14.4-0.1-21.6C6.1,137,6.1,80.7,6,24.4c0-3.7,1-6.9,2.6-10c1-2,2.5-3.7,4.5-4.9c3.3-2,6.6-3.3,10.8-3.3
			c117.3,0.1,234.5,0.1,351.8,0.1c8.2,0,16.3-0.1,24.5,0c6.8,0.2,11.8,3.3,14.8,9.5c1.3,2.8,1.9,5.6,1.9,8.8
			c-0.1,62.9-0.1,125.7,0,188.6c0,4-1.1,7.6-3.1,10.9c-0.9,1.5-2.1,2.9-3.5,3.9c-3.5,2.3-7.1,3.9-11.6,3.9
			C336.3,231.6,274,231.6,211.6,231.6z"/>
		<path class="st0" d="M211.3,224.5c-63,0-126.1,0-189.1,0c-5.8,0-9.3-3.1-9.8-8.8c-0.2-1.9-0.1-3.8-0.1-5.8
			c0-58.9,0.1-117.7,0.1-176.6c0-3,0-6.1,0-9.1c0-1,0-1.9,0.1-2.9c0.7-5.1,4.2-8.2,9.4-8.2c24.8,0,49.6,0,74.4,0
			c101.3,0,202.5,0,303.8-0.1c2.9,0,5.3,0.5,7.4,2.5c2.1,2,2.9,4.5,2.9,7.4c0,3.4,0,6.7,0,10.1c0,57.1,0,114.2,0,171.3
			c0,3.4,0.1,6.7,0,10.1c-0.1,1.6-0.3,3.2-0.9,4.6c-1.5,3.5-4,5.5-8.2,5.4c-10.2-0.1-20.5-0.1-30.7-0.1
			C317.5,224.5,264.4,224.5,211.3,224.5C211.3,224.5,211.3,224.5,211.3,224.5z"/>
		<path class="st1" d="M265,136.5c-36.5,0-73,0-109.4,0c-1.4,0-2.9,0.1-4.3,0c-3-0.2-5.2-2.8-5.1-5.4c0.1-1,0-1.9,0-2.9
			c0-19,0-38.1,0-57.1c0-1.1-0.1-2.2,0-3.4c0.3-2.9,2.3-4.9,5.3-5c5-0.2,9.9-0.3,14.9-0.3c45.6-0.1,91.2-0.2,136.8-0.3
			c22.1-0.1,44.2-0.2,66.2-0.3c2.1,0,4.1-0.2,6.1,0.6c1.1,0.5,2.5,0.2,3.8,0.3c3.7,0.2,5.5,2,5.7,5.7c0,0.8,0,1.6,0,2.4
			c0,19,0,38.1,0,57.1c0,0.8,0,1.6,0,2.4c-0.1,3.9-0.7,4.8-4.4,5.7c-1.7,0.4-3.5,0.5-5.2,0.5c-20,0-40,0-60,0
			C298.6,136.5,281.8,136.5,265,136.5C265,136.5,265,136.5,265,136.5z"/>
		<path class="st1" d="M279.2,46.7c-44.6,0-83.4,0-122.3,0c-0.3,0-0.6,0-1,0c-6.1,0.1-5.5-0.4-6.5-5.9c-0.7-3.7-0.1-7.7,0.1-11.5
			c0.1-2.1,2.7-4.2,5.5-4.6c1.1-0.2,2.2-0.1,3.4-0.1c17-0.1,33.9-0.2,50.9-0.2c59.3,0,118.7,0,178,0c1.6,0,3.2-0.1,4.8,0
			c2.8,0.2,4.6,1.7,4.7,4.4c0.2,4.5,0.2,9,0.2,13.4c0,0.9-0.4,1.9-0.7,2.8c-0.8,2.3-0.8,2.3-3.3,2.3c-2.5,0-5.1,0.2-7.6,0.2
			c-12.8-0.1-25.6-0.3-38.4-0.4C322.4,47.1,297.9,46.9,279.2,46.7z"/>
		<path class="st1" d="M30.8,78.2C30.5,52,52.4,30.1,78.9,30.1c25,0,48.1,20.4,48,48.4c-0.1,28-23.3,47.9-48,47.9
			C52.5,126.4,30.5,104.6,30.8,78.2z"/>
		<path class="st2" d="M331.5,184.8c-11.5,0-23,0-34.5,0c-1.3,0-2.6,0-3.8-0.1c-1.6-0.2-2.7-1.5-2.8-2.8c-0.2-1.6,1-3,2.8-3.3
			c0.9-0.2,1.9-0.2,2.9-0.2c23.8,0,47.7,0,71.5,0c1.3,0,2.6,0.1,3.8,0.4c1.3,0.3,2,1.7,1.9,3c-0.1,1.2-0.7,2.2-1.9,2.5
			c-1.4,0.3-2.8,0.5-4.2,0.5c-11,0-22.1,0-33.1,0C333.1,184.7,332.3,184.7,331.5,184.8C331.5,184.7,331.5,184.7,331.5,184.8z"/>
		<path class="st3" d="M332.5,163.1c-11.7,0-23.3,0-35,0c-1.6,0-3.2-0.1-4.8-0.3c-1.4-0.2-2.3-1.3-2.5-2.6c-0.1-1.4,0.9-2.8,2.4-3.1
			c1.1-0.2,2.2-0.3,3.3-0.3c24.5,0,48.9,0,73.4,0c1,0,1.9,0,2.9,0.2c1.2,0.3,2.2,1.7,2.2,2.8c0,1.2-1,2.6-2.2,2.8
			c-1.4,0.3-2.9,0.3-4.3,0.3C356.2,163,344.3,163,332.5,163.1C332.5,163,332.5,163.1,332.5,163.1z"/>
		<path class="st3" d="M333.5,206.2c-11.5,0-23,0-34.6,0c-1.4,0-2.9-0.1-4.3-0.3c-1.3-0.2-2.2-1.5-2.3-2.8c0-1.1,1-2.7,2.2-2.9
			c1.4-0.2,2.9-0.3,4.3-0.3c16.2,0,32.3,0,48.5,0c6.9,0,13.8,0,20.6,0c1.3,0,2.6,0,3.8,0.2c1.4,0.2,2.7,1.8,2.5,3.1
			c-0.1,1.1-1.2,2.5-2.5,2.6c-1.4,0.2-2.9,0.2-4.3,0.3C356.3,206.2,344.9,206.2,333.5,206.2C333.5,206.2,333.5,206.2,333.5,206.2z"
			/>
		<path class="st4" d="M378.4,74.7c0.1,1.4,0.2,2.9,0.2,4.3c0,15.3,0,30.7,0,46c0,1,0,1.9,0,2.9c-0.1,1.9-0.3,2.1-2.3,2.2
			c-1.1,0-2.2,0-3.4,0c-69.1,0-138.1,0-207.2,0c-1.6,0-3.2-0.1-4.8-0.2c-1.9-1.5-1.8-3.7-1.8-5.7c-0.1-14.7-0.1-29.4,0-44.1
			c0.1-6.5,1.7-7.8,8.2-7.4c3,0.2,6.1,0.2,9.1,0.2c64.5,0,128.9,0,193.4,0C372.8,72.9,376,72.1,378.4,74.7z"/>
		<path class="st5" d="M378.4,74.7c-40.8,0-81.5,0-122.3,0c-26.7,0-53.4-0.2-80.1-0.3c-3.7,0-7.3-0.3-11-0.4c-0.9,0-1.9,0-2.8,0.2
			c-0.8,0.1-1.4,0.7-1.4,1.7c0,1,0,1.9,0,2.9c0.1,17.1,0.1,34.2,0.2,51.3c-2.4,0.1-4.8,0.2-7.2,0.1c-0.4,0-1.1-0.7-1.2-1.1
			c-0.2-0.7-0.1-1.6-0.1-2.4c0-18.6,0-37.1,0-55.7c0-0.8,0-1.6,0.1-2.4c0.1-0.4,0.6-0.8,0.9-0.9c0.9-0.1,1.9-0.1,2.9-0.1
			c49.7,0.1,99.5,0.1,149.2,0.2c21.3,0,42.5,0.2,63.8,0.3c2.5,0,5.1,0.3,7.6,0.5c1.2,0.1,1.7,0.7,1.6,1.9
			C378.6,71.8,378.5,73.3,378.4,74.7z"/>
		<path class="st5" d="M273,30.5c37.4,0,74.8,0,112.3,0c1.3,0,2.6,0,3.8,0c1.9,0.1,2.1,0.4,2.2,2.3c0,0.6,0,1.3,0,1.9
			c-0.2,2.2-0.3,4.4-0.5,6.6c-2.1,1-4.4,0.4-6.5,0.5c-2.6,0.1-5.1,0-7.7,0c-2.2,0-4.4,0-6.6-0.6c-1.8-0.5-3.8-0.3-5.7-0.3
			c-24.6,0.1-49.2,0.3-73.9,0.3c-43.3,0.1-86.7,0.1-130,0.2c-5.9,0-5.2,0.4-5.3-5c0-1.3,0-2.6,0-3.8c0-1.9,0.2-2.1,2.3-2.1
			c11,0,22.1,0,33.1,0C218,30.4,245.5,30.4,273,30.5C273,30.5,273,30.5,273,30.5z"/>
		<path class="st4" d="M113.1,81.5c8.4-0.3,8.6,0,6.4,7.5c-5,17-16.3,27.3-33.7,30.7c-5.4,1.1-10.8,1-16.1-0.5
			c-10.1-6.1-17.1-14.6-20.2-26.2c-1.7-6.4-0.9-7.4,5.6-7.5c14-0.1,28.1,0.1,42.1-0.1C102.7,85.4,108.4,85.4,113.1,81.5z"/>
		<path class="st0" d="M93.9,39.1c-3.6,7.5-7,14.7-10.4,21.9c-2.4,5-4.8,10.1-7.1,15.2c-0.5,1.1-1.2,1.3-2.2,1.3
			c-6.9,0-13.7,0-20.6,0c-4.6,0-9.3,0.1-13.9,0.1c-3,0-3.2-0.1-2.9-3.3c0.4-4.2,1.4-8.2,3-12c6.8-16.5,23.6-27.1,41.4-26
			C85.6,36.4,89.8,37.2,93.9,39.1z"/>
		<path class="st0" d="M81.7,77.3c1.4-4.4,3.8-8,5.6-11.8c1.9-4,4-8,5.9-12c1.9-3.9,3.7-7.7,5.7-11.9c0.7,0.3,1.6,0.5,2.3,1
			c11.5,7.6,18.1,18.1,19.5,31.9c0.2,1.8-0.2,2.3-2,2.5c-1.1,0.1-2.2,0.2-3.3,0.2c-10.2,0.1-20.4,0.2-30.6,0.3
			C83.8,77.5,82.9,77.4,81.7,77.3z"/>
		<path class="st6" d="M113.1,81.5c0.5,0.3,1,0.7,1.4,1c-4.4,3.6-9.8,4-15.2,4.2C90.7,86.9,82,86.9,73.4,87c-6.9,0-13.7,0-20.6,0
			c-0.9,0-1.9,0.1-3.1,0.2c1,8.3,3.9,15.6,9.6,21.6c2.4,2.5,5.1,4.9,7.6,7.4c1,1,1.9,2.1,2.8,3.2c-15.8-2.7-31.8-18.1-32.7-37.9
			c1.1-0.1,2.1-0.3,3.2-0.3c22.1,0,44.1,0.1,66.2,0.2C108.6,81.1,110.8,81.4,113.1,81.5z"/>
		<path class="st7" d="M267.5,99.1c-25.4,0-50.8,0-76.2,0c-5.1,0-10.2-0.2-15.3-0.3c-0.6,0-1.3-0.1-1.9-0.2
			c-1.3-0.2-2.4-1.4-2.4-2.6c-0.1-1.2,0.9-2.5,2.2-2.8c1.2-0.3,2.5-0.4,3.8-0.4c4-0.1,8-0.1,12-0.1c56.1,0,112.2-0.1,168.3-0.1
			c1.3,0,2.6,0,3.8,0.2c1.6,0.2,2.7,1.5,2.7,2.9c0.1,1.4-0.9,2.8-2.5,3.1c-1.6,0.3-3.2,0.3-4.8,0.3c-25.4,0-50.8,0-76.2,0
			C276.5,99.1,272,99.1,267.5,99.1C267.5,99.1,267.5,99.1,267.5,99.1z"/>
		<path class="st7" d="M266.3,118.5c-28,0-56,0-84,0c-2.1,0-4.2,0-6.2-0.1c-0.8,0-1.6-0.1-2.4-0.3c-1.2-0.3-2.3-1.7-2.2-2.8
			c0-1.1,1.1-2.4,2.4-2.7c1.6-0.3,3.2-0.4,4.8-0.5c2.4-0.1,4.8-0.1,7.2-0.1c56,0,112,0,168,0c1.3,0,2.6-0.1,3.8,0.1
			c0.9,0.1,1.9,0.4,2.7,0.8c1.8,1,1.7,3.7-0.1,4.8c-0.7,0.4-1.5,0.7-2.2,0.7c-1.4,0.1-2.9,0.1-4.3,0.1
			C324.5,118.5,295.4,118.5,266.3,118.5C266.3,118.5,266.3,118.5,266.3,118.5z"/>
		<path class="st8" d="M206.7,86.7c-9.7,0-19.5,0-29.2,0c-1.6,0-3.2-0.3-4.7-0.7c-0.9-0.2-1.5-1.2-1.5-2.2c0-1.1,0.7-2.2,1.8-2.6
			c0.5-0.1,0.9-0.3,1.4-0.3c0.8-0.1,1.6-0.1,2.4-0.1c19.6-0.1,39.3-0.3,58.9-0.4c1.7,0,3.5,0.3,5.2,0.7c1.2,0.3,1.9,1.3,2,2.4
			c0.1,1.2-0.7,2.2-1.8,2.5c-1.3,0.4-2.8,0.7-4.2,0.7c-5.9,0.1-11.8,0-17.7,0c-4.2,0-8.3,0-12.5,0C206.7,86.8,206.7,86.7,206.7,86.7
			z"/>
	</g>
</g>
</svg>
