<?xml version="1.0" encoding="utf-8"?>
<!-- Generator: Adobe Illustrator 26.3.1, SVG Export Plug-In . SVG Version: 6.00 Build 0)  -->
<svg version="1.1" id="small_box" xmlns="http://www.w3.org/2000/svg" xmlns:xlink="http://www.w3.org/1999/xlink" x="0px" y="0px"
	 viewBox="0 0 379.9 214.1" style="enable-background:new 0 0 379.9 214.1;" xml:space="preserve">
<style type="text/css">
	.st0{fill:#FFFFFF;}
	.st1{fill:#010000;}
	.st2{fill:#CDCDCD;}
	.st3{fill:#FDFDFD;}
	.st4{fill:#FEFEFE;}
	.st5{fill:#060606;}
	.st6{fill:#020202;}
	.st7{fill:#010101;}
	.st8{fill:#030303;}
</style>
<g>
	<g>
		<path class="st0" d="M190.1,214.1c-55.7,0-111.3,0-167,0c-0.6,0-1.3,0-1.9,0c-11.1,0.6-21-9.8-21.1-21c0-3.5,0-7,0-10.6
			c0-53.1,0-106.2,0-159.3c0-5,1.3-9.4,3.8-13.6c1.3-2.1,2.9-3.8,4.9-5.1C13,1.7,17.3,0,22.6,0c111.6,0.1,223.3,0.2,334.9,0
			c12.2,0,22.4,10.6,22.4,22.5c-0.1,56.5-0.1,112.9,0,169.4c0,4.5-1.1,8.6-3.5,12.3c-4.1,6.5-10,10-17.9,10
			C302.3,214.1,246.2,214.1,190.1,214.1z"/>
		<path class="st1" d="M190,6.4c55.7,0,111.3,0,167,0c3.3,0,6.3,0.6,9.2,2.2c4.8,2.7,7,7,7.3,12.1c0.4,5.3,0.1,10.6,0.1,15.8
			c0,47.3,0,94.7,0,142c0,4.8,0,9.6-0.1,14.4c-0.1,7.2-4.9,13.4-11.8,15.1c-1.4,0.3-2.9,0.2-4.3,0.2c-15.2,0-30.4,0-45.6,0
			c-96.3,0-192.6,0-288.9,0c-3.1,0-5.9-0.4-8.7-1.9c-5.4-2.8-7.8-7.5-8.2-13.2c-0.4-4.8-0.2-9.6-0.2-14.4c0-47.7,0-95.3,0-143
			c0-4.5,0-9,0.1-13.4c0.3-8.8,4.7-13.1,11.3-15.5c1.4-0.5,3.2-0.4,4.7-0.4c15.4-0.1,30.7-0.1,46.1-0.1C108.8,6.3,149.4,6.3,190,6.4
			C190,6.3,190,6.3,190,6.4z"/>
		<path class="st2" d="M366.8,16.9c1.5,1.4,1.2,3.3,1.2,5c0.1,4,0,8,0,12c0,37.6,0,75.2,0,112.8c0,14.1,0.1,28.1,0.1,42.2
			c0,2.1,0,4.2-0.3,6.2c-0.7,4.2-3.7,6.7-8,6.7c-13.1,0-26.2,0-39.3,0c-98.5,0-197,0-295.6,0c-1.9,0-3.8-0.1-5.7-0.2
			c-1.5-1.7-1.6-3.8-1.5-5.9c0.6-23.4-1.4-46.7-1-70c0.5-28.1,0.9-56.2,2.8-84.3c0.3-5.1-0.2-10.2,0.8-15.3c1.2-6,4.6-8.9,10.6-8.8
			c108.1,0.9,216.3,0.1,324.4,0.4C359.2,17.6,363,17.4,366.8,16.9z"/>
		<path class="st3" d="M366.8,16.9c-0.3,1.2-0.7,2.1-2.2,2.1c-1.3,0-2.6,0-3.8,0C253.2,19,145.6,19,38,19c-2.2,0-4.4-0.4-6.6-0.5
			c-3.3-0.1-6.3,0.9-8.5,3.4c-0.5,0.5-0.6,1.4-0.8,2.2c-1.1,4.9-0.9,9.8-1,14.8c0,2.4,0.1,4.8-0.7,7.1c-0.3,1-0.2,2.2-0.2,3.3
			c0,3.7,0,7.4-0.1,11c-0.1,2.2-0.4,4.4-0.6,6.6c-0.1,1.3-0.2,2.5-0.2,3.8c-0.1,6.7-0.1,13.4-0.1,20.1c0,3.8,0.3,7.7-0.7,11.4
			c-0.3,1-0.1,2.2-0.1,3.3c0,15.2,0,30.4,0,45.6c0,1.9,0.4,3.8,0.5,5.7c0.1,1.4,0.2,2.9,0.2,4.3c0,13.4,0.1,26.9,0.1,40.3
			c-3.3,0.6-5-1.7-6.3-4c-0.8-1.5-1-3.4-1.1-5.1c-0.2-3.7,0-7.4,0-11c0-52,0-103.9,0-155.9c0-1.3-0.1-2.6,0.1-3.8
			c0.2-1.4,0.3-2.9,0.9-4.2c1.4-3.1,3.7-5,7.4-5c9.3,0.1,18.5,0,27.8,0c103.3,0,206.6,0,309.8,0c0.6,0,1.3,0,1.9,0
			C363,12.4,365.4,13.9,366.8,16.9z"/>
		<path d="M148.6,156.1c-1-6-2.1-11.8-3-17.6c-0.5-3.3-0.9-6.6-1.3-10c-0.1-1.2-0.7-1.7-1.9-1.7c-1.1,0-2.2,0-3.4,0
			c-8.6,0-17.3,0-25.9,0c-1.4,0-3,0-4.2-0.5c-0.9-0.3-1.6-1.5-2-2.4c-0.4-0.9,0.9-2.5,2.1-2.9c0.4-0.2,0.9-0.2,1.4-0.3
			c1-0.1,1.9-0.1,2.9-0.1c9.6,0,19.2,0,28.8,0c1.1,0,2.2,0,3.4,0.1c1.7,0.2,2.7,1.1,2.6,2.8c-0.1,1.7,0.6,3.1,1,4.6
			c1,4,1.9,8.1,2.7,12.1c0.9,4.5,1.7,9.1,2.6,13.7c0.5,2.4,0.7,2.5,2.7,2.5c9.8,0,19.5,0,29.3,0c1.3,0,2.1-0.4,2.5-1.7
			c2.9-10.1,8.4-18.9,13.1-28.2c2.2-4.4,5.3-6.3,10.3-6.1c6.1,0.3,12.2,0.1,18.2,0.1c1.1,0,2.2,0,3.4,0c0.9,0,1.5-0.5,1.5-1.4
			c0.1-1,0.1-1.9,0.1-2.9c0-9.3,0-18.6,0.1-27.8c0-0.6,0.1-1.3-0.1-1.9c-0.2-0.5-0.7-1.2-1.1-1.2c-1.3-0.2-2.5-0.1-3.8-0.1
			c-11.7,0-23.4-0.1-35,0.1c-2.4,0-4-0.8-5.1-2.7c-1-1.6-1.9-3.4-2.5-5.1c-1.9-5.3-3.6-10.6-5.3-15.9c-1-3-1-3-3.9-3
			c-11,0-22.1,0-33.1,0c-3,0-3.1,0.1-3.1,2.9c0,2.9,0,5.8,0,8.6c0,2.6-0.3,5.1-0.3,7.6c0,1.2-0.5,1.7-1.4,2.2
			c-1.7,1-3.5,1.6-5.5,1.6c-1.1,0-2.2,0-3.4,0c-27.7,0-55.3,0-83,0c-2.1,0-4.2-0.1-6.2-0.1c-1.6,0-2.6-0.8-3.4-2.2
			c-0.9-1.7-1.7-3.4-1.6-5.4c0.1-11,0.1-22.1,0.2-33.1c0-1.4,0.2-2.9,0.4-4.3c0.4-2.5,1.3-3.2,3.8-3.5c0.9-0.1,1.9-0.1,2.9-0.1
			c29.4,0,58.9,0,88.3,0c2.1,0,4.1,0.3,6.2,0.5c1.9,0.2,2.7,1.1,2.9,3.2c0.1,1.1,0.1,2.2,0.1,3.4c0,3.2,0,6.4,0,9.6
			c0,2.7,0.2,2.8,3.1,2.9c1,0,1.9,0,2.9,0c9.6,0,19.2,0,28.8,0c1.1,0,2.2,0,3.4,0c4.2,0.2,6.1,1.5,7.4,5.5
			c1.8,5.3,3.5,10.6,5.3,15.9c0.3,0.9,0.6,1.8,0.9,2.7c0.8,2.3,0.8,2.3,3.4,2.4c1,0,1.9,0,2.9,0c11.4,0,22.7,0,34.1,0
			c6.1,0,6.8,0.6,7.2,6.8c0.1,1.9,0.1,3.8,0.1,5.8c0,17.1,0,34.2,0,51.4c0,1.3,0,2.6,0,3.8c0.1,1.9,0.3,2.1,2.3,2.2
			c0.8,0,1.6,0,2.4,0c21.4,0,42.9,0,64.3,0c1.3,0,2.6,0,3.8,0c1,0,1.5-0.6,1.4-1.5c-0.3-7.2,0.8-14.4-0.1-21.6
			c-0.5-3.8-0.4-7.7-0.4-11.5c-0.1-25.4-0.2-50.9-0.3-76.3c0-1.3,0.1-2.6,0.4-3.8c0.3-1.4,1.4-2.4,2.8-2.2c2.7,0.5,4.7-1.6,7.4-1.2
			c2.7,0.4,5.4,0.1,8.1,0.1c2.6,0,5.1,0,7.7,0c2.6,0,5.1,0,7.7,0.1c0.8,0,1.6,0,2.4,0.2c3.8,1.3,5.3,2.5,5.2,6.4c-0.1,3,0,6.1,0,9.1
			c0,22.1,0.1,44.2,0,66.2c0,19.5-0.2,39-0.3,58.5c0,0.8,0,1.6,0,2.4c-0.2,4-2.9,6.8-6.8,7.1c-0.5,0-1,0-1.4,0c-8.3,0-16.6,0-25,0
			c-6.3-0.1-7.4-1.2-7.4-7.7c0-4.2,0-8.3,0.1-12.5c0-1.1,0-2.2,0-3.4c-0.1-1.9-0.3-2.1-2.3-2.2c-1.3,0-2.6,0-3.8,0
			c-20.3,0-40.6,0.1-60.9,0.1c-2.7,0-5.4-0.1-8.2-0.2c-1.9-0.1-3.2-0.8-4-2.7c-0.8-1.9-1.5-3.8-1.4-6c0.1-5.8,0-11.5,0-17.3
			c0-1.6-0.4-2-2-2c-7.5,0-15,0-22.6,0c-1.5,0-2.3,0.7-2.9,1.9c-4.6,8.8-9.3,17.5-14,26.2c-0.8,1.4-1.4,2.7-1,4.5
			c0.4,1.7-0.9,3-2.7,3.3c-0.9,0.2-1.9,0.1-2.9,0.1c-29,0-57.9,0-86.9,0c-0.5,0-1,0.1-1.4,0c-2.7-0.8-3.8,0.5-5,2.8
			c-2.9,5.4-7.4,9.1-13.7,10.2c-9.8,1.7-20-6.1-20.6-16c-0.8-12.1,7.4-19.8,18.6-20.6c3.6-0.2,6.9,1,9.7,3.4
			c2.9,2.6,5.1,5.7,6.5,9.4c0.3,0.9,0.5,1.9,0.9,2.7c0.5,1.1,1.1,1.8,2.5,1.8c16.5-0.1,33-0.1,49.4-0.1
			C147.6,156.5,147.9,156.3,148.6,156.1z"/>
		<path class="st4" d="M323.2,194.7c-4.3,0-8.6,0-12.9,0c-3.8,0-7.6,0.1-11.4-0.7c-2.6-0.5-5.4-0.2-8.1-0.2c-2.4,0-3.5-1-3.5-2.4
			c0-1.1,1.3-2.2,3.2-2.4c1.3-0.1,2.6-0.1,3.8-0.1c13.7,0,27.5-0.1,41.2-0.1c2.4,0,4.8,0.2,7.1-0.7c1.2-0.5,2.5-0.2,3.6,0.7
			c1.2,1.1,1.7,2.5,1.2,3.9c-0.5,1.4-1.6,1.9-3,1.9c-0.8,0-1.6,0-2.4,0C335.7,194.8,329.5,194.8,323.2,194.7
			C323.2,194.8,323.2,194.7,323.2,194.7z"/>
		<path class="st5" d="M281.3,111.2c-5.7,0-11.5,0-17.2,0c-1.6,0-3.2-0.2-4.7-0.5c-1.4-0.3-2.2-1.6-2.1-2.8c0.1-1.3,0.8-2.1,2-2.4
			c1.2-0.3,2.5-0.6,3.8-0.6c12.3,0,24.6,0,36.9,0c1.1,0,2.2,0.3,3.2,0.6c1.2,0.4,1.6,1.5,1.5,2.7c0,1-0.5,2-1.4,2.3
			c-1.2,0.4-2.5,0.7-3.7,0.7C293.4,111.2,287.3,111.2,281.3,111.2z"/>
		<path class="st6" d="M102.7,109.5c-6.1,0-12.1,0-18.2,0c-1.3,0-2.6-0.1-3.8-0.4c-1.1-0.3-1.9-1.2-2-2.4c-0.1-1.2,0.8-2.5,2.1-2.9
			c0.8-0.2,1.6-0.3,2.4-0.3c13.2-0.1,26.4-0.1,39.7-0.1c0.2,0,0.3,0,0.5,0c2.3,0.2,4.2,1.4,4.5,2.9c0.2,1.5-1.9,3.2-4.6,3.2
			c-3.3,0.1-6.7,0-10,0c-3.5,0-7,0-10.5,0C102.7,109.6,102.7,109.5,102.7,109.5z"/>
		<path class="st7" d="M280.7,86.6c-5.9,0-11.8,0-17.7,0c-1.3,0-2.6-0.1-3.8-0.3c-1.2-0.2-1.9-1.2-2-2.4c-0.2-1.3,0.6-2.7,1.8-3.1
			c0.9-0.3,1.9-0.4,2.8-0.4c12.8,0,25.6,0,38.4,0c0.8,0,1.6,0.1,2.4,0.2c1.2,0.3,2.3,1.6,2.4,2.7c0.1,1-1,2.5-2.2,2.9
			c-0.8,0.2-1.6,0.3-2.4,0.3c-1.6,0.1-3.2,0-4.8,0C290.6,86.6,285.6,86.6,280.7,86.6C280.7,86.6,280.7,86.6,280.7,86.6z"/>
		<path class="st7" d="M280.5,127.7c-5.8,0-11.5,0-17.3,0c-1.3,0-2.6,0-3.8-0.2c-1.3-0.2-2.2-1.4-2.3-2.7c-0.1-1.3,0.7-2.6,2-2.9
			c1.1-0.3,2.2-0.4,3.3-0.4c12.3,0,24.6-0.1,36.9,0c1.3,0,2.5,0.2,3.8,0.6c1,0.3,2,1.8,1.7,2.6c-0.3,0.8-0.8,1.9-1.5,2.2
			c-1.1,0.5-2.4,0.8-3.6,0.8C293.2,127.7,286.8,127.6,280.5,127.7C280.5,127.7,280.5,127.7,280.5,127.7z"/>
		<path class="st7" d="M281,70c-5.7,0-11.5,0-17.2,0c-1.4,0-2.9-0.1-4.3-0.3c-1.3-0.2-2.2-1.5-2.2-2.8c0-1.3,0.8-2.5,2.2-2.7
			c1.4-0.2,2.8-0.4,4.3-0.4c11.8,0,23.6,0,35.4,0c1.1,0,2.2,0.1,3.3,0.3c1.3,0.3,2.1,1.5,2.1,2.8c0,1.3-0.8,2.6-2.1,2.8
			c-1.2,0.2-2.5,0.3-3.8,0.3C292.7,70.1,286.8,70,281,70z"/>
		<path class="st8" d="M100.2,95.9c-5.6,0-11.2,0-16.8,0c-1.1,0-2.2-0.1-3.3-0.3c-1.1-0.2-1.9-1.5-1.9-2.5c0-1,0.8-2.2,1.9-2.5
			c1.2-0.3,2.5-0.4,3.8-0.4c6.2-0.1,12.5-0.1,18.7-0.2c4.3,0,8.6-0.2,12.9-0.2c1.3,0,2.6,0,3.8,0.2c1.3,0.2,2.3,1.4,2.4,2.6
			c0.1,1.4-0.9,2.9-2.4,3.1c-1.1,0.2-2.2,0.2-3.3,0.2C110.8,96,105.5,96,100.2,95.9C100.2,95.9,100.2,95.9,100.2,95.9z"/>
		<path class="st4" d="M267.8,187c0.2,0,0.3,0,0.5,0c2.9,0.1,4.7,1.1,5.2,3.2c0.6,2.1-0.3,4.2-2.4,5.7c-2.8,2-7.6,0.4-8.7-2.8
			c-1-2.7,0.7-5.6,3.6-6C266.5,187,267.1,187.1,267.8,187C267.8,187.1,267.8,187,267.8,187z"/>
		<path class="st0" d="M321.7,37.1c8.6,0,16.9,0,25.2,0c3.9,0,3.7-0.1,3.7,3.6c0,9,0,17.9,0,26.9c0,35,0.1,70.1,0.1,105.1
			c0,0.5-0.1,0.9-0.1,1.6c-0.9,0.1-1.8,0.3-2.8,0.3c-7.8,0-15.7,0-23.5,0c-1.6,0-1.9-0.3-2-2c0-1.3,0-2.6,0-3.8
			c-0.1-13.1,0.1-26.2-0.5-39.3c-0.4-10.9-0.3-21.7-0.3-32.6c0-18.4,0-36.8,0-55.2C321.6,40.1,321.6,38.5,321.7,37.1z"/>
		<path class="st0" d="M90.2,39.2c13.6,0,27.2,0,40.8,0c1.3,0,2.6-0.1,3.8,0.1c0.5,0.1,0.9,0.7,1.2,1.2c0.2,0.4,0.1,0.9,0.1,1.4
			c0,10.2,0,20.5,0,30.7c0,0.5,0.1,1-0.1,1.4c-0.3,0.5-0.8,1.1-1.2,1.1c-1.1,0.2-2.2,0.1-3.3,0.1c-27.8,0-55.7,0-83.5,0
			c-4.3,0-4.3,0.1-4.3-4.1c0-9.9-0.1-19.8-0.2-29.8c0-2,0.2-2.2,2.2-2.3c6.2,0,12.5,0,18.7,0C72.9,39.2,81.6,39.2,90.2,39.2z"/>
		<path class="st4" d="M66,158c0.1-6.8,4.8-11.7,11.6-12.3c2.7-0.2,5,0.5,7,2.5c2.8,2.8,4.4,6.2,5.2,10.1c0.1,0.7,0,1.6-0.3,2.3
			c-0.8,2.7-2.5,4.8-4.7,6.5c-3.7,3-7.8,3.6-12.1,1.5C69.3,167.1,65.7,164,66,158z"/>
	</g>
</g>
</svg>
