<?xml version="1.0" encoding="utf-8"?>
<!-- Generator: Adobe Illustrator 26.0.2, SVG Export Plug-In . SVG Version: 6.00 Build 0)  -->
<svg version="1.1" id="simpleshow_ILY_hand_v2" xmlns="http://www.w3.org/2000/svg" xmlns:xlink="http://www.w3.org/1999/xlink"
	 x="0px" y="0px" viewBox="0 0 1024 1024" style="enable-background:new 0 0 1024 1024;" xml:space="preserve">
<style type="text/css">
	.st0{fill-rule:evenodd;clip-rule:evenodd;fill:#FF9900;}
	.st1{fill:#FFFFFF;}
</style>
<g id="background-round_00000097481466192939642790000015410618775850920889_">
	<path class="st0" d="M1024,318.9c0-12.2,0-24.3-0.1-36.5c-0.1-10.2-0.2-20.5-0.5-30.7c-0.6-22.3-1.9-44.8-5.9-66.9
		c-4-22.4-10.6-43.2-21-63.5c-10.2-20-23.5-38.3-39.3-54.1c-15.9-15.9-34.2-29.1-54.2-39.3c-20.4-10.4-41.2-16.9-63.6-20.9
		c-22.1-4-44.6-5.3-66.9-5.9c-10.2-0.3-20.5-0.4-30.7-0.5c-12.2-0.1-24.3-0.1-36.5-0.1L564.2,0H458.6L319.8,0.5
		c-12.2,0-24.4,0-36.6,0.1C273,0.6,262.7,0.8,252.5,1c-22.4,0.6-44.9,1.9-67,5.9c-22.4,4-43.3,10.6-63.7,20.9
		c-20,10.2-38.4,23.5-54.3,39.3C51.6,83,38.3,101.3,28.1,121.3c-10.4,20.3-17,41.2-21,63.6c-4,22.1-5.3,44.5-5.9,66.8
		c-0.3,10.2-0.4,20.5-0.5,30.7C0.6,294.6,0,309.7,0,321.9l0,136.8l0,106.8l0.6,139.7c0,12.2,0,24.3,0.1,36.5
		c0.1,10.3,0.2,20.5,0.5,30.8c0.6,22.3,1.9,44.9,5.9,67c4,22.4,10.6,43.3,21,63.6c10.2,20,23.5,38.3,39.4,54.2
		c15.9,15.9,34.2,29.2,54.3,39.4c20.4,10.4,41.3,16.9,63.7,21c22.1,4,44.7,5.3,67,5.9c10.3,0.3,20.5,0.4,30.8,0.5
		c12.2,0.1,24.4,0.1,36.6,0.1l140,0h105.9l139.7,0c12.2,0,24.3,0,36.5-0.1c10.2-0.1,20.5-0.2,30.7-0.5c22.3-0.6,44.8-1.9,66.9-5.9
		c22.4-4,43.2-10.6,63.6-21c20-10.2,38.3-23.5,54.2-39.4c15.9-15.9,29.2-34.2,39.3-54.2c10.4-20.4,16.9-41.2,21-63.7
		c4-22.1,5.3-44.6,5.9-66.9c0.3-10.3,0.4-20.5,0.5-30.8c0.1-12.2,0.1-24.3,0.1-36.5c0,0,0-137.2,0-139.7V458.6
		C1024,456.7,1024,318.9,1024,318.9z"/>
</g>
<g id="logo_overlay">
	<path id="logo_background" d="M817.8,462.7c-0.3-15.8-1-31.6-1.7-47.5c-1.1-25.4-3.5-50.6-6.8-75.8c-3.4-26-8.1-51.8-14.9-77.2
		c-7.7-29-18.1-57-33.1-83.2c-25.4-44.3-61.8-75.6-109.9-93c-28-10.1-56.9-15.2-86.5-17.4c-20.2-1.5-40.4-2.2-60.7-1.2
		c-19.6,0.9-38.9,3.1-58.1,7.1c-30.1,6.3-58.5,16.9-84.9,33c-35.8,21.8-63.8,51.4-85.8,86.9c-18,29.1-30.9,60.3-40.7,93
		c-11.1,37.1-17.9,75.1-22.1,113.5c-2.8,25.1-4.6,50.3-5,75.5c-0.5,26.1-0.4,52.2,0,78.3c0.4,26.5,1.5,53,3.9,79.5
		c1.2,13.5,2.1,27,3.8,40.4c2.4,18.4,5.1,36.7,8.4,54.9c5.1,28.4,12.5,56.2,23.2,83c4.4,11,9.1,22,15.2,32.2
		c0.1,0.2,0.2,0.4,0.4,0.7c5.2,7.7,10.7,15.1,16.7,22.2c30.4,36.2,68.3,61.5,112.9,76.8c1.3,0.4,3.3,1.2,4.6,1.5l0,0
		c12.5,2.3,24.9,4.9,37.4,6.7c18.4,2.7,36.9,3.5,55.4,4.1c20.1,0.6,40.2,0,60.2-2c22.8-2.3,45.1-6.7,66.8-14
		c42-13.9,77.6-37.4,106.6-70.9c21.4-24.8,37.4-52.7,50-82.8c16.5-39.4,26.5-80.6,33.3-122.6c4.4-27.5,7.4-55.1,9.1-82.8
		c1.3-20.3,2-40.7,2.4-61.1C818.4,501.2,818.1,481.9,817.8,462.7z"/>
	<path id="ILY_hand_only" class="st1" d="M395.4,940.9c13-28.8,26-57.6,39.1-86.4c4.4-9.7,9.1-19.3,16.2-27.5
		c5.5-6.4,10.8-12.9,16.5-19.1c7.4-7.9,15.4-15.4,25-20.6c19-10.3,38-20.7,57.2-30.8c17.2-9.1,33.6-19.2,49.9-29.8
		c14.4-9.4,27-20.6,36.7-34.9c10.8-15.9,24.4-28.5,40.9-38.3c1.7-1,3.4-2.1,5-3.3c5-3.8,10.1-7.4,14.7-11.6
		c6.9-6.3,14.2-11.9,22.2-16.6c5.2-3,10.4-5.9,15.4-9.3c6.2-4.3,12.3-8.8,18.1-13.6c4.6-3.8,8-8.8,11.1-14.1
		c1.1-1.9,1.1-3.4-0.6-4.9c-0.6-0.6-1.1-1.3-1.8-1.9c-15.2-14.4-33.1-20-53.8-16.3c-15.3,2.8-29,9.3-41.6,18.2
		c-7.2,5.1-13.9,10.9-20.7,16.5c-12.2,9.9-24.6,19.5-38.5,26.8c-6.2,3.3-12.6,6-19.6,7c-1.9,0.3-3.4-0.1-4.3-1.8
		c-1.1-2.2-2.2-4.3-3-6.6c-2-5.2-0.5-10.4,0.3-15.6c1.6-10.3,3.1-20.6,4.7-30.8c1.5-9.6,2.8-19.2,4.8-28.6
		c3.3-15.3,8.9-30,14.1-44.8c7.3-20.9,15.7-41.3,25.2-61.2c7.1-14.8,13.8-29.7,19.1-45.2c6.5-18.9,13.3-37.6,21.5-55.8
		c4-8.8,7.1-18,9.2-27.5c2.3-10,1.4-19.5-4.6-28.2c-7.9-11.6-27.4-16.1-38.7-2.2c-2.2,2.6-4.3,5.4-5.9,8.4
		c-2.3,4.1-4.4,8.3-6.1,12.7c-2.9,7.1-5.3,14.4-8.2,21.6c-6.4,16-13.2,31.8-19.4,47.9C586,397,577,421.7,568,446.3
		c-4.6,12.5-11.8,23.3-20.9,33c-3.4,3.7-8.5,2.8-10.9-1.6c-10.4-10.5-16.9-15.6-31.1-19.6c-12.2-1.4-19.2,0.6-29.3,7.4
		c-0.6,1.1-4.6,4.3-5.8,4.7c-3.4,1.2-5.7-3.5-8.8-6c-8.9-7.5-10.5-9-28.3-10.7c-16.6,1.5-25,8.4-33.2,17.3
		c-5.6,5.8-8.2,7.9-14.4,3.9c-1.6-1.1-3.2-2.4-4.4-4c-3.4-4.3-5.6-9.3-6.2-14.8c-0.6-4.8-0.8-9.7-1-14.5c-0.9-29.1,0-58.1,4.6-87
		c1.6-9.7,1.3-19.6-1.2-29.3c-1.5-5.8-4.8-10.3-9.8-13.5c-6.7-4.3-13-4-19.4,0.9c-10.1,7.7-15.3,18.3-17.7,30.3
		c-3.5,17.2-4.7,34.7-5.2,52.3c-0.5,15.1-0.5,30.2-0.9,45.3c-0.3,9.4-2.2,18.7-1.5,28.2c1,12.9,1.9,25.9,2.8,38.8
		c1.1,16.9,0.7,33.7-2.9,50.2c-3.4,15.6-7.3,31-10.7,46.6c-4.1,18.9-6.3,37.9-5.8,57.3c0.6,22.2,0.4,44.5-2.2,66.7
		c-2.3,19.7-6.5,39-13.5,57.7c-7.8,20.6-18.3,39.9-28.1,59.5c-0.1-0.2-0.2-0.4-0.3-0.6c0.1,0.2,0.2,0.4,0.4,0.7
		c5.2,7.7,10.7,15.1,16.7,22.2c30.4,36.2,68.3,61.5,112.9,76.8c1.3,0.4,3.3,1.2,4.6,1.5c-0.9-0.2-1.8-0.7-2.7-1.1
		C394.2,943.5,394.8,942.2,395.4,940.9z"/>
</g>
</svg>
